<svg xmlns="http://www.w3.org/2000/svg" xmlns:xlink="http://www.w3.org/1999/xlink" width="214" zoomAndPan="magnify" viewBox="0 0 160.5 160.499994" height="214" preserveAspectRatio="xMidYMid meet" version="1.0"><defs><clipPath id="b6810c001c"><path d="M 0 0 L 159.300781 0 L 159.300781 159.300781 L 0 159.300781 Z M 0 0 " clip-rule="nonzero"/></clipPath></defs><g clip-path="url(#b6810c001c)"><path fill="#ffffff" d="M 0 0 L 159.300781 0 L 159.300781 159.300781 L 0 159.300781 Z M 0 0 " fill-opacity="1" fill-rule="nonzero"/></g><path stroke-linecap="butt" transform="matrix(4.827342, 0, 0, 4.827342, 0.000003, 0)" fill-opacity="1" fill="#ffffff" fill-rule="nonzero" stroke-linejoin="miter" d="M 2.000324 2.499596 L 8.999841 2.499596 M 11.000166 2.499596 L 12.999681 2.499596 M 13.999843 2.499596 L 15.000005 2.499596 M 16.000168 2.499596 L 17.00033 2.499596 M 20.000007 2.499596 L 22.000332 2.499596 M 23.999847 2.499596 L 31.000174 2.499596 M 2.000324 3.499759 L 2.999677 3.499759 M 7.999679 3.499759 L 8.999841 3.499759 M 10.000003 3.499759 L 12.999681 3.499759 M 15.000005 3.499759 L 16.000168 3.499759 M 18.999845 3.499759 L 22.000332 3.499759 M 23.999847 3.499759 L 25.000009 3.499759 M 30.000011 3.499759 L 31.000174 3.499759 M 2.000324 4.499921 L 2.999677 4.499921 M 3.999839 4.499921 L 7.000326 4.499921 M 7.999679 4.499921 L 8.999841 4.499921 M 12.999681 4.499921 L 13.999843 4.499921 M 17.00033 4.499921 L 17.999683 4.499921 M 20.000007 4.499921 L 22.000332 4.499921 M 23.999847 4.499921 L 25.000009 4.499921 M 26.000172 4.499921 L 28.999849 4.499921 M 30.000011 4.499921 L 31.000174 4.499921 M 2.000324 5.500083 L 2.999677 5.500083 M 3.999839 5.500083 L 7.000326 5.500083 M 7.999679 5.500083 L 8.999841 5.500083 M 11.000166 5.500083 L 12.000328 5.500083 M 13.999843 5.500083 L 16.000168 5.500083 M 20.000007 5.500083 L 21.00017 5.500083 M 23.999847 5.500083 L 25.000009 5.500083 M 26.000172 5.500083 L 28.999849 5.500083 M 30.000011 5.500083 L 31.000174 5.500083 M 2.000324 6.500245 L 2.999677 6.500245 M 3.999839 6.500245 L 7.000326 6.500245 M 7.999679 6.500245 L 8.999841 6.500245 M 10.000003 6.500245 L 11.000166 6.500245 M 12.999681 6.500245 L 16.000168 6.500245 M 17.999683 6.500245 L 18.999845 6.500245 M 20.000007 6.500245 L 22.000332 6.500245 M 23.999847 6.500245 L 25.000009 6.500245 M 26.000172 6.500245 L 28.999849 6.500245 M 30.000011 6.500245 L 31.000174 6.500245 M 2.000324 7.499598 L 2.999677 7.499598 M 7.999679 7.499598 L 8.999841 7.499598 M 12.999681 7.499598 L 15.000005 7.499598 M 16.000168 7.499598 L 22.999685 7.499598 M 23.999847 7.499598 L 25.000009 7.499598 M 30.000011 7.499598 L 31.000174 7.499598 M 2.000324 8.499761 L 8.999841 8.499761 M 10.000003 8.499761 L 11.000166 8.499761 M 12.000328 8.499761 L 12.999681 8.499761 M 13.999843 8.499761 L 15.000005 8.499761 M 16.000168 8.499761 L 17.00033 8.499761 M 17.999683 8.499761 L 18.999845 8.499761 M 20.000007 8.499761 L 21.00017 8.499761 M 22.000332 8.499761 L 22.999685 8.499761 M 23.999847 8.499761 L 31.000174 8.499761 M 12.000328 9.499923 L 12.999681 9.499923 M 17.00033 9.499923 L 22.000332 9.499923 M 2.000324 10.500085 L 2.999677 10.500085 M 3.999839 10.500085 L 5.000001 10.500085 M 6.000164 10.500085 L 7.000326 10.500085 M 7.999679 10.500085 L 8.999841 10.500085 M 12.999681 10.500085 L 15.000005 10.500085 M 17.999683 10.500085 L 20.000007 10.500085 M 22.000332 10.500085 L 22.999685 10.500085 M 26.000172 10.500085 L 27.000334 10.500085 M 28.999849 10.500085 L 30.000011 10.500085 M 2.999677 11.500247 L 3.999839 11.500247 M 8.999841 11.500247 L 10.000003 11.500247 M 11.000166 11.500247 L 12.000328 11.500247 M 13.999843 11.500247 L 16.000168 11.500247 M 17.999683 11.500247 L 18.999845 11.500247 M 22.000332 11.500247 L 26.000172 11.500247 M 27.000334 11.500247 L 27.999687 11.500247 M 30.000011 11.500247 L 31.000174 11.500247 M 2.999677 12.4996 L 7.000326 12.4996 M 7.999679 12.4996 L 8.999841 12.4996 M 10.000003 12.4996 L 12.000328 12.4996 M 16.000168 12.4996 L 17.00033 12.4996 M 18.999845 12.4996 L 20.000007 12.4996 M 22.000332 12.4996 L 23.999847 12.4996 M 26.000172 12.4996 L 27.000334 12.4996 M 27.999687 12.4996 L 31.000174 12.4996 M 8.999841 13.499763 L 11.000166 13.499763 M 12.000328 13.499763 L 17.00033 13.499763 M 18.999845 13.499763 L 20.000007 13.499763 M 22.999685 13.499763 L 27.000334 13.499763 M 28.999849 13.499763 L 30.000011 13.499763 M 2.999677 14.499925 L 6.000164 14.499925 M 7.999679 14.499925 L 8.999841 14.499925 M 10.000003 14.499925 L 12.000328 14.499925 M 12.999681 14.499925 L 13.999843 14.499925 M 16.000168 14.499925 L 17.00033 14.499925 M 18.999845 14.499925 L 20.000007 14.499925 M 22.999685 14.499925 L 25.000009 14.499925 M 27.000334 14.499925 L 27.999687 14.499925 M 28.999849 14.499925 L 31.000174 14.499925 M 2.000324 15.500087 L 3.999839 15.500087 M 5.000001 15.500087 L 6.000164 15.500087 M 7.000326 15.500087 L 7.999679 15.500087 M 8.999841 15.500087 L 10.000003 15.500087 M 11.000166 15.500087 L 12.000328 15.500087 M 12.999681 15.500087 L 15.000005 15.500087 M 16.000168 15.500087 L 17.00033 15.500087 M 17.999683 15.500087 L 21.00017 15.500087 M 22.000332 15.500087 L 25.000009 15.500087 M 27.000334 15.500087 L 27.999687 15.500087 M 30.000011 15.500087 L 31.000174 15.500087 M 2.000324 16.500249 L 6.000164 16.500249 M 7.999679 16.500249 L 8.999841 16.500249 M 10.000003 16.500249 L 12.000328 16.500249 M 12.999681 16.500249 L 16.000168 16.500249 M 18.999845 16.500249 L 21.00017 16.500249 M 22.000332 16.500249 L 22.999685 16.500249 M 23.999847 16.500249 L 26.000172 16.500249 M 27.000334 16.500249 L 27.999687 16.500249 M 28.999849 16.500249 L 31.000174 16.500249 M 5.000001 17.499602 L 6.000164 17.499602 M 12.000328 17.499602 L 13.999843 17.499602 M 17.00033 17.499602 L 21.00017 17.499602 M 25.000009 17.499602 L 26.000172 17.499602 M 27.000334 17.499602 L 27.999687 17.499602 M 28.999849 17.499602 L 30.000011 17.499602 M 2.000324 18.499765 L 3.999839 18.499765 M 5.000001 18.499765 L 6.000164 18.499765 M 7.999679 18.499765 L 8.999841 18.499765 M 11.000166 18.499765 L 12.000328 18.499765 M 12.999681 18.499765 L 15.000005 18.499765 M 22.000332 18.499765 L 26.000172 18.499765 M 27.000334 18.499765 L 27.999687 18.499765 M 28.999849 18.499765 L 31.000174 18.499765 M 3.999839 19.499927 L 5.000001 19.499927 M 6.000164 19.499927 L 7.999679 19.499927 M 13.999843 19.499927 L 16.000168 19.499927 M 17.999683 19.499927 L 22.999685 19.499927 M 23.999847 19.499927 L 25.000009 19.499927 M 27.000334 19.499927 L 28.999849 19.499927 M 30.000011 19.499927 L 31.000174 19.499927 M 2.000324 20.500089 L 2.999677 20.500089 M 3.999839 20.500089 L 6.000164 20.500089 M 7.999679 20.500089 L 11.000166 20.500089 M 12.999681 20.500089 L 13.999843 20.500089 M 16.000168 20.500089 L 17.00033 20.500089 M 18.999845 20.500089 L 21.00017 20.500089 M 22.000332 20.500089 L 22.999685 20.500089 M 23.999847 20.500089 L 27.000334 20.500089 M 28.999849 20.500089 L 31.000174 20.500089 M 2.999677 21.500251 L 3.999839 21.500251 M 5.000001 21.500251 L 7.999679 21.500251 M 10.000003 21.500251 L 12.999681 21.500251 M 15.000005 21.500251 L 17.00033 21.500251 M 17.999683 21.500251 L 23.999847 21.500251 M 25.000009 21.500251 L 26.000172 21.500251 M 27.000334 21.500251 L 27.999687 21.500251 M 28.999849 21.500251 L 30.000011 21.500251 M 2.000324 22.499604 L 2.999677 22.499604 M 3.999839 22.499604 L 7.000326 22.499604 M 7.999679 22.499604 L 12.000328 22.499604 M 12.999681 22.499604 L 15.000005 22.499604 M 16.000168 22.499604 L 20.000007 22.499604 M 22.000332 22.499604 L 27.000334 22.499604 M 10.000003 23.499767 L 13.999843 23.499767 M 16.000168 23.499767 L 17.00033 23.499767 M 17.999683 23.499767 L 20.000007 23.499767 M 21.00017 23.499767 L 22.999685 23.499767 M 26.000172 23.499767 L 27.000334 23.499767 M 27.999687 23.499767 L 31.000174 23.499767 M 2.000324 24.499929 L 8.999841 24.499929 M 13.999843 24.499929 L 16.000168 24.499929 M 17.999683 24.499929 L 18.999845 24.499929 M 20.000007 24.499929 L 22.999685 24.499929 M 23.999847 24.499929 L 25.000009 24.499929 M 26.000172 24.499929 L 27.999687 24.499929 M 28.999849 24.499929 L 31.000174 24.499929 M 2.000324 25.500091 L 2.999677 25.500091 M 7.999679 25.500091 L 8.999841 25.500091 M 12.000328 25.500091 L 12.999681 25.500091 M 17.00033 25.500091 L 17.999683 25.500091 M 18.999845 25.500091 L 22.999685 25.500091 M 26.000172 25.500091 L 27.999687 25.500091 M 30.000011 25.500091 L 31.000174 25.500091 M 2.000324 26.500253 L 2.999677 26.500253 M 3.999839 26.500253 L 7.000326 26.500253 M 7.999679 26.500253 L 8.999841 26.500253 M 10.000003 26.500253 L 15.000005 26.500253 M 17.00033 26.500253 L 20.000007 26.500253 M 22.000332 26.500253 L 27.000334 26.500253 M 30.000011 26.500253 L 31.000174 26.500253 M 2.000324 27.499606 L 2.999677 27.499606 M 3.999839 27.499606 L 7.000326 27.499606 M 7.999679 27.499606 L 8.999841 27.499606 M 11.000166 27.499606 L 13.999843 27.499606 M 17.00033 27.499606 L 20.000007 27.499606 M 22.000332 27.499606 L 22.999685 27.499606 M 25.000009 27.499606 L 27.000334 27.499606 M 27.999687 27.499606 L 31.000174 27.499606 M 2.000324 28.499769 L 2.999677 28.499769 M 3.999839 28.499769 L 7.000326 28.499769 M 7.999679 28.499769 L 8.999841 28.499769 M 10.000003 28.499769 L 11.000166 28.499769 M 15.000005 28.499769 L 16.000168 28.499769 M 18.999845 28.499769 L 20.000007 28.499769 M 21.00017 28.499769 L 22.000332 28.499769 M 22.999685 28.499769 L 23.999847 28.499769 M 25.000009 28.499769 L 27.999687 28.499769 M 30.000011 28.499769 L 31.000174 28.499769 M 2.000324 29.499931 L 2.999677 29.499931 M 7.999679 29.499931 L 8.999841 29.499931 M 11.000166 29.499931 L 12.999681 29.499931 M 13.999843 29.499931 L 15.000005 29.499931 M 17.00033 29.499931 L 20.000007 29.499931 M 21.00017 29.499931 L 23.999847 29.499931 M 26.000172 29.499931 L 27.000334 29.499931 M 28.999849 29.499931 L 30.000011 29.499931 M 2.000324 30.500093 L 8.999841 30.500093 M 10.000003 30.500093 L 12.000328 30.500093 M 17.999683 30.500093 L 20.000007 30.500093 M 22.000332 30.500093 L 22.999685 30.500093 M 23.999847 30.500093 L 25.000009 30.500093 M 26.000172 30.500093 L 27.000334 30.500093 M 28.999849 30.500093 L 31.000174 30.500093 " stroke="#000000" stroke-width="1" stroke-opacity="1" stroke-miterlimit="4"/></svg>