<svg xmlns="http://www.w3.org/2000/svg" xmlns:xlink="http://www.w3.org/1999/xlink" width="56" zoomAndPan="magnify" viewBox="0 0 42 42" height="56" preserveAspectRatio="xMidYMid meet" version="1.0"><defs><clipPath id="680008ac17"><path d="M 0.488281 0 L 30.523438 0 L 30.523438 30 L 0.488281 30 Z M 0.488281 0 " clip-rule="nonzero"/></clipPath><clipPath id="f057729952"><path d="M 19.441406 18.953125 L 41.417969 18.953125 L 41.417969 40.929688 L 19.441406 40.929688 Z M 19.441406 18.953125 " clip-rule="nonzero"/></clipPath></defs><g clip-path="url(#680008ac17)"><path fill="#ffffff" d="M 15.472656 29.964844 C 15.472656 19.976562 10.480469 14.984375 0.488281 14.984375 C 10.480469 14.984375 15.472656 9.992188 15.472656 0 C 15.472656 9.992188 20.464844 14.984375 30.453125 14.984375 C 20.464844 14.984375 15.472656 19.976562 15.472656 29.964844 Z M 15.472656 29.964844 " fill-opacity="1" fill-rule="nonzero"/></g><g clip-path="url(#f057729952)"><path fill="#6e2af5" d="M 30.429688 40.929688 C 30.429688 33.601562 26.769531 29.941406 19.441406 29.941406 C 26.769531 29.941406 30.429688 26.28125 30.429688 18.953125 C 30.429688 26.28125 34.089844 29.941406 41.417969 29.941406 C 34.089844 29.941406 30.429688 33.601562 30.429688 40.929688 Z M 30.429688 40.929688 " fill-opacity="1" fill-rule="nonzero"/></g></svg>