<svg xmlns="http://www.w3.org/2000/svg" xmlns:xlink="http://www.w3.org/1999/xlink" width="1366" zoomAndPan="magnify" viewBox="0 0 1024.5 576" height="768" preserveAspectRatio="xMidYMid meet" version="1.0"><defs><clipPath id="49e43c74e6"><path d="M 127 0.140625 L 924.238281 0.140625 L 924.238281 575 L 127 575 Z M 127 0.140625 " clip-rule="nonzero"/></clipPath></defs><g clip-path="url(#49e43c74e6)"><path fill="#000000" d="M 924.105469 511.519531 C 923.699219 507.984375 921.78125 505.054688 918.953125 503.339844 C 917.839844 501.21875 916.527344 498.996094 915.617188 497.582031 L 907.640625 485.160156 L 885.214844 451.726562 L 819.664062 350.824219 C 821.582031 343.351562 822.792969 335.269531 823.398438 326.988281 C 824.816406 309.414062 824.105469 290.625 824.914062 274.566406 C 826.53125 244.972656 827.441406 215.277344 827.644531 185.582031 C 827.84375 155.886719 827.238281 126.191406 825.722656 96.496094 L 822.390625 37.308594 C 822.289062 35.695312 821.683594 24.179688 820.976562 19.632812 C 819.664062 11.050781 812.59375 8.726562 811.179688 8.523438 C 784.109375 4.179688 756.128906 2.160156 727.847656 1.351562 C 663.609375 -0.363281 597.550781 4.484375 535.734375 4.484375 L 253.625 13.269531 C 251.097656 13.371094 248.777344 14.28125 246.957031 15.695312 C 242.613281 17.210938 239.484375 21.453125 239.585938 26.402344 L 251.097656 265.980469 L 256.046875 324.160156 C 256.148438 324.765625 256.351562 327.59375 256.753906 330.824219 C 256.554688 331.027344 256.351562 331.230469 256.25 331.429688 C 241.402344 353.855469 226.351562 375.871094 210.695312 397.386719 C 195.039062 418.898438 178.878906 440.011719 161.808594 460.714844 L 138.578125 490.007812 C 138.074219 490.714844 135.546875 493.644531 133.527344 496.167969 C 129.488281 498.1875 126.960938 502.429688 127.367188 507.175781 L 132.214844 543.035156 C 132.515625 545.054688 132.71875 550.40625 133.527344 553.738281 C 134.335938 556.972656 135.75 559.394531 137.0625 560.910156 C 138.375 562.324219 140.496094 563.839844 143.425781 564.851562 C 146.253906 565.859375 150.800781 566.363281 152.414062 566.667969 L 180.496094 570.101562 L 293.824219 572.222656 L 732.597656 574.242188 C 733.503906 574.242188 734.3125 574.140625 735.121094 573.941406 L 862.691406 573.335938 C 872.792969 573.132812 885.824219 575.050781 897.640625 574.949219 C 904.003906 574.949219 910.164062 574.34375 915.417969 572.828125 C 917.132812 572.324219 922.691406 570 923.800781 562.828125 C 924.304688 559.800781 924.40625 552.125 924.40625 551.214844 Z M 536.039062 26.703125 C 588.964844 26.703125 645.023438 23.066406 700.375 23.167969 C 734.011719 23.269531 767.441406 24.683594 799.664062 29.230469 L 800.472656 39.230469 L 803.703125 97.609375 C 805.117188 126.796875 805.722656 156.089844 805.523438 185.480469 C 805.320312 214.773438 804.410156 244.164062 802.894531 273.355469 C 801.988281 289.210938 802.796875 307.898438 801.382812 325.269531 C 800.976562 330.117188 800.371094 334.964844 799.5625 339.511719 C 793.199219 340.21875 780.777344 341.632812 778.957031 341.734375 L 680.074219 341.9375 L 450.183594 330.320312 C 409.074219 329.511719 365.84375 333.148438 323.722656 332.644531 C 308.671875 332.441406 293.824219 331.835938 279.28125 330.21875 L 278.269531 321.433594 L 273.421875 264.667969 L 262.308594 35.085938 Z M 179.082031 474.855469 C 196.351562 453.746094 212.816406 432.332031 228.777344 410.417969 C 242.816406 391.125 256.351562 371.429688 269.683594 351.429688 C 287.257812 353.753906 305.339844 354.761719 323.519531 354.964844 C 365.640625 355.371094 408.769531 351.835938 449.777344 352.542969 L 679.667969 363.953125 L 780.875 363.652344 C 782.898438 363.449219 792.492188 362.945312 800.574219 361.832031 L 866.632812 463.644531 L 889.15625 497.378906 L 889.257812 497.582031 C 804.109375 497.078125 718.960938 499.300781 633.8125 500.613281 L 624.722656 462.230469 C 660.476562 462.835938 696.132812 463.542969 731.890625 463.746094 C 758.859375 463.949219 785.726562 463.746094 812.695312 463.140625 C 813.90625 463.542969 815.21875 463.542969 816.429688 463.039062 C 816.632812 463.039062 816.835938 463.039062 817.035156 463.039062 C 819.867188 462.9375 822.1875 460.613281 822.085938 457.6875 C 821.988281 455.058594 819.964844 452.9375 817.339844 452.738281 C 810.574219 441.222656 804.511719 429.910156 799.058594 418.394531 C 793.605469 406.882812 788.65625 394.960938 783.804688 382.640625 C 784.109375 382.035156 784.210938 381.328125 784.210938 380.621094 C 784.109375 377.792969 781.785156 375.46875 778.855469 375.570312 C 751.785156 376.277344 724.71875 375.972656 697.648438 375.265625 C 656.941406 374.15625 616.136719 372.035156 575.53125 370.722656 L 559.875 370.214844 C 559.066406 369.410156 558.15625 368.800781 556.945312 368.601562 C 555.328125 368.398438 553.914062 369.003906 552.804688 369.914062 L 528.5625 369.207031 C 527.957031 368.703125 527.25 368.195312 526.441406 367.996094 C 524.824219 367.589844 523.3125 368.09375 522.097656 369.003906 L 379.679688 364.558594 C 379.476562 364.460938 379.375 364.359375 379.277344 364.257812 C 377.863281 363.652344 376.347656 363.753906 375.132812 364.359375 L 352.105469 363.652344 C 351.601562 363.550781 350.992188 363.550781 350.488281 363.652344 L 291.804688 361.832031 C 291.398438 361.832031 290.996094 361.933594 290.492188 362.035156 C 288.472656 361.832031 286.449219 362.84375 285.339844 364.660156 C 273.625 386.074219 258.773438 405.667969 246.046875 426.476562 C 242.816406 431.726562 239.785156 437.082031 236.855469 442.535156 C 234.835938 443.039062 233.21875 444.757812 232.917969 446.980469 C 232.613281 449.808594 234.636719 452.433594 237.464844 452.738281 C 277.058594 457.484375 316.550781 459.707031 356.042969 460.714844 C 389.679688 461.625 423.316406 461.523438 457.050781 461.421875 L 439.578125 500.308594 C 432.707031 500.105469 425.738281 500.007812 418.871094 499.703125 L 209.382812 499.300781 L 161.203125 497.277344 Z M 265.84375 416.878906 L 275.441406 401.125 C 280.59375 401.832031 285.84375 402.335938 291.097656 402.640625 C 291.5 402.640625 291.804688 402.640625 292.207031 402.640625 C 289.785156 406.273438 287.359375 410.011719 285.035156 413.648438 C 284.027344 415.164062 283.21875 416.777344 282.207031 418.292969 C 276.652344 417.890625 271.300781 417.386719 265.84375 416.878906 Z M 276.148438 428.292969 C 272.816406 433.949219 269.683594 439.605469 266.652344 445.363281 C 260.996094 444.859375 255.238281 444.152344 249.582031 443.546875 L 259.886719 426.675781 C 265.238281 427.285156 270.695312 427.789062 276.148438 428.292969 Z M 298.773438 392.4375 C 296.347656 392.335938 294.027344 392.335938 291.601562 392.234375 C 288.167969 392.035156 284.734375 391.730469 281.300781 391.328125 L 292.914062 372.238281 L 311.398438 372.84375 C 307.257812 379.40625 303.015625 385.972656 298.773438 392.4375 Z M 323.621094 373.246094 L 342.507812 373.851562 C 338.972656 380.417969 335.339844 386.882812 331.601562 393.347656 C 330.792969 393.347656 329.984375 393.347656 329.175781 393.246094 C 323.117188 392.941406 316.953125 392.941406 310.894531 392.839844 C 315.136719 386.277344 319.480469 379.8125 323.621094 373.246094 Z M 287.765625 429.101562 C 295.441406 429.605469 303.117188 430.113281 310.894531 430.515625 C 307.964844 436.273438 305.238281 442.132812 302.914062 448.089844 C 294.632812 447.585938 286.351562 446.980469 278.066406 446.273438 C 281.097656 440.515625 284.328125 434.757812 287.765625 429.101562 Z M 293.824219 419.203125 C 297.257812 413.75 300.792969 408.394531 304.328125 403.042969 C 311.398438 403.246094 318.570312 403.347656 325.742188 403.546875 C 322.511719 409.101562 319.277344 414.757812 316.246094 420.414062 C 308.671875 420.113281 301.199219 419.605469 293.824219 419.203125 Z M 322.207031 431.019531 C 328.570312 431.222656 335.035156 431.527344 341.398438 431.625 C 342.410156 431.625 343.519531 431.625 344.53125 431.625 L 336.753906 449.605469 C 329.175781 449.300781 321.5 449 313.925781 448.59375 C 316.347656 442.738281 319.175781 436.878906 322.207031 431.019531 Z M 341.601562 421.324219 C 336.953125 421.222656 332.308594 421.019531 327.761719 420.921875 C 330.894531 415.265625 334.125 409.609375 337.460938 403.953125 C 343.722656 404.152344 350.085938 404.355469 356.347656 404.558594 L 348.972656 421.425781 C 346.550781 421.324219 344.125 421.324219 341.601562 421.324219 Z M 343.316406 393.75 C 347.054688 387.285156 350.691406 380.820312 354.023438 374.257812 L 369.175781 374.761719 L 360.691406 394.355469 C 354.933594 394.15625 349.175781 393.851562 343.316406 393.75 Z M 355.742188 431.828125 C 362.8125 431.929688 369.78125 432.03125 376.851562 432.03125 L 370.386719 450.617188 C 365.742188 450.515625 361.09375 450.515625 356.347656 450.414062 C 353.519531 450.3125 350.589844 450.210938 347.761719 450.109375 Z M 360.285156 421.425781 L 367.558594 404.660156 C 373.820312 404.761719 379.984375 404.859375 386.246094 404.859375 L 380.386719 421.628906 C 373.71875 421.628906 366.953125 421.527344 360.285156 421.425781 Z M 372.003906 394.355469 L 380.386719 374.964844 L 396.347656 375.46875 L 389.78125 394.457031 C 383.921875 394.558594 377.960938 394.457031 372.003906 394.355469 Z M 388.265625 432.132812 C 394.425781 432.132812 400.488281 432.03125 406.648438 432.03125 C 404.324219 438.394531 402.101562 444.757812 400.082031 451.121094 C 394.023438 451.121094 388.0625 450.917969 382.003906 450.816406 Z M 391.800781 421.726562 L 397.457031 404.960938 C 404.023438 404.960938 410.488281 404.859375 417.050781 404.859375 C 414.828125 410.417969 412.707031 415.972656 410.585938 421.628906 C 404.324219 421.628906 398.0625 421.726562 391.800781 421.726562 Z M 400.992188 394.558594 L 407.355469 375.871094 L 427.960938 376.480469 C 425.738281 382.4375 423.414062 388.5 421.09375 394.457031 C 414.425781 394.457031 407.660156 394.558594 400.992188 394.558594 Z M 418.363281 431.929688 C 425.03125 431.828125 431.699219 431.828125 438.363281 431.726562 C 436.445312 438.191406 434.628906 444.65625 433.011719 451.121094 C 425.738281 451.121094 418.464844 451.121094 411.195312 451.121094 Z M 422.304688 421.425781 L 428.566406 404.761719 C 434.628906 404.660156 440.789062 404.660156 446.847656 404.660156 C 445.132812 409.910156 443.414062 415.265625 441.796875 420.515625 C 441.699219 420.71875 441.699219 421.019531 441.597656 421.222656 C 435.132812 421.324219 428.667969 421.425781 422.304688 421.425781 Z M 546.238281 405.265625 L 543.914062 420.820312 L 536.746094 420.921875 C 530.683594 420.820312 524.625 420.921875 518.664062 420.921875 L 522.703125 404.859375 Z M 525.230469 394.457031 L 528.96875 379.609375 L 550.078125 380.316406 L 547.855469 394.863281 Z M 536.542969 431.222656 L 611.691406 430.414062 C 611.894531 437.789062 612.601562 444.960938 614.214844 451.726562 C 587.449219 451.324219 560.683594 450.917969 533.917969 450.816406 C 514.925781 450.816406 495.9375 450.816406 476.949219 450.917969 C 478.867188 444.253906 480.886719 437.6875 483.007812 431.121094 C 500.785156 431.019531 518.664062 431.019531 536.542969 431.222656 Z M 581.1875 405.871094 L 578.664062 420.113281 C 578.664062 420.214844 578.664062 420.3125 578.664062 420.414062 L 554.421875 420.617188 L 556.742188 405.367188 Z M 558.359375 395.0625 L 560.582031 380.621094 L 575.328125 381.125 C 578.761719 381.226562 582.296875 381.429688 585.734375 381.527344 L 583.207031 395.570312 Z M 604.417969 406.375 L 612.902344 406.175781 C 612.398438 410.820312 611.996094 415.464844 611.792969 420.214844 L 589.066406 420.414062 L 591.589844 406.175781 Z M 593.609375 395.769531 L 596.136719 381.933594 C 602.800781 382.234375 609.46875 382.4375 616.136719 382.742188 C 615.53125 386.984375 614.824219 391.328125 614.214844 395.769531 L 604.519531 395.972656 Z M 514.625 394.253906 L 494.523438 393.851562 C 495.9375 388.800781 497.25 383.75 498.464844 378.699219 L 518.363281 379.308594 Z M 511.996094 404.558594 L 507.855469 420.820312 C 500.683594 420.820312 493.414062 420.71875 486.242188 420.820312 C 487.957031 415.265625 489.777344 409.710938 491.394531 404.253906 Z M 483.515625 393.851562 C 476.039062 393.953125 468.566406 394.054688 461.089844 394.15625 C 462.910156 388.699219 464.625 383.246094 466.34375 377.792969 L 487.757812 378.5 C 486.445312 383.550781 485.03125 388.699219 483.515625 393.851562 Z M 480.28125 404.253906 C 478.566406 409.808594 476.746094 415.363281 474.929688 420.921875 C 467.453125 421.019531 459.980469 421.121094 452.402344 421.222656 C 454.121094 415.667969 455.941406 410.113281 457.757812 404.558594 C 465.230469 404.457031 472.808594 404.355469 480.28125 404.253906 Z M 450.082031 394.253906 C 444.121094 394.355469 438.261719 394.355469 432.304688 394.457031 L 438.871094 376.882812 L 455.535156 377.386719 C 453.71875 382.941406 452 388.597656 450.082031 394.253906 Z M 449.273438 431.625 C 456.746094 431.527344 464.121094 431.425781 471.496094 431.425781 C 469.375 437.988281 467.351562 444.554688 465.433594 451.121094 C 458.261719 451.121094 450.988281 451.222656 443.820312 451.222656 C 445.535156 444.554688 447.355469 438.089844 449.273438 431.625 Z M 468.566406 461.421875 C 490.28125 461.320312 511.996094 461.222656 533.917969 461.222656 C 560.683594 461.320312 587.449219 461.726562 614.117188 462.128906 L 623.308594 500.8125 C 604.117188 501.117188 585.027344 501.421875 565.835938 501.519531 C 527.554688 501.722656 489.171875 501.621094 450.890625 500.714844 Z M 622.09375 430.414062 L 651.992188 430.113281 C 652.296875 437.585938 652.800781 445.058594 653.8125 452.433594 C 644.113281 452.230469 634.417969 452.128906 624.621094 451.929688 C 624.621094 451.625 624.621094 451.222656 624.519531 450.917969 C 623.003906 444.453125 622.195312 437.484375 622.09375 430.414062 Z M 651.789062 405.164062 C 651.691406 410.011719 651.691406 414.859375 651.789062 419.707031 L 622.296875 420.011719 C 622.5 415.265625 622.902344 410.515625 623.40625 405.871094 Z M 624.621094 395.46875 C 625.226562 391.226562 625.832031 387.085938 626.4375 383.144531 C 634.921875 383.449219 643.40625 383.75 651.992188 384.054688 C 651.992188 387.589844 651.890625 391.226562 651.890625 394.761719 Z M 681.6875 404.355469 C 681.6875 408.800781 681.6875 413.34375 681.890625 417.789062 C 681.890625 418.292969 681.992188 418.800781 681.992188 419.304688 L 662.09375 419.507812 C 661.992188 414.558594 661.992188 409.710938 662.09375 404.761719 Z M 662.195312 394.457031 C 662.296875 391.125 662.296875 387.691406 662.296875 384.355469 C 668.859375 384.558594 675.324219 384.863281 681.890625 385.0625 C 681.789062 388.09375 681.6875 391.023438 681.6875 393.953125 Z M 682.597656 429.808594 C 683.101562 437.484375 683.707031 445.261719 684.617188 452.9375 C 677.851562 452.835938 671.082031 452.738281 664.316406 452.636719 C 663.304688 445.058594 662.800781 437.585938 662.496094 430.011719 Z M 710.476562 404.761719 C 710.578125 409.609375 710.777344 414.457031 711.183594 419.304688 C 711.183594 419.40625 711.183594 419.507812 711.183594 419.605469 C 706.234375 419.40625 701.183594 419.203125 696.234375 419.203125 L 692.292969 419.203125 C 692.292969 418.597656 692.191406 417.992188 692.191406 417.386719 C 691.992188 412.941406 691.992188 408.597656 691.992188 404.152344 Z M 692.09375 393.851562 C 692.09375 391.023438 692.191406 388.195312 692.292969 385.46875 C 694.011719 385.46875 695.726562 385.570312 697.445312 385.671875 C 701.789062 385.769531 706.234375 385.769531 710.578125 385.871094 C 710.476562 388.699219 710.375 391.527344 710.375 394.457031 Z M 712.191406 430.011719 C 713 437.789062 714.011719 445.566406 715.121094 453.242188 C 708.355469 453.140625 701.6875 453.140625 694.921875 453.039062 C 694.011719 445.261719 693.40625 437.484375 692.898438 429.605469 L 696.132812 429.605469 C 701.484375 429.605469 706.839844 429.808594 712.191406 430.011719 Z M 721.988281 420.214844 C 721.890625 419.605469 721.890625 419.101562 721.789062 418.496094 C 721.382812 414.050781 721.28125 409.609375 721.082031 405.164062 L 742.796875 405.769531 C 743.300781 411.023438 744.007812 416.375 744.714844 421.628906 C 737.140625 421.121094 729.566406 420.617188 721.988281 420.214844 Z M 746.128906 432.03125 C 747.140625 439.203125 748.050781 446.273438 748.859375 453.445312 C 743.300781 453.445312 737.644531 453.445312 732.089844 453.445312 C 730.171875 453.445312 728.253906 453.445312 726.332031 453.34375 C 725.121094 445.765625 724.109375 438.191406 723.203125 430.617188 C 730.777344 431.121094 738.453125 431.625 746.128906 432.03125 Z M 720.878906 394.761719 C 720.878906 391.832031 720.878906 389.003906 720.980469 386.074219 C 727.949219 386.175781 734.816406 386.277344 741.789062 386.378906 C 741.789062 389.40625 741.886719 392.4375 741.988281 395.46875 Z M 765.121094 422.636719 C 761.785156 422.535156 758.554688 422.335938 755.222656 422.132812 C 754.515625 416.78125 753.808594 411.425781 753.300781 406.074219 L 782.492188 406.980469 C 784.816406 412.335938 787.039062 417.585938 789.5625 422.738281 C 781.484375 422.941406 773.300781 422.941406 765.121094 422.636719 Z M 794.714844 432.941406 C 798.046875 439.605469 801.683594 446.273438 805.421875 452.9375 C 790.066406 453.242188 774.613281 453.445312 759.261719 453.445312 C 758.554688 446.472656 757.644531 439.605469 756.636719 432.636719 C 759.363281 432.738281 761.988281 432.941406 764.714844 433.039062 C 774.816406 433.445312 784.816406 433.445312 794.714844 432.941406 Z M 752.492188 395.667969 C 752.292969 392.539062 752.191406 389.40625 752.191406 386.175781 C 759.464844 386.175781 766.734375 386.074219 774.007812 385.972656 C 775.320312 389.507812 776.734375 392.941406 778.148438 396.375 Z M 902.183594 551.519531 L 862.289062 551.214844 L 732.394531 551.820312 C 731.6875 551.820312 730.878906 551.921875 730.171875 552.023438 L 294.226562 550.003906 L 182.210938 547.984375 L 156.859375 544.851562 L 154.839844 544.546875 L 154.234375 539.5 L 151.507812 519.195312 C 153.628906 519.296875 155.34375 519.398438 156.253906 519.398438 L 208.878906 521.621094 L 418.164062 522.023438 C 467.453125 523.742188 516.644531 524.042969 565.933594 523.742188 C 677.953125 523.035156 789.96875 518.996094 901.984375 520.003906 L 902.183594 550.40625 Z M 902.183594 551.519531 " fill-opacity="1" fill-rule="evenodd"/></g><path fill="#000000" d="M 282.308594 119.527344 C 282.613281 159.320312 282.207031 199.015625 282.816406 238.8125 C 283.21875 265.375 284.128906 291.9375 286.148438 318.503906 C 286.351562 321.332031 288.875 323.554688 291.703125 323.351562 C 292.308594 323.351562 292.914062 323.148438 293.421875 322.945312 C 322.207031 325.472656 351.296875 326.179688 380.386719 326.078125 C 424.628906 325.875 468.96875 323.957031 512.804688 323.554688 C 558.964844 323.148438 605.125 325.066406 651.285156 325.269531 C 671.183594 325.371094 691.082031 325.066406 710.878906 324.261719 L 760.574219 322.140625 C 763.300781 322.039062 770.472656 322.847656 775.21875 322.339844 C 777.644531 322.140625 779.664062 321.433594 780.875 320.625 C 781.28125 320.320312 783.703125 318.199219 783.199219 314.261719 C 782.796875 311.230469 781.28125 303.65625 781.28125 302.644531 L 781.785156 257.496094 L 781.785156 117.101562 L 782.996094 78.820312 C 783.097656 76.09375 784.410156 70.335938 784.3125 66.398438 C 784.3125 64.378906 784.007812 62.660156 783.402344 61.449219 C 783.097656 60.84375 781.382812 58.21875 777.441406 58.117188 C 774.210938 58.015625 765.828125 58.621094 765.320312 58.621094 L 721.28125 58.925781 L 534.722656 58.722656 L 358.871094 56.296875 C 343.316406 56.296875 324.730469 54.175781 307.460938 54.480469 C 299.480469 54.683594 291.703125 55.289062 284.632812 56.90625 C 284.429688 56.90625 280.390625 58.824219 280.59375 63.570312 C 280.695312 66.902344 281.199219 75.285156 281.300781 76.09375 Z M 307.761719 64.882812 C 324.933594 64.582031 343.417969 66.601562 358.972656 66.703125 L 534.925781 69.125 L 721.484375 69.226562 L 765.726562 68.921875 L 773.707031 68.519531 L 772.695312 78.214844 L 771.484375 116.898438 L 771.484375 257.597656 L 770.976562 303.152344 C 770.976562 303.757812 771.785156 308.300781 772.390625 311.636719 L 760.371094 311.535156 L 710.578125 313.65625 C 690.878906 314.5625 671.183594 314.765625 651.488281 314.664062 C 605.226562 314.460938 559.066406 312.542969 512.804688 312.949219 C 468.96875 313.351562 424.628906 315.269531 380.488281 315.472656 C 352.308594 315.574219 324.226562 314.867188 296.347656 312.542969 C 294.632812 287.796875 293.824219 263.152344 293.421875 238.507812 C 292.8125 198.8125 293.21875 159.121094 292.914062 119.324219 L 291.804688 75.691406 C 291.804688 74.984375 291.5 70.035156 291.300781 66.195312 C 296.347656 65.386719 302.007812 64.984375 307.761719 64.882812 Z M 307.761719 64.882812 " fill-opacity="1" fill-rule="evenodd"/></svg>