<svg xmlns="http://www.w3.org/2000/svg" xmlns:xlink="http://www.w3.org/1999/xlink" width="1366" zoomAndPan="magnify" viewBox="0 0 1024.5 576" height="768" preserveAspectRatio="xMidYMid meet" version="1.0"><path fill="#92278f" d="M 555.585938 191.796875 C 538.78125 238.441406 578.085938 258.644531 603.972656 221.492188 C 616.847656 202.914062 607.226562 199.929688 606.007812 192.339844 C 613.324219 186.101562 608.71875 196 616.035156 182.167969 C 622.542969 185.289062 619.425781 187.320312 632.976562 174.847656 C 676.347656 134.441406 643.957031 139.1875 666.996094 127.253906 C 682.449219 119.390625 679.058594 116.542969 683.261719 109.761719 C 683.53125 109.492188 683.9375 109.21875 684.210938 108.949219 C 684.210938 108.675781 684.75 108 684.75 107.863281 C 696.273438 93.492188 698.847656 44.542969 688.683594 36.136719 C 682.988281 31.660156 672.148438 36.136719 665.914062 38.167969 C 653.578125 42.371094 651.546875 54.441406 643.144531 62.574219 C 640.566406 65.152344 639.484375 63.660156 637.722656 73.289062 C 636.90625 77.761719 635.144531 83.1875 635.011719 85.898438 C 634.0625 91.863281 635.824219 95.523438 635.011719 101.085938 C 633.382812 105.421875 632.4375 103.117188 628.777344 104.878906 C 611.292969 113.558594 607.363281 123.1875 600.042969 147.863281 C 589.472656 182.710938 593.128906 156.542969 564.125 178.777344 C 559.789062 182.035156 561.007812 177.152344 555.585938 191.796875 Z M 555.585938 191.796875 " fill-opacity="1" fill-rule="evenodd"/><path fill="#0c98bc" d="M 652.359375 250.507812 C 638.804688 241.558594 646.125 242.644531 641.652344 236.269531 C 634.875 239.390625 637.992188 239.523438 631.488281 244.40625 C 633.789062 232.203125 638.804688 236.269531 640.027344 229.761719 C 635.6875 233.421875 608.039062 235.457031 618.882812 270.847656 C 623.355469 285.085938 620.507812 282.371094 627.828125 292.542969 C 632.300781 298.777344 628.910156 295.253906 630.671875 302.441406 L 638.535156 303.796875 C 646.125 305.558594 649.511719 304.066406 657.375 294.574219 C 673.910156 274.101562 665.914062 278.847656 664.152344 266.777344 C 672.148438 268.269531 661.980469 265.964844 668.621094 268.8125 C 678.789062 273.015625 680.957031 265.558594 692.882812 258.914062 C 702.777344 253.21875 707.519531 244.675781 714.570312 235.050781 C 722.023438 224.339844 718.226562 226.914062 715.109375 214.441406 C 720.261719 215.523438 720.804688 217.015625 724.054688 219.320312 C 753.738281 203.863281 732.054688 215.390625 751.296875 201.828125 C 762.277344 193.964844 773.796875 190.574219 768.242188 176.472656 C 764.308594 166.304688 767.96875 162.101562 760.652344 151.390625 C 756.71875 145.695312 758.480469 148.136719 754.28125 146.101562 C 741.945312 140.8125 749.402344 141.355469 742.488281 135.929688 C 736.253906 131.1875 732.59375 136.878906 725.546875 137.695312 C 724.054688 135.660156 727.714844 134.847656 721.34375 133.761719 C 699.390625 177.695312 699.117188 155.457031 700.609375 183.253906 C 683.394531 179.59375 680.820312 195.863281 671.605469 196.40625 L 668.757812 196.40625 L 668.214844 196.675781 C 667.269531 197.21875 667.132812 197.625 667.132812 198.847656 C 666.183594 209.558594 675.535156 194.101562 661.441406 216.339844 L 654.933594 226.507812 C 654.664062 226.777344 654.121094 227.050781 654.121094 227.320312 C 649.917969 232.746094 651.273438 231.796875 651.953125 235.457031 C 666.046875 225.015625 658.324219 226.238281 665.097656 220.542969 C 677.433594 232.878906 656.152344 237.085938 664.828125 249.828125 L 657.375 246.441406 C 657.101562 246.167969 656.832031 245.898438 656.289062 245.625 C 653.984375 249.964844 656.019531 248.066406 652.359375 250.507812 Z M 652.359375 250.507812 " fill-opacity="1" fill-rule="evenodd"/><path fill="#00a652" d="M 743.574219 337.015625 C 734.898438 363.050781 727.039062 358.304688 705.351562 367.660156 C 696.679688 371.320312 697.898438 372.949219 691.664062 376.339844 C 681.5 381.625 665.234375 378.507812 652.359375 383.660156 C 653.984375 400.203125 655.070312 394.644531 661.304688 403.050781 C 655.613281 408.472656 644.363281 417.964844 646.9375 426.644531 C 652.089844 423.390625 650.867188 422.710938 652.628906 418.238281 L 662.523438 419.726562 C 662.796875 415.929688 663.472656 412.8125 666.453125 409.558594 C 669.570312 406.441406 677.976562 405.625 684.75 402.777344 C 686.242188 396.542969 685.699219 396.269531 688.953125 392.339844 C 700.066406 396.269531 692.613281 403.863281 712.941406 397.085938 C 724.597656 393.421875 731.238281 393.695312 736.527344 384.203125 C 749.941406 386.777344 756.71875 392.609375 774.203125 385.828125 C 784.640625 381.625 799.820312 368.339844 800.089844 358.304688 C 800.363281 354.101562 799.277344 356.675781 799.007812 349.625 C 798.734375 343.253906 804.96875 322.101562 789.113281 319.253906 C 770.273438 316 768.375 318.167969 754.28125 325.492188 C 744.792969 330.101562 746.554688 328.472656 743.574219 337.015625 Z M 743.574219 337.015625 " fill-opacity="1" fill-rule="evenodd"/><path fill="#ff99cc" d="M 307.832031 271.117188 C 318.269531 259.320312 325.859375 243.863281 322.46875 226.507812 C 320.84375 217.964844 323.960938 209.289062 320.980469 203.457031 C 319.894531 200.746094 316.777344 198.167969 314.746094 193.558594 C 304.308594 172.40625 307.96875 180.136719 291.976562 166.847656 L 269.203125 151.390625 C 267.578125 150.847656 268.121094 151.117188 265.953125 150.304688 C 255.785156 147.1875 261.75 147.726562 254.972656 145.015625 C 237.21875 137.695312 225.699219 157.898438 222.308594 169.421875 C 219.058594 180.40625 221.496094 184.746094 225.15625 195.050781 C 229.359375 207.117188 225.699219 210.238281 233.558594 221.492188 C 241.148438 232.472656 244.539062 231.390625 249.550781 237.492188 C 258.226562 247.660156 253.484375 253.21875 258.089844 259.320312 C 259.175781 261.085938 260.53125 261.898438 261.75 262.710938 L 266.222656 266.644531 C 277.335938 277.355469 265.410156 270.574219 280.589844 279.390625 C 282.757812 280.472656 281.675781 279.929688 283.4375 281.421875 C 283.707031 281.421875 285.875 283.59375 288.179688 285.085938 C 291.839844 287.253906 289.671875 286.167969 294.007812 287.796875 L 301.054688 279.390625 L 301.597656 278.441406 L 303.765625 275.726562 C 305.664062 273.695312 305.933594 273.152344 307.832031 271.117188 Z M 307.832031 271.117188 " fill-opacity="1" fill-rule="evenodd"/><path fill="#ff4221" d="M 449.601562 207.929688 C 456.105469 217.964844 468.167969 219.726562 485.789062 213.21875 C 493.921875 204 501.78125 200.878906 510.046875 189.898438 C 522.246094 172.949219 516.554688 174.035156 513.707031 151.929688 C 511.675781 137.828125 529.160156 118.710938 535.121094 105.558594 C 540.679688 93.21875 536.476562 95.929688 537.019531 87.523438 C 544.609375 81.289062 547.726562 80.203125 552.878906 71.117188 C 558.570312 61.625 560.738281 48.878906 560.195312 37.898438 C 560.195312 37.355469 560.46875 35.320312 560.46875 34.777344 C 559.925781 28.949219 556.535156 27.863281 553.011719 23.253906 L 547.457031 14.847656 C 541.761719 5.898438 546.507812 12.40625 538.78125 6.441406 C 533.089844 8.609375 538.238281 6.710938 532.546875 10.371094 L 512.488281 25.289062 C 508.558594 23.796875 506.660156 21.492188 503.8125 24.066406 C 498.527344 28.949219 504.085938 34.777344 505.304688 38.167969 C 507.335938 45.625 506.796875 39.796875 505.304688 43.1875 C 502.1875 49.695312 501.644531 45.21875 499.339844 44.675781 L 496.359375 51.457031 C 497.171875 51.457031 499.070312 49.964844 499.339844 49.964844 C 503.679688 48.878906 504.21875 49.964844 506.390625 52.8125 C 506.117188 52.8125 505.441406 52.542969 505.441406 52.8125 C 504.628906 57.558594 503.273438 46.035156 497.578125 59.050781 L 508.558594 61.085938 C 505.441406 70.574219 508.015625 67.320312 502.730469 68 C 500.019531 68.269531 499.613281 68 498.257812 68 C 491.34375 68.269531 488.363281 68.949219 487.144531 79.117188 L 491.074219 78.441406 C 491.34375 78.167969 492.023438 78.441406 492.023438 78.441406 C 492.292969 78.441406 492.835938 78.167969 493.105469 78.441406 C 488.632812 88.609375 482.671875 97.015625 480.773438 109.761719 L 478.199219 132 C 460.171875 138.238281 455.699219 143.796875 451.226562 160.609375 C 447.566406 173.21875 443.367188 195.457031 449.601562 207.929688 Z M 449.601562 207.929688 " fill-opacity="1" fill-rule="evenodd"/><path fill="#ffbc49" d="M 384.949219 286.035156 C 380.207031 284.40625 366.382812 274.777344 360.148438 275.320312 C 343.070312 268.40625 347 298.101562 320.4375 279.796875 C 310 272.472656 304.984375 292.136719 297.125 298.914062 C 331.550781 353.152344 282.757812 407.253906 341.039062 497.964844 L 334.804688 498.238281 C 340.496094 504.066406 337.648438 506.101562 346.050781 506.371094 C 353.371094 506.914062 357.03125 508.542969 364.890625 509.085938 C 368.007812 514.777344 360.960938 510.035156 368.550781 514.507812 L 352.828125 515.050781 C 357.574219 518.710938 358.113281 518.167969 363.535156 520.066406 L 369.769531 523.726562 C 377.089844 531.320312 376.003906 525.761719 387.660156 528.066406 C 397.554688 529.695312 387.660156 528.066406 398.910156 526.574219 C 400.945312 534.167969 401.214844 534.984375 406.230469 540.40625 C 418.96875 537.828125 423.714844 531.320312 435.234375 535.253906 C 534.308594 570.371094 707.25 388.675781 570.226562 264.609375 C 569.683594 264.609375 568.734375 264.609375 566.835938 263.796875 C 565.210938 263.117188 563.585938 261.492188 561.6875 259.457031 C 555.316406 257.828125 550.167969 261.21875 543.660156 259.457031 C 536.207031 239.796875 510.320312 249.964844 507.746094 247.933594 C 449.601562 207.929688 385.765625 286.304688 384.949219 286.035156 Z M 384.949219 286.035156 " fill-opacity="1" fill-rule="evenodd"/></svg>