<svg xmlns="http://www.w3.org/2000/svg" xmlns:xlink="http://www.w3.org/1999/xlink" width="1366" zoomAndPan="magnify" viewBox="0 0 1024.5 576" height="768" preserveAspectRatio="xMidYMid meet" version="1.0"><defs><clipPath id="143dae1c27"><path d="M 255 0.140625 L 794.8125 0.140625 L 794.8125 575.859375 L 255 575.859375 Z M 255 0.140625 " clip-rule="nonzero"/></clipPath></defs><path fill="#000000" d="M 545.898438 362.21875 C 541.195312 362.289062 536.578125 361.707031 532.042969 360.464844 C 527.507812 359.222656 523.234375 357.375 519.222656 354.921875 C 518.957031 354.722656 518.660156 354.585938 518.332031 354.503906 C 518.007812 354.425781 517.679688 354.410156 517.351562 354.460938 C 517.019531 354.511719 516.710938 354.621094 516.425781 354.796875 C 516.140625 354.96875 515.898438 355.191406 515.703125 355.460938 C 513.53125 358.457031 506.652344 366.453125 501.417969 367.511719 C 500.835938 367.632812 500.078125 367.699219 499.742188 367.363281 C 499.347656 366.449219 499.121094 365.5 499.054688 364.507812 C 498.992188 363.519531 499.097656 362.546875 499.371094 361.589844 C 499.429688 361.324219 499.445312 361.058594 499.417969 360.785156 C 499.390625 360.515625 499.324219 360.257812 499.210938 360.007812 C 499.101562 359.757812 498.953125 359.535156 498.769531 359.335938 C 498.585938 359.132812 498.375 358.96875 498.136719 358.835938 C 497.898438 358.703125 497.648438 358.613281 497.378906 358.5625 C 497.113281 358.511719 496.84375 358.503906 496.574219 358.542969 C 496.304688 358.578125 496.046875 358.65625 495.804688 358.777344 C 495.558594 358.898438 495.339844 359.054688 495.148438 359.246094 C 493.613281 360.78125 491.84375 361.972656 489.835938 362.808594 C 487.832031 363.648438 485.746094 364.074219 483.570312 364.085938 C 488.316406 360.015625 492.417969 355.375 495.882812 350.171875 C 500.6875 342.941406 500.113281 338.527344 498.792969 336.082031 C 498.34375 335.386719 497.8125 334.769531 497.195312 334.222656 C 496.578125 333.675781 495.902344 333.21875 495.164062 332.855469 C 494.421875 332.492188 493.648438 332.234375 492.835938 332.082031 C 492.027344 331.929688 491.210938 331.890625 490.390625 331.957031 C 488.226562 332.148438 486.125 332.609375 484.082031 333.339844 C 482.035156 334.074219 480.117188 335.050781 478.328125 336.277344 C 476.535156 337.503906 474.929688 338.9375 473.507812 340.578125 C 472.082031 342.21875 470.894531 344.011719 469.933594 345.960938 C 469.433594 346.726562 469.011719 347.53125 468.660156 348.375 C 468.3125 349.21875 468.042969 350.085938 467.855469 350.980469 C 467.664062 351.875 467.558594 352.777344 467.539062 353.691406 C 467.515625 354.605469 467.578125 355.511719 467.722656 356.414062 C 467.867188 357.316406 468.09375 358.195312 468.402344 359.054688 C 468.710938 359.914062 469.097656 360.738281 469.554688 361.527344 C 470.015625 362.316406 470.546875 363.058594 471.144531 363.75 C 471.738281 364.441406 472.394531 365.070312 473.109375 365.640625 C 467.382812 369.398438 461.3125 372.472656 454.894531 374.867188 C 453.285156 375.480469 451.457031 376.167969 451.875 378.296875 C 451.941406 378.59375 452.050781 378.867188 452.210938 379.125 C 452.367188 379.382812 452.566406 379.605469 452.800781 379.796875 C 453.035156 379.984375 453.292969 380.128906 453.578125 380.230469 C 453.863281 380.332031 454.15625 380.386719 454.457031 380.386719 C 455.058594 380.386719 455.589844 380.199219 456.058594 379.816406 L 456.703125 379.570312 C 464.371094 376.722656 471.546875 372.941406 478.238281 368.234375 C 479.558594 368.625 480.90625 368.875 482.28125 368.992188 C 483.65625 369.105469 485.027344 369.078125 486.398438 368.910156 C 487.765625 368.742188 489.101562 368.4375 490.410156 367.992188 C 491.714844 367.550781 492.960938 366.980469 494.152344 366.28125 C 494.3125 368.027344 494.984375 369.550781 496.164062 370.851562 C 496.574219 371.246094 497.023438 371.578125 497.519531 371.855469 C 498.019531 372.128906 498.542969 372.335938 499.089844 372.476562 C 499.640625 372.613281 500.203125 372.679688 500.769531 372.667969 C 501.335938 372.660156 501.894531 372.578125 502.441406 372.425781 C 508.851562 371.136719 515.453125 363.871094 518.363281 360.28125 C 522.578125 362.578125 527.011719 364.316406 531.664062 365.492188 C 536.316406 366.671875 541.042969 367.253906 545.84375 367.238281 L 545.878906 367.238281 C 546.210938 367.238281 546.535156 367.179688 546.84375 367.054688 C 547.152344 366.929688 547.425781 366.75 547.664062 366.515625 C 547.902344 366.28125 548.085938 366.007812 548.214844 365.703125 C 548.347656 365.394531 548.414062 365.074219 548.414062 364.742188 C 548.417969 364.40625 548.355469 364.085938 548.230469 363.777344 C 548.105469 363.46875 547.925781 363.191406 547.691406 362.957031 C 547.457031 362.71875 547.1875 362.535156 546.878906 362.402344 C 546.574219 362.273438 546.253906 362.207031 545.917969 362.203125 Z M 477.503906 362.515625 C 477.105469 362.296875 476.726562 362.058594 476.359375 361.792969 C 475.867188 361.398438 475.414062 360.964844 475.003906 360.484375 C 474.59375 360.007812 474.230469 359.496094 473.917969 358.949219 C 473.605469 358.402344 473.34375 357.828125 473.140625 357.234375 C 472.9375 356.636719 472.789062 356.027344 472.699219 355.402344 C 472.613281 354.777344 472.582031 354.152344 472.613281 353.523438 C 472.644531 352.890625 472.734375 352.269531 472.882812 351.660156 C 473.035156 351.046875 473.238281 350.453125 473.5 349.878906 C 473.761719 349.304688 474.078125 348.761719 474.441406 348.25 C 475.195312 346.710938 476.128906 345.292969 477.246094 343.992188 C 478.359375 342.691406 479.617188 341.546875 481.019531 340.566406 C 482.421875 339.582031 483.925781 338.789062 485.527344 338.1875 C 487.132812 337.585938 488.785156 337.191406 490.488281 337.007812 L 490.621094 337.007812 C 491.628906 337.007812 493.640625 337.171875 494.390625 338.515625 C 495.304688 340.183594 494.296875 343.5 491.710938 347.394531 C 487.804688 353.214844 483.066406 358.253906 477.503906 362.515625 Z M 477.503906 362.515625 " fill-opacity="1" fill-rule="nonzero"/><path fill="#000000" d="M 472.046875 272.972656 L 531.796875 272.972656 C 532.128906 272.972656 532.449219 272.910156 532.757812 272.78125 C 533.066406 272.652344 533.339844 272.472656 533.574219 272.234375 C 533.8125 272 533.992188 271.726562 534.121094 271.417969 C 534.25 271.109375 534.3125 270.789062 534.3125 270.457031 C 534.3125 270.121094 534.25 269.800781 534.121094 269.492188 C 533.992188 269.183594 533.8125 268.914062 533.574219 268.675781 C 533.339844 268.441406 533.066406 268.257812 532.757812 268.132812 C 532.449219 268.003906 532.128906 267.941406 531.796875 267.941406 L 472.046875 267.941406 C 471.710938 267.941406 471.390625 268.003906 471.082031 268.132812 C 470.773438 268.257812 470.503906 268.441406 470.265625 268.675781 C 470.03125 268.914062 469.847656 269.183594 469.722656 269.492188 C 469.59375 269.800781 469.53125 270.121094 469.53125 270.457031 C 469.53125 270.789062 469.59375 271.109375 469.722656 271.417969 C 469.847656 271.726562 470.03125 272 470.265625 272.234375 C 470.503906 272.472656 470.773438 272.652344 471.082031 272.78125 C 471.390625 272.910156 471.710938 272.972656 472.046875 272.972656 Z M 472.046875 272.972656 " fill-opacity="1" fill-rule="nonzero"/><path fill="#000000" d="M 482.761719 285.484375 C 482.429688 285.484375 482.105469 285.546875 481.796875 285.675781 C 481.488281 285.804688 481.21875 285.984375 480.980469 286.21875 C 480.746094 286.457031 480.5625 286.730469 480.4375 287.035156 C 480.308594 287.34375 480.246094 287.667969 480.246094 288 C 480.246094 288.332031 480.308594 288.65625 480.4375 288.960938 C 480.5625 289.269531 480.746094 289.542969 480.980469 289.777344 C 481.21875 290.015625 481.488281 290.195312 481.796875 290.324219 C 482.105469 290.453125 482.429688 290.515625 482.761719 290.515625 L 521.085938 290.515625 C 521.421875 290.515625 521.742188 290.453125 522.050781 290.324219 C 522.359375 290.195312 522.628906 290.015625 522.867188 289.777344 C 523.101562 289.542969 523.285156 289.269531 523.410156 288.960938 C 523.539062 288.65625 523.601562 288.332031 523.601562 288 C 523.601562 287.667969 523.539062 287.34375 523.410156 287.035156 C 523.285156 286.730469 523.101562 286.457031 522.867188 286.21875 C 522.628906 285.984375 522.359375 285.804688 522.050781 285.675781 C 521.742188 285.546875 521.421875 285.484375 521.085938 285.484375 Z M 482.761719 285.484375 " fill-opacity="1" fill-rule="nonzero"/><g clip-path="url(#143dae1c27)"><path fill="#000000" d="M 785.535156 381.011719 L 777.777344 367.761719 L 777.777344 358.703125 L 783.378906 358.703125 C 783.710938 358.703125 784.03125 358.636719 784.339844 358.511719 C 784.648438 358.382812 784.921875 358.199219 785.15625 357.964844 C 785.394531 357.730469 785.574219 357.457031 785.703125 357.148438 C 785.832031 356.839844 785.894531 356.519531 785.894531 356.183594 L 785.894531 322.828125 C 785.894531 322.058594 785.816406 321.292969 785.664062 320.535156 C 785.515625 319.777344 785.289062 319.042969 784.996094 318.328125 C 784.699219 317.617188 784.335938 316.9375 783.90625 316.296875 C 783.476562 315.65625 782.988281 315.0625 782.445312 314.515625 C 781.898438 313.96875 781.304688 313.480469 780.660156 313.050781 C 780.019531 312.621094 779.339844 312.257812 778.628906 311.964844 C 777.914062 311.667969 777.179688 311.445312 776.421875 311.292969 C 775.664062 311.140625 774.898438 311.066406 774.128906 311.0625 L 605.546875 311.0625 L 605.546875 232.089844 C 605.542969 229.742188 605.386719 227.402344 605.085938 225.074219 C 604.785156 222.746094 604.335938 220.445312 603.746094 218.171875 C 603.152344 215.898438 602.417969 213.675781 601.546875 211.496094 C 600.671875 209.316406 599.664062 207.199219 598.523438 205.144531 C 597.382812 203.09375 596.117188 201.121094 594.726562 199.230469 C 593.335938 197.335938 591.832031 195.539062 590.214844 193.835938 C 588.597656 192.132812 586.878906 190.539062 585.0625 189.054688 C 583.242188 187.570312 581.335938 186.203125 579.347656 184.960938 L 565.457031 176.355469 C 562.988281 174.8125 560.71875 173.019531 558.644531 170.984375 C 556.566406 168.945312 554.734375 166.707031 553.148438 164.269531 C 551.5625 161.832031 550.253906 159.25 549.230469 156.53125 C 548.207031 153.808594 547.488281 151.003906 547.074219 148.125 L 551.164062 148.125 C 551.496094 148.125 551.816406 148.0625 552.125 147.933594 C 552.433594 147.808594 552.707031 147.625 552.941406 147.390625 C 553.179688 147.152344 553.359375 146.882812 553.488281 146.574219 C 553.617188 146.265625 553.679688 145.945312 553.679688 145.609375 L 553.679688 76.886719 C 553.679688 76.550781 553.617188 76.230469 553.488281 75.921875 C 553.359375 75.613281 553.179688 75.34375 552.941406 75.105469 C 552.707031 74.871094 552.433594 74.6875 552.125 74.5625 C 551.816406 74.433594 551.496094 74.371094 551.164062 74.371094 L 542.8125 74.371094 L 542.8125 63.296875 C 542.808594 62.25 542.714844 61.210938 542.527344 60.179688 C 542.339844 59.144531 542.0625 58.140625 541.695312 57.15625 C 541.328125 56.175781 540.878906 55.230469 540.34375 54.328125 C 539.808594 53.425781 539.199219 52.578125 538.515625 51.785156 C 537.828125 50.992188 537.082031 50.261719 536.265625 49.601562 C 535.453125 48.941406 534.585938 48.359375 533.667969 47.851562 C 532.75 47.34375 531.792969 46.921875 530.800781 46.585938 C 529.808594 46.25 528.792969 46.003906 527.753906 45.847656 L 527.753906 28.429688 L 555.082031 28.429688 C 555.300781 28.425781 555.515625 28.398438 555.726562 28.34375 C 555.933594 28.285156 556.136719 28.203125 556.324219 28.09375 C 556.511719 27.988281 556.683594 27.855469 556.839844 27.703125 C 556.996094 27.550781 557.128906 27.378906 557.238281 27.191406 C 557.347656 27.003906 557.433594 26.808594 557.492188 26.597656 C 557.554688 26.386719 557.585938 26.175781 557.589844 25.957031 C 557.59375 25.738281 557.566406 25.523438 557.515625 25.3125 C 557.464844 25.101562 557.386719 24.902344 557.28125 24.710938 L 544.601562 1.46875 C 544.378906 1.066406 544.074219 0.746094 543.679688 0.511719 C 543.28125 0.273438 542.855469 0.15625 542.394531 0.15625 L 478.609375 0.15625 C 478.277344 0.15625 477.953125 0.21875 477.644531 0.347656 C 477.339844 0.476562 477.066406 0.65625 476.828125 0.894531 C 476.59375 1.128906 476.414062 1.402344 476.285156 1.707031 C 476.15625 2.015625 476.09375 2.339844 476.09375 2.671875 L 476.09375 45.851562 C 475.054688 46.007812 474.039062 46.253906 473.046875 46.589844 C 472.054688 46.925781 471.097656 47.347656 470.179688 47.855469 C 469.261719 48.363281 468.394531 48.945312 467.578125 49.605469 C 466.765625 50.265625 466.015625 50.996094 465.328125 51.789062 C 464.644531 52.582031 464.035156 53.429688 463.5 54.332031 C 462.964844 55.234375 462.515625 56.179688 462.148438 57.160156 C 461.78125 58.144531 461.503906 59.152344 461.316406 60.183594 C 461.128906 61.214844 461.03125 62.253906 461.03125 63.304688 L 461.03125 74.375 L 452.675781 74.375 C 452.339844 74.375 452.019531 74.4375 451.710938 74.566406 C 451.402344 74.695312 451.132812 74.875 450.894531 75.113281 C 450.660156 75.347656 450.476562 75.621094 450.351562 75.929688 C 450.222656 76.238281 450.160156 76.558594 450.160156 76.890625 L 450.160156 145.609375 C 450.160156 145.945312 450.222656 146.265625 450.351562 146.574219 C 450.476562 146.882812 450.660156 147.152344 450.894531 147.390625 C 451.132812 147.625 451.402344 147.808594 451.710938 147.933594 C 452.019531 148.0625 452.339844 148.125 452.675781 148.125 L 456.773438 148.125 C 456.359375 151.003906 455.640625 153.804688 454.613281 156.527344 C 453.589844 159.25 452.285156 161.832031 450.695312 164.269531 C 449.109375 166.707031 447.277344 168.941406 445.203125 170.980469 C 443.128906 173.019531 440.859375 174.8125 438.390625 176.355469 L 425.714844 184.203125 L 428.199219 159.714844 C 428.203125 159.675781 428.203125 159.632812 428.199219 159.589844 C 428.210938 159.550781 428.21875 159.507812 428.226562 159.464844 L 428.226562 129.21875 C 428.226562 128.886719 428.160156 128.566406 428.035156 128.257812 C 427.90625 127.949219 427.722656 127.675781 427.488281 127.441406 C 427.253906 127.203125 426.980469 127.023438 426.671875 126.894531 C 426.363281 126.765625 426.042969 126.703125 425.710938 126.703125 L 258.046875 126.703125 C 257.710938 126.703125 257.390625 126.765625 257.082031 126.894531 C 256.773438 127.023438 256.5 127.203125 256.265625 127.441406 C 256.03125 127.675781 255.847656 127.949219 255.71875 128.257812 C 255.59375 128.566406 255.527344 128.886719 255.527344 129.21875 L 255.527344 159.464844 C 255.535156 159.507812 255.546875 159.550781 255.558594 159.589844 C 255.558594 159.632812 255.558594 159.675781 255.558594 159.714844 L 289.144531 490.667969 L 289.144531 490.75 L 295.574219 573.539062 C 295.601562 573.855469 295.679688 574.15625 295.820312 574.441406 C 295.957031 574.726562 296.144531 574.976562 296.378906 575.191406 C 296.613281 575.410156 296.875 575.574219 297.171875 575.6875 C 297.46875 575.804688 297.773438 575.859375 298.089844 575.859375 L 385.664062 575.859375 C 385.980469 575.859375 386.285156 575.804688 386.582031 575.6875 C 386.878906 575.574219 387.144531 575.410156 387.375 575.191406 C 387.609375 574.976562 387.796875 574.726562 387.933594 574.441406 C 388.074219 574.15625 388.15625 573.855469 388.179688 573.539062 L 394.617188 490.703125 L 394.617188 490.667969 L 398.296875 454.433594 L 398.296875 522.214844 C 398.296875 523.96875 398.386719 525.722656 398.558594 527.46875 C 398.734375 529.21875 398.992188 530.953125 399.335938 532.675781 C 399.679688 534.398438 400.109375 536.097656 400.617188 537.777344 C 401.128906 539.460938 401.722656 541.109375 402.394531 542.734375 C 403.070312 544.355469 403.820312 545.941406 404.648438 547.488281 C 405.476562 549.039062 406.378906 550.542969 407.355469 552.003906 C 408.332031 553.464844 409.378906 554.871094 410.492188 556.230469 C 411.605469 557.585938 412.785156 558.886719 414.027344 560.128906 C 415.269531 561.371094 416.570312 562.550781 417.925781 563.664062 C 419.285156 564.777344 420.691406 565.824219 422.152344 566.800781 C 423.613281 567.777344 425.117188 568.679688 426.667969 569.507812 C 428.214844 570.335938 429.800781 571.085938 431.425781 571.757812 C 433.046875 572.433594 434.699219 573.023438 436.378906 573.535156 C 438.058594 574.046875 439.761719 574.472656 441.484375 574.820312 C 443.207031 575.164062 444.941406 575.421875 446.6875 575.59375 C 448.4375 575.769531 450.1875 575.855469 451.945312 575.859375 L 551.898438 575.859375 C 558.789062 575.851562 565.4375 574.5625 571.832031 571.996094 L 578.773438 575.582031 C 579.136719 575.765625 579.523438 575.859375 579.929688 575.859375 L 769.015625 575.859375 C 769.421875 575.859375 769.804688 575.765625 770.167969 575.582031 L 784.058594 568.4375 C 784.800781 568.105469 785.519531 567.722656 786.210938 567.285156 C 786.898438 566.851562 787.554688 566.367188 788.171875 565.839844 C 788.792969 565.308594 789.371094 564.738281 789.910156 564.125 C 790.449219 563.511719 790.9375 562.863281 791.382812 562.179688 C 791.828125 561.496094 792.21875 560.78125 792.5625 560.042969 C 792.902344 559.300781 793.191406 558.539062 793.421875 557.757812 C 793.652344 556.976562 793.828125 556.183594 793.945312 555.375 C 794.0625 554.566406 794.121094 553.757812 794.121094 552.941406 L 785.867188 382.136719 C 785.84375 381.738281 785.734375 381.363281 785.535156 381.011719 Z M 774.121094 316.089844 C 774.5625 316.09375 775 316.136719 775.433594 316.222656 C 775.867188 316.308594 776.289062 316.4375 776.695312 316.609375 C 777.105469 316.777344 777.492188 316.984375 777.859375 317.230469 C 778.226562 317.476562 778.566406 317.753906 778.878906 318.066406 C 779.191406 318.378906 779.472656 318.71875 779.71875 319.085938 C 779.960938 319.453125 780.171875 319.84375 780.339844 320.25 C 780.507812 320.660156 780.636719 321.078125 780.722656 321.511719 C 780.8125 321.945312 780.855469 322.382812 780.855469 322.824219 L 780.855469 353.664062 L 758.65625 353.664062 L 758.65625 331.519531 C 758.65625 331.1875 758.59375 330.867188 758.464844 330.558594 C 758.335938 330.25 758.15625 329.976562 757.917969 329.742188 C 757.683594 329.503906 757.410156 329.324219 757.101562 329.195312 C 756.792969 329.070312 756.472656 329.003906 756.140625 329.003906 C 755.804688 329.003906 755.484375 329.070312 755.175781 329.195312 C 754.867188 329.324219 754.597656 329.503906 754.359375 329.742188 C 754.125 329.976562 753.941406 330.25 753.816406 330.558594 C 753.6875 330.867188 753.625 331.1875 753.625 331.519531 L 753.625 353.664062 L 725.988281 353.664062 L 725.988281 331.519531 C 725.988281 331.1875 725.925781 330.867188 725.796875 330.558594 C 725.667969 330.25 725.488281 329.976562 725.25 329.742188 C 725.015625 329.503906 724.742188 329.324219 724.433594 329.195312 C 724.125 329.070312 723.804688 329.003906 723.472656 329.003906 C 723.136719 329.003906 722.816406 329.070312 722.507812 329.195312 C 722.199219 329.324219 721.929688 329.503906 721.691406 329.742188 C 721.457031 329.976562 721.273438 330.25 721.148438 330.558594 C 721.019531 330.867188 720.957031 331.1875 720.957031 331.519531 L 720.957031 353.664062 L 693.324219 353.664062 L 693.324219 331.519531 C 693.324219 331.1875 693.261719 330.867188 693.132812 330.558594 C 693.007812 330.25 692.824219 329.976562 692.589844 329.742188 C 692.351562 329.503906 692.082031 329.324219 691.773438 329.195312 C 691.464844 329.070312 691.140625 329.003906 690.808594 329.003906 C 690.476562 329.003906 690.152344 329.070312 689.847656 329.195312 C 689.539062 329.324219 689.265625 329.503906 689.03125 329.742188 C 688.792969 329.976562 688.613281 330.25 688.484375 330.558594 C 688.355469 330.867188 688.292969 331.1875 688.292969 331.519531 L 688.292969 353.664062 L 660.664062 353.664062 L 660.664062 331.519531 C 660.664062 331.1875 660.597656 330.867188 660.46875 330.558594 C 660.34375 330.25 660.160156 329.976562 659.925781 329.742188 C 659.6875 329.503906 659.417969 329.324219 659.109375 329.195312 C 658.800781 329.070312 658.480469 329.003906 658.144531 329.003906 C 657.8125 329.003906 657.492188 329.070312 657.183594 329.195312 C 656.875 329.324219 656.601562 329.503906 656.367188 329.742188 C 656.128906 329.976562 655.949219 330.25 655.820312 330.558594 C 655.691406 330.867188 655.628906 331.1875 655.628906 331.519531 L 655.628906 353.664062 L 628.003906 353.664062 L 628.003906 331.519531 C 628.003906 331.1875 627.941406 330.867188 627.8125 330.558594 C 627.683594 330.25 627.503906 329.976562 627.265625 329.742188 C 627.03125 329.503906 626.757812 329.324219 626.449219 329.195312 C 626.140625 329.070312 625.820312 329.003906 625.488281 329.003906 C 625.152344 329.003906 624.832031 329.070312 624.523438 329.195312 C 624.214844 329.324219 623.945312 329.503906 623.707031 329.742188 C 623.472656 329.976562 623.289062 330.25 623.164062 330.558594 C 623.035156 330.867188 622.972656 331.1875 622.972656 331.519531 L 622.972656 353.664062 L 595.335938 353.664062 L 595.335938 331.519531 C 595.335938 331.1875 595.273438 330.867188 595.144531 330.558594 C 595.015625 330.25 594.835938 329.976562 594.597656 329.742188 C 594.363281 329.503906 594.089844 329.324219 593.78125 329.195312 C 593.472656 329.070312 593.152344 329.003906 592.820312 329.003906 C 592.484375 329.003906 592.164062 329.070312 591.855469 329.195312 C 591.546875 329.324219 591.277344 329.503906 591.039062 329.742188 C 590.804688 329.976562 590.621094 330.25 590.496094 330.558594 C 590.367188 330.867188 590.304688 331.1875 590.304688 331.519531 L 590.304688 353.664062 L 568.097656 353.664062 L 568.097656 322.828125 C 568.097656 322.386719 568.144531 321.949219 568.230469 321.515625 C 568.316406 321.082031 568.445312 320.664062 568.617188 320.253906 C 568.785156 319.847656 568.992188 319.457031 569.238281 319.089844 C 569.484375 318.722656 569.765625 318.382812 570.078125 318.070312 C 570.390625 317.757812 570.730469 317.480469 571.097656 317.234375 C 571.464844 316.988281 571.851562 316.78125 572.261719 316.613281 C 572.667969 316.441406 573.089844 316.3125 573.523438 316.226562 C 573.957031 316.140625 574.394531 316.097656 574.835938 316.097656 Z M 563.058594 486.667969 L 566.488281 415.710938 L 744.707031 415.710938 C 745.199219 415.710938 745.683594 415.757812 746.167969 415.855469 C 746.648438 415.953125 747.117188 416.09375 747.570312 416.28125 C 748.027344 416.472656 748.457031 416.703125 748.867188 416.976562 C 749.273438 417.25 749.652344 417.558594 750 417.90625 C 750.347656 418.253906 750.660156 418.632812 750.933594 419.042969 C 751.207031 419.453125 751.4375 419.882812 751.625 420.335938 C 751.816406 420.792969 751.957031 421.261719 752.054688 421.742188 C 752.148438 422.222656 752.199219 422.710938 752.199219 423.203125 L 752.199219 519.03125 C 752.199219 519.523438 752.148438 520.011719 752.054688 520.492188 C 751.957031 520.976562 751.816406 521.445312 751.625 521.898438 C 751.4375 522.351562 751.207031 522.785156 750.933594 523.191406 C 750.660156 523.601562 750.347656 523.980469 750 524.328125 C 749.652344 524.675781 749.273438 524.988281 748.867188 525.257812 C 748.457031 525.53125 748.027344 525.765625 747.570312 525.953125 C 747.117188 526.140625 746.648438 526.285156 746.167969 526.378906 C 745.683594 526.476562 745.199219 526.523438 744.707031 526.527344 L 561.132812 526.527344 L 563.050781 486.828125 C 563.050781 486.789062 563.050781 486.757812 563.050781 486.71875 Z M 563.417969 380.984375 C 563.21875 381.335938 563.105469 381.710938 563.082031 382.113281 L 561.570312 412.972656 C 561.570312 413.003906 561.570312 413.03125 561.570312 413.0625 L 558.136719 484.191406 L 432.367188 484.191406 L 432.367188 281.207031 C 432.367188 280.074219 432.398438 278.941406 432.453125 277.808594 C 432.511719 276.675781 432.59375 275.546875 432.707031 274.417969 C 432.816406 273.289062 432.957031 272.167969 433.125 271.046875 C 433.289062 269.925781 433.484375 268.808594 433.707031 267.695312 C 433.929688 266.585938 434.175781 265.480469 434.453125 264.378906 C 434.726562 263.28125 435.03125 262.1875 435.359375 261.105469 C 435.691406 260.019531 436.046875 258.945312 436.425781 257.878906 C 436.808594 256.808594 437.21875 255.753906 437.652344 254.707031 C 438.085938 253.660156 438.542969 252.625 439.03125 251.597656 C 439.515625 250.574219 440.023438 249.5625 440.558594 248.5625 C 441.09375 247.5625 441.652344 246.578125 442.234375 245.605469 C 442.816406 244.632812 443.421875 243.675781 444.050781 242.734375 C 444.683594 241.792969 445.335938 240.863281 446.007812 239.953125 C 446.683594 239.042969 447.382812 238.152344 448.101562 237.273438 C 448.820312 236.398438 449.558594 235.539062 450.320312 234.699219 C 451.082031 233.859375 451.863281 233.039062 452.664062 232.238281 C 453.464844 231.4375 454.285156 230.65625 455.125 229.894531 C 455.964844 229.132812 456.820312 228.390625 457.695312 227.671875 C 458.574219 226.953125 459.464844 226.253906 460.375 225.578125 C 461.285156 224.902344 462.210938 224.25 463.152344 223.621094 C 464.09375 222.988281 465.050781 222.382812 466.023438 221.800781 C 466.996094 221.214844 467.980469 220.65625 468.980469 220.121094 C 469.980469 219.585938 470.992188 219.078125 472.015625 218.589844 C 473.039062 218.105469 474.074219 217.644531 475.121094 217.210938 C 476.167969 216.777344 477.226562 216.367188 478.292969 215.984375 C 479.359375 215.601562 480.433594 215.246094 481.519531 214.914062 C 482.601562 214.585938 483.695312 214.28125 484.792969 214.003906 C 485.894531 213.730469 487 213.480469 488.109375 213.257812 C 489.222656 213.035156 490.335938 212.839844 491.457031 212.671875 C 492.578125 212.503906 493.703125 212.363281 494.832031 212.25 C 495.960938 212.140625 497.089844 212.054688 498.222656 211.996094 C 499.351562 211.941406 500.484375 211.910156 501.621094 211.910156 L 502.222656 211.910156 C 503.355469 211.910156 504.488281 211.941406 505.621094 211.996094 C 506.753906 212.054688 507.882812 212.140625 509.011719 212.25 C 510.140625 212.363281 511.261719 212.503906 512.382812 212.671875 C 513.503906 212.839844 514.621094 213.035156 515.734375 213.257812 C 516.84375 213.480469 517.949219 213.730469 519.046875 214.007812 C 520.148438 214.28125 521.238281 214.585938 522.324219 214.917969 C 523.40625 215.246094 524.484375 215.601562 525.550781 215.984375 C 526.617188 216.367188 527.671875 216.777344 528.71875 217.210938 C 529.765625 217.648438 530.800781 218.105469 531.828125 218.59375 C 532.851562 219.078125 533.863281 219.589844 534.863281 220.125 C 535.859375 220.660156 536.847656 221.21875 537.816406 221.800781 C 538.789062 222.382812 539.746094 222.992188 540.6875 223.621094 C 541.628906 224.25 542.554688 224.90625 543.464844 225.582031 C 544.375 226.257812 545.269531 226.953125 546.144531 227.671875 C 547.019531 228.390625 547.878906 229.132812 548.71875 229.894531 C 549.558594 230.65625 550.378906 231.4375 551.179688 232.238281 C 551.980469 233.039062 552.761719 233.863281 553.523438 234.703125 C 554.28125 235.542969 555.023438 236.398438 555.742188 237.277344 C 556.460938 238.152344 557.15625 239.046875 557.832031 239.957031 C 558.507812 240.867188 559.160156 241.792969 559.789062 242.734375 C 560.417969 243.675781 561.023438 244.632812 561.609375 245.605469 C 562.191406 246.578125 562.75 247.566406 563.285156 248.5625 C 563.816406 249.5625 564.328125 250.574219 564.8125 251.601562 C 565.296875 252.625 565.757812 253.660156 566.191406 254.707031 C 566.625 255.753906 567.03125 256.8125 567.414062 257.878906 C 567.796875 258.945312 568.152344 260.019531 568.480469 261.105469 C 568.8125 262.191406 569.113281 263.28125 569.390625 264.378906 C 569.664062 265.480469 569.914062 266.585938 570.136719 267.695312 C 570.355469 268.808594 570.550781 269.925781 570.71875 271.046875 C 570.886719 272.167969 571.023438 273.289062 571.136719 274.417969 C 571.25 275.546875 571.332031 276.675781 571.390625 277.808594 C 571.445312 278.941406 571.472656 280.074219 571.476562 281.207031 L 571.476562 311.613281 C 570.875 311.789062 570.289062 312.015625 569.726562 312.285156 C 569.160156 312.558594 568.617188 312.875 568.105469 313.230469 C 567.589844 313.589844 567.105469 313.988281 566.652344 314.421875 C 566.203125 314.859375 565.789062 315.328125 565.414062 315.828125 C 565.035156 316.332031 564.703125 316.859375 564.410156 317.414062 C 564.117188 317.96875 563.875 318.546875 563.675781 319.140625 C 563.476562 319.734375 563.324219 320.339844 563.222656 320.960938 C 563.121094 321.578125 563.066406 322.203125 563.066406 322.828125 L 563.066406 356.183594 C 563.066406 356.519531 563.128906 356.839844 563.257812 357.148438 C 563.382812 357.457031 563.566406 357.730469 563.800781 357.964844 C 564.039062 358.199219 564.308594 358.382812 564.617188 358.511719 C 564.925781 358.636719 565.25 358.703125 565.582031 358.703125 L 571.171875 358.703125 L 571.171875 367.734375 Z M 481.125 5.171875 L 540.902344 5.171875 L 550.84375 23.378906 L 525.238281 23.378906 C 524.90625 23.378906 524.582031 23.445312 524.277344 23.570312 C 523.96875 23.699219 523.695312 23.882812 523.460938 24.117188 C 523.222656 24.355469 523.042969 24.625 522.914062 24.933594 C 522.785156 25.242188 522.722656 25.5625 522.722656 25.898438 L 522.722656 45.585938 L 481.125 45.585938 Z M 466.0625 63.304688 C 466.0625 62.46875 466.144531 61.644531 466.308594 60.828125 C 466.472656 60.007812 466.714844 59.214844 467.035156 58.445312 C 467.355469 57.675781 467.746094 56.945312 468.210938 56.253906 C 468.671875 55.558594 469.199219 54.917969 469.789062 54.328125 C 470.378906 53.742188 471.023438 53.214844 471.714844 52.753906 C 472.410156 52.289062 473.140625 51.898438 473.910156 51.582031 C 474.679688 51.261719 475.476562 51.023438 476.292969 50.859375 C 477.109375 50.695312 477.9375 50.617188 478.769531 50.617188 L 525.074219 50.617188 C 525.90625 50.617188 526.730469 50.699219 527.546875 50.863281 C 528.363281 51.027344 529.15625 51.265625 529.925781 51.585938 C 530.695312 51.90625 531.425781 52.296875 532.117188 52.757812 C 532.808594 53.222656 533.449219 53.75 534.039062 54.335938 C 534.628906 54.925781 535.15625 55.566406 535.617188 56.257812 C 536.082031 56.949219 536.472656 57.679688 536.789062 58.449219 C 537.109375 59.21875 537.351562 60.011719 537.515625 60.828125 C 537.675781 61.644531 537.757812 62.472656 537.761719 63.304688 L 537.761719 74.375 L 466.0625 74.375 Z M 455.191406 143.09375 L 455.191406 79.402344 L 548.644531 79.402344 L 548.644531 143.09375 L 537.929688 143.09375 L 537.929688 106.207031 C 537.929688 105.871094 537.867188 105.550781 537.738281 105.242188 C 537.613281 104.933594 537.429688 104.664062 537.195312 104.425781 C 536.957031 104.191406 536.6875 104.007812 536.378906 103.882812 C 536.070312 103.753906 535.75 103.6875 535.414062 103.6875 C 535.082031 103.6875 534.761719 103.753906 534.453125 103.882812 C 534.144531 104.007812 533.871094 104.191406 533.636719 104.425781 C 533.398438 104.664062 533.21875 104.933594 533.089844 105.242188 C 532.960938 105.550781 532.898438 105.871094 532.898438 106.207031 L 532.898438 143.09375 L 515.605469 143.09375 L 515.605469 106.207031 C 515.605469 105.871094 515.542969 105.550781 515.414062 105.242188 C 515.285156 104.933594 515.105469 104.664062 514.867188 104.425781 C 514.632812 104.191406 514.359375 104.007812 514.050781 103.882812 C 513.742188 103.753906 513.421875 103.6875 513.089844 103.6875 C 512.753906 103.6875 512.433594 103.753906 512.125 103.882812 C 511.816406 104.007812 511.546875 104.191406 511.308594 104.425781 C 511.074219 104.664062 510.890625 104.933594 510.765625 105.242188 C 510.636719 105.550781 510.574219 105.871094 510.574219 106.207031 L 510.574219 143.09375 L 493.273438 143.09375 L 493.273438 106.207031 C 493.273438 105.871094 493.210938 105.550781 493.082031 105.242188 C 492.957031 104.933594 492.773438 104.664062 492.539062 104.425781 C 492.300781 104.191406 492.03125 104.007812 491.722656 103.882812 C 491.414062 103.753906 491.09375 103.6875 490.757812 103.6875 C 490.425781 103.6875 490.105469 103.753906 489.796875 103.882812 C 489.488281 104.007812 489.214844 104.191406 488.980469 104.425781 C 488.742188 104.664062 488.5625 104.933594 488.433594 105.242188 C 488.304688 105.550781 488.242188 105.871094 488.242188 106.207031 L 488.242188 143.09375 L 470.945312 143.09375 L 470.945312 106.207031 C 470.945312 105.871094 470.878906 105.550781 470.753906 105.242188 C 470.625 104.933594 470.441406 104.664062 470.207031 104.425781 C 469.972656 104.191406 469.699219 104.007812 469.390625 103.882812 C 469.082031 103.753906 468.761719 103.6875 468.429688 103.6875 C 468.09375 103.6875 467.773438 103.753906 467.464844 103.882812 C 467.15625 104.007812 466.882812 104.191406 466.648438 104.425781 C 466.414062 104.664062 466.230469 104.933594 466.101562 105.242188 C 465.976562 105.550781 465.910156 105.871094 465.910156 106.207031 L 465.910156 143.09375 Z M 260.5625 131.734375 L 423.175781 131.734375 L 423.175781 156.949219 L 411.914062 156.949219 L 411.914062 144.34375 C 411.914062 144.007812 411.851562 143.6875 411.722656 143.378906 C 411.59375 143.070312 411.414062 142.796875 411.175781 142.5625 C 410.941406 142.328125 410.667969 142.144531 410.359375 142.015625 C 410.050781 141.890625 409.730469 141.824219 409.398438 141.824219 C 409.0625 141.824219 408.742188 141.890625 408.433594 142.015625 C 408.125 142.144531 407.855469 142.328125 407.617188 142.5625 C 407.382812 142.796875 407.199219 143.070312 407.074219 143.378906 C 406.945312 143.6875 406.882812 144.007812 406.882812 144.34375 L 406.882812 156.949219 L 390.601562 156.949219 L 390.601562 144.34375 C 390.601562 144.007812 390.535156 143.6875 390.410156 143.378906 C 390.28125 143.070312 390.097656 142.796875 389.863281 142.5625 C 389.628906 142.328125 389.355469 142.144531 389.046875 142.015625 C 388.738281 141.890625 388.417969 141.824219 388.082031 141.824219 C 387.75 141.824219 387.429688 141.890625 387.121094 142.015625 C 386.8125 142.144531 386.539062 142.328125 386.304688 142.5625 C 386.070312 142.796875 385.886719 143.070312 385.757812 143.378906 C 385.632812 143.6875 385.566406 144.007812 385.566406 144.34375 L 385.566406 156.949219 L 369.285156 156.949219 L 369.285156 144.34375 C 369.285156 144.007812 369.222656 143.6875 369.09375 143.378906 C 368.96875 143.070312 368.785156 142.796875 368.550781 142.5625 C 368.3125 142.328125 368.039062 142.144531 367.734375 142.015625 C 367.425781 141.890625 367.101562 141.824219 366.769531 141.824219 C 366.4375 141.824219 366.113281 141.890625 365.808594 142.015625 C 365.5 142.144531 365.226562 142.328125 364.992188 142.5625 C 364.753906 142.796875 364.574219 143.070312 364.445312 143.378906 C 364.316406 143.6875 364.253906 144.007812 364.253906 144.34375 L 364.253906 156.949219 L 347.976562 156.949219 L 347.976562 144.34375 C 347.976562 144.007812 347.914062 143.6875 347.785156 143.378906 C 347.65625 143.070312 347.476562 142.796875 347.238281 142.5625 C 347.003906 142.328125 346.730469 142.144531 346.421875 142.015625 C 346.117188 141.890625 345.792969 141.824219 345.460938 141.824219 C 345.128906 141.824219 344.804688 141.890625 344.496094 142.015625 C 344.1875 142.144531 343.917969 142.328125 343.679688 142.5625 C 343.445312 142.796875 343.261719 143.070312 343.136719 143.378906 C 343.007812 143.6875 342.945312 144.007812 342.945312 144.34375 L 342.945312 156.949219 L 324.261719 156.949219 L 324.261719 144.34375 C 324.261719 144.007812 324.199219 143.6875 324.070312 143.378906 C 323.941406 143.070312 323.761719 142.796875 323.523438 142.5625 C 323.289062 142.328125 323.015625 142.144531 322.707031 142.015625 C 322.402344 141.890625 322.078125 141.824219 321.746094 141.824219 C 321.414062 141.824219 321.089844 141.890625 320.78125 142.015625 C 320.476562 142.144531 320.203125 142.328125 319.964844 142.5625 C 319.730469 142.796875 319.546875 143.070312 319.421875 143.378906 C 319.292969 143.6875 319.230469 144.007812 319.230469 144.34375 L 319.230469 156.949219 L 300.558594 156.949219 L 300.558594 144.34375 C 300.558594 144.007812 300.492188 143.6875 300.367188 143.378906 C 300.238281 143.070312 300.054688 142.796875 299.820312 142.5625 C 299.585938 142.328125 299.3125 142.144531 299.003906 142.015625 C 298.695312 141.890625 298.375 141.824219 298.042969 141.824219 C 297.707031 141.824219 297.386719 141.890625 297.078125 142.015625 C 296.769531 142.144531 296.496094 142.328125 296.261719 142.5625 C 296.027344 142.796875 295.84375 143.070312 295.714844 143.378906 C 295.589844 143.6875 295.523438 144.007812 295.523438 144.34375 L 295.523438 156.949219 L 276.851562 156.949219 L 276.851562 144.34375 C 276.851562 144.007812 276.789062 143.6875 276.660156 143.378906 C 276.535156 143.070312 276.351562 142.796875 276.117188 142.5625 C 275.878906 142.328125 275.609375 142.144531 275.300781 142.015625 C 274.992188 141.890625 274.671875 141.824219 274.335938 141.824219 C 274.003906 141.824219 273.683594 141.890625 273.375 142.015625 C 273.066406 142.144531 272.792969 142.328125 272.558594 142.5625 C 272.320312 142.796875 272.140625 143.070312 272.011719 143.378906 C 271.882812 143.6875 271.820312 144.007812 271.820312 144.34375 L 271.820312 156.949219 L 260.5625 156.949219 Z M 363.367188 570.828125 L 320.335938 570.828125 L 320.335938 567.203125 C 320.339844 566.820312 320.378906 566.4375 320.457031 566.0625 C 320.53125 565.683594 320.644531 565.316406 320.792969 564.960938 C 320.941406 564.609375 321.125 564.269531 321.339844 563.953125 C 321.554688 563.632812 321.800781 563.335938 322.074219 563.066406 C 322.347656 562.796875 322.644531 562.554688 322.964844 562.339844 C 323.285156 562.128906 323.625 561.949219 323.980469 561.804688 C 324.335938 561.65625 324.703125 561.546875 325.082031 561.472656 C 325.457031 561.402344 325.839844 561.363281 326.226562 561.367188 L 357.53125 561.367188 C 357.914062 561.367188 358.292969 561.402344 358.667969 561.480469 C 359.042969 561.554688 359.410156 561.664062 359.761719 561.8125 C 360.117188 561.957031 360.453125 562.136719 360.773438 562.351562 C 361.089844 562.5625 361.386719 562.804688 361.65625 563.078125 C 361.925781 563.347656 362.167969 563.644531 362.382812 563.960938 C 362.59375 564.28125 362.773438 564.617188 362.921875 564.96875 C 363.070312 565.324219 363.179688 565.6875 363.253906 566.066406 C 363.328125 566.441406 363.367188 566.820312 363.367188 567.203125 Z M 383.332031 570.828125 L 368.398438 570.828125 L 368.398438 567.203125 C 368.398438 566.488281 368.328125 565.785156 368.191406 565.082031 C 368.050781 564.382812 367.84375 563.703125 367.570312 563.046875 C 367.296875 562.386719 366.960938 561.761719 366.566406 561.167969 C 366.167969 560.574219 365.71875 560.023438 365.214844 559.519531 C 364.707031 559.015625 364.160156 558.566406 363.566406 558.167969 C 362.972656 557.773438 362.347656 557.4375 361.6875 557.164062 C 361.027344 556.890625 360.347656 556.683594 359.648438 556.542969 C 358.949219 556.402344 358.242188 556.332031 357.53125 556.332031 L 326.226562 556.332031 C 325.511719 556.332031 324.800781 556.402344 324.101562 556.539062 C 323.398438 556.679688 322.71875 556.882812 322.054688 557.15625 C 321.394531 557.429688 320.765625 557.765625 320.171875 558.160156 C 319.574219 558.554688 319.023438 559.007812 318.515625 559.511719 C 318.011719 560.015625 317.558594 560.566406 317.160156 561.15625 C 316.761719 561.75 316.421875 562.378906 316.148438 563.039062 C 315.871094 563.699219 315.664062 564.378906 315.519531 565.078125 C 315.378906 565.78125 315.304688 566.488281 315.304688 567.203125 L 315.304688 570.828125 L 300.421875 570.828125 L 294.382812 492.933594 L 389.386719 492.933594 Z M 398.296875 404.554688 L 389.839844 487.886719 L 293.902344 487.886719 L 260.847656 161.980469 L 422.90625 161.980469 L 398.296875 404.546875 Z M 551.898438 570.828125 L 451.945312 570.828125 C 450.355469 570.824219 448.765625 570.746094 447.183594 570.585938 C 445.597656 570.429688 444.023438 570.195312 442.464844 569.882812 C 440.902344 569.570312 439.363281 569.183594 437.839844 568.722656 C 436.316406 568.257812 434.820312 567.722656 433.347656 567.113281 C 431.878906 566.5 430.441406 565.820312 429.039062 565.070312 C 427.636719 564.320312 426.269531 563.5 424.949219 562.617188 C 423.625 561.730469 422.347656 560.785156 421.117188 559.773438 C 419.886719 558.765625 418.710938 557.699219 417.585938 556.570312 C 416.457031 555.445312 415.390625 554.269531 414.378906 553.039062 C 413.371094 551.808594 412.421875 550.53125 411.539062 549.207031 C 410.652344 547.886719 409.835938 546.523438 409.085938 545.117188 C 408.335938 543.714844 407.652344 542.277344 407.042969 540.808594 C 406.433594 539.335938 405.898438 537.839844 405.433594 536.320312 C 404.972656 534.796875 404.582031 533.253906 404.273438 531.691406 C 403.960938 530.132812 403.726562 528.558594 403.566406 526.976562 C 403.410156 525.390625 403.328125 523.804688 403.328125 522.210938 L 403.328125 404.820312 L 425.066406 190.621094 C 425.734375 190.152344 426.402344 189.679688 427.148438 189.238281 L 441.042969 180.632812 C 443.871094 178.859375 446.472656 176.800781 448.84375 174.453125 C 451.214844 172.105469 453.300781 169.527344 455.097656 166.71875 C 456.894531 163.90625 458.363281 160.933594 459.5 157.796875 C 460.636719 154.660156 461.417969 151.4375 461.839844 148.125 L 542.003906 148.125 C 542.425781 151.4375 543.207031 154.660156 544.34375 157.800781 C 545.484375 160.9375 546.953125 163.910156 548.753906 166.722656 C 550.554688 169.53125 552.640625 172.109375 555.011719 174.457031 C 557.386719 176.804688 559.988281 178.863281 562.820312 180.632812 L 576.710938 189.242188 C 578.519531 190.375 580.25 191.613281 581.902344 192.964844 C 583.554688 194.316406 585.117188 195.765625 586.585938 197.3125 C 588.058594 198.863281 589.425781 200.496094 590.6875 202.214844 C 591.949219 203.9375 593.101562 205.730469 594.136719 207.597656 C 595.171875 209.460938 596.089844 211.386719 596.882812 213.367188 C 597.675781 215.347656 598.339844 217.371094 598.878906 219.4375 C 599.417969 221.503906 599.824219 223.59375 600.097656 225.710938 C 600.371094 227.828125 600.507812 229.953125 600.515625 232.089844 L 600.515625 311.0625 L 576.507812 311.0625 L 576.507812 281.207031 C 576.507812 279.992188 576.476562 278.777344 576.414062 277.5625 C 576.355469 276.347656 576.265625 275.136719 576.144531 273.925781 C 576.023438 272.714844 575.875 271.507812 575.695312 270.308594 C 575.515625 269.105469 575.308594 267.90625 575.070312 266.714844 C 574.832031 265.523438 574.566406 264.335938 574.269531 263.160156 C 573.972656 261.980469 573.648438 260.808594 573.296875 259.644531 C 572.941406 258.480469 572.5625 257.328125 572.152344 256.183594 C 571.742188 255.039062 571.304688 253.90625 570.839844 252.78125 C 570.371094 251.660156 569.878906 250.546875 569.359375 249.449219 C 568.839844 248.351562 568.292969 247.265625 567.71875 246.191406 C 567.148438 245.121094 566.546875 244.0625 565.921875 243.019531 C 565.296875 241.976562 564.648438 240.953125 563.972656 239.941406 C 563.296875 238.929688 562.597656 237.9375 561.875 236.960938 C 561.148438 235.984375 560.402344 235.023438 559.628906 234.085938 C 558.859375 233.144531 558.066406 232.222656 557.25 231.324219 C 556.433594 230.421875 555.59375 229.542969 554.734375 228.683594 C 553.875 227.824219 552.996094 226.984375 552.097656 226.167969 C 551.195312 225.351562 550.277344 224.554688 549.335938 223.785156 C 548.398438 223.011719 547.4375 222.265625 546.464844 221.539062 C 545.488281 220.816406 544.492188 220.113281 543.484375 219.4375 C 542.472656 218.761719 541.445312 218.113281 540.402344 217.484375 C 539.363281 216.859375 538.304688 216.261719 537.234375 215.6875 C 536.160156 215.113281 535.074219 214.566406 533.976562 214.046875 C 532.878906 213.523438 531.769531 213.03125 530.644531 212.566406 C 529.523438 212.097656 528.390625 211.660156 527.246094 211.25 C 526.101562 210.839844 524.945312 210.457031 523.785156 210.101562 C 522.621094 209.746094 521.449219 209.421875 520.269531 209.125 C 519.09375 208.828125 517.90625 208.5625 516.714844 208.324219 C 515.523438 208.085938 514.324219 207.875 513.121094 207.695312 C 511.921875 207.515625 510.714844 207.363281 509.503906 207.242188 C 508.292969 207.125 507.082031 207.03125 505.867188 206.972656 C 504.652344 206.910156 503.4375 206.878906 502.222656 206.875 L 501.621094 206.875 C 500.402344 206.878906 499.1875 206.910156 497.972656 206.972656 C 496.761719 207.03125 495.546875 207.125 494.339844 207.242188 C 493.128906 207.363281 491.921875 207.515625 490.71875 207.695312 C 489.519531 207.875 488.320312 208.085938 487.128906 208.324219 C 485.9375 208.5625 484.75 208.828125 483.570312 209.125 C 482.394531 209.421875 481.222656 209.746094 480.058594 210.101562 C 478.894531 210.457031 477.742188 210.839844 476.597656 211.25 C 475.453125 211.660156 474.320312 212.097656 473.199219 212.566406 C 472.074219 213.03125 470.964844 213.523438 469.867188 214.046875 C 468.765625 214.566406 467.683594 215.113281 466.609375 215.6875 C 465.539062 216.261719 464.480469 216.859375 463.4375 217.484375 C 462.394531 218.113281 461.371094 218.761719 460.359375 219.4375 C 459.347656 220.113281 458.355469 220.816406 457.378906 221.539062 C 456.402344 222.265625 455.445312 223.011719 454.507812 223.785156 C 453.566406 224.554688 452.648438 225.351562 451.746094 226.167969 C 450.847656 226.984375 449.964844 227.824219 449.105469 228.683594 C 448.246094 229.542969 447.410156 230.421875 446.59375 231.324219 C 445.777344 232.222656 444.984375 233.144531 444.210938 234.085938 C 443.441406 235.023438 442.695312 235.984375 441.96875 236.960938 C 441.246094 237.9375 440.546875 238.929688 439.871094 239.941406 C 439.195312 240.953125 438.546875 241.976562 437.921875 243.019531 C 437.296875 244.0625 436.695312 245.121094 436.121094 246.191406 C 435.550781 247.265625 435.003906 248.351562 434.484375 249.449219 C 433.960938 250.546875 433.46875 251.660156 433.003906 252.78125 C 432.539062 253.90625 432.101562 255.039062 431.691406 256.183594 C 431.28125 257.328125 430.898438 258.480469 430.546875 259.644531 C 430.191406 260.808594 429.867188 261.980469 429.574219 263.160156 C 429.277344 264.335938 429.007812 265.523438 428.773438 266.714844 C 428.535156 267.90625 428.324219 269.105469 428.148438 270.308594 C 427.96875 271.507812 427.816406 272.714844 427.699219 273.925781 C 427.578125 275.136719 427.488281 276.347656 427.425781 277.5625 C 427.367188 278.777344 427.335938 279.992188 427.335938 281.207031 L 427.335938 486.734375 C 427.335938 487.066406 427.398438 487.386719 427.527344 487.695312 C 427.652344 488.003906 427.835938 488.277344 428.070312 488.511719 C 428.308594 488.75 428.578125 488.929688 428.886719 489.058594 C 429.195312 489.1875 429.515625 489.25 429.851562 489.25 L 557.890625 489.25 L 555.972656 528.9375 L 554.816406 552.917969 C 554.820312 553.734375 554.878906 554.542969 555 555.351562 C 555.117188 556.160156 555.296875 556.953125 555.527344 557.738281 C 555.761719 558.519531 556.050781 559.28125 556.394531 560.019531 C 556.738281 560.761719 557.132812 561.472656 557.578125 562.15625 C 558.027344 562.839844 558.519531 563.488281 559.058594 564.101562 C 559.597656 564.714844 560.179688 565.285156 560.800781 565.8125 C 561.421875 566.34375 562.078125 566.824219 562.769531 567.257812 C 563.460938 567.691406 564.179688 568.074219 564.925781 568.40625 L 565.675781 568.792969 C 561.183594 570.132812 556.589844 570.8125 551.898438 570.828125 Z M 781.757812 563.957031 L 768.40625 570.828125 L 580.539062 570.828125 L 567.238281 563.957031 C 566.167969 563.507812 565.1875 562.917969 564.289062 562.1875 C 563.390625 561.453125 562.613281 560.613281 561.957031 559.65625 C 561.300781 558.699219 560.796875 557.671875 560.433594 556.570312 C 560.074219 555.46875 559.878906 554.339844 559.84375 553.183594 L 560.886719 531.574219 L 744.707031 531.574219 C 745.527344 531.574219 746.34375 531.492188 747.148438 531.332031 C 747.953125 531.171875 748.738281 530.933594 749.496094 530.617188 C 750.257812 530.300781 750.980469 529.917969 751.664062 529.460938 C 752.347656 529.003906 752.980469 528.484375 753.558594 527.902344 C 754.140625 527.320312 754.660156 526.6875 755.117188 526.003906 C 755.574219 525.320312 755.960938 524.597656 756.277344 523.839844 C 756.589844 523.078125 756.828125 522.296875 756.988281 521.492188 C 757.152344 520.683594 757.230469 519.871094 757.230469 519.046875 L 757.230469 423.21875 C 757.230469 422.394531 757.148438 421.582031 756.988281 420.777344 C 756.828125 419.96875 756.589844 419.1875 756.273438 418.425781 C 755.960938 417.667969 755.574219 416.945312 755.117188 416.261719 C 754.660156 415.578125 754.140625 414.945312 753.558594 414.367188 C 752.976562 413.785156 752.34375 413.265625 751.660156 412.808594 C 750.976562 412.351562 750.257812 411.964844 749.496094 411.648438 C 748.738281 411.335938 747.953125 411.097656 747.148438 410.9375 C 746.34375 410.773438 745.527344 410.695312 744.707031 410.691406 L 566.730469 410.691406 L 567.988281 384.667969 L 768.128906 384.667969 C 768.460938 384.667969 768.78125 384.605469 769.089844 384.476562 C 769.398438 384.351562 769.671875 384.167969 769.90625 383.933594 C 770.144531 383.695312 770.324219 383.425781 770.453125 383.117188 C 770.582031 382.808594 770.644531 382.488281 770.644531 382.152344 C 770.644531 381.820312 770.582031 381.5 770.453125 381.191406 C 770.324219 380.882812 770.144531 380.609375 769.90625 380.375 C 769.671875 380.136719 769.398438 379.957031 769.089844 379.828125 C 768.78125 379.699219 768.460938 379.636719 768.128906 379.636719 L 570.035156 379.636719 L 575.117188 370.957031 L 750.839844 370.957031 C 751.175781 370.957031 751.496094 370.890625 751.804688 370.765625 C 752.113281 370.636719 752.382812 370.453125 752.621094 370.21875 C 752.855469 369.984375 753.039062 369.710938 753.164062 369.402344 C 753.292969 369.09375 753.355469 368.773438 753.355469 368.441406 C 753.355469 368.105469 753.292969 367.785156 753.164062 367.476562 C 753.039062 367.167969 752.855469 366.894531 752.621094 366.660156 C 752.382812 366.425781 752.113281 366.242188 751.804688 366.113281 C 751.496094 365.988281 751.175781 365.921875 750.839844 365.921875 L 576.207031 365.921875 L 576.207031 358.703125 L 772.738281 358.703125 L 772.738281 368.417969 C 772.738281 368.875 772.851562 369.296875 773.082031 369.6875 L 780.875 383 L 789.09375 553.183594 C 789.074219 554.339844 788.890625 555.472656 788.539062 556.578125 C 788.1875 557.679688 787.6875 558.710938 787.035156 559.667969 C 786.378906 560.625 785.605469 561.46875 784.703125 562.199219 C 783.804688 562.929688 782.820312 563.515625 781.746094 563.957031 Z M 781.757812 563.957031 " fill-opacity="1" fill-rule="nonzero"/></g><path fill="#000000" d="M 606.777344 486.742188 C 606.777344 487.078125 606.839844 487.398438 606.96875 487.707031 C 607.09375 488.015625 607.277344 488.285156 607.511719 488.523438 C 607.75 488.757812 608.019531 488.941406 608.328125 489.070312 C 608.636719 489.195312 608.957031 489.261719 609.292969 489.261719 L 719.308594 489.261719 C 719.644531 489.261719 719.964844 489.195312 720.273438 489.070312 C 720.582031 488.941406 720.851562 488.757812 721.089844 488.523438 C 721.324219 488.285156 721.507812 488.015625 721.632812 487.707031 C 721.761719 487.398438 721.828125 487.078125 721.828125 486.742188 C 721.828125 486.410156 721.761719 486.089844 721.632812 485.78125 C 721.507812 485.472656 721.324219 485.199219 721.089844 484.964844 C 720.851562 484.730469 720.582031 484.546875 720.273438 484.417969 C 719.964844 484.292969 719.644531 484.226562 719.308594 484.226562 L 609.292969 484.226562 C 608.957031 484.226562 608.636719 484.292969 608.328125 484.417969 C 608.019531 484.546875 607.75 484.730469 607.511719 484.964844 C 607.277344 485.199219 607.09375 485.472656 606.96875 485.78125 C 606.839844 486.089844 606.777344 486.410156 606.777344 486.742188 Z M 606.777344 486.742188 " fill-opacity="1" fill-rule="nonzero"/><path fill="#000000" d="M 698.789062 502.113281 L 629.804688 502.113281 C 629.472656 502.113281 629.152344 502.175781 628.84375 502.304688 C 628.535156 502.433594 628.261719 502.613281 628.027344 502.851562 C 627.789062 503.085938 627.609375 503.359375 627.480469 503.667969 C 627.351562 503.972656 627.289062 504.296875 627.289062 504.628906 C 627.289062 504.964844 627.351562 505.285156 627.480469 505.59375 C 627.609375 505.902344 627.789062 506.171875 628.027344 506.410156 C 628.261719 506.644531 628.535156 506.828125 628.84375 506.953125 C 629.152344 507.082031 629.472656 507.144531 629.804688 507.144531 L 698.789062 507.144531 C 699.125 507.144531 699.445312 507.082031 699.753906 506.953125 C 700.0625 506.828125 700.335938 506.644531 700.570312 506.410156 C 700.804688 506.171875 700.988281 505.902344 701.117188 505.59375 C 701.242188 505.285156 701.308594 504.964844 701.308594 504.628906 C 701.308594 504.296875 701.242188 503.972656 701.117188 503.667969 C 700.988281 503.359375 700.804688 503.085938 700.570312 502.851562 C 700.335938 502.613281 700.0625 502.433594 699.753906 502.304688 C 699.445312 502.175781 699.125 502.113281 698.789062 502.113281 Z M 698.789062 502.113281 " fill-opacity="1" fill-rule="nonzero"/><path fill="#000000" d="M 581.328125 476.300781 C 581.929688 476.300781 582.460938 476.113281 582.925781 475.734375 L 583.570312 475.492188 C 591.238281 472.644531 598.414062 468.859375 605.09375 464.136719 C 606.417969 464.53125 607.765625 464.785156 609.140625 464.898438 C 610.511719 465.015625 611.886719 464.988281 613.253906 464.820312 C 614.625 464.652344 615.960938 464.347656 617.265625 463.90625 C 618.574219 463.460938 619.820312 462.890625 621.007812 462.191406 C 621.171875 463.9375 621.84375 465.460938 623.023438 466.757812 C 623.429688 467.152344 623.882812 467.488281 624.378906 467.761719 C 624.875 468.039062 625.398438 468.246094 625.949219 468.382812 C 626.5 468.519531 627.058594 468.585938 627.628906 468.574219 C 628.195312 468.566406 628.75 468.484375 629.296875 468.328125 C 635.710938 467.042969 642.3125 459.773438 645.226562 456.1875 C 649.441406 458.484375 653.875 460.222656 658.527344 461.398438 C 663.179688 462.578125 667.90625 463.160156 672.707031 463.144531 L 672.742188 463.144531 C 673.074219 463.148438 673.394531 463.085938 673.707031 462.960938 C 674.015625 462.835938 674.289062 462.65625 674.527344 462.421875 C 674.765625 462.191406 674.949219 461.917969 675.078125 461.613281 C 675.207031 461.304688 675.273438 460.984375 675.277344 460.648438 C 675.28125 460.316406 675.21875 459.996094 675.09375 459.6875 C 674.96875 459.375 674.789062 459.101562 674.554688 458.863281 C 674.320312 458.628906 674.050781 458.441406 673.742188 458.3125 C 673.433594 458.183594 673.113281 458.117188 672.78125 458.113281 C 668.078125 458.183594 663.460938 457.597656 658.925781 456.355469 C 654.390625 455.113281 650.117188 453.265625 646.105469 450.8125 C 645.839844 450.613281 645.542969 450.472656 645.214844 450.394531 C 644.890625 450.3125 644.566406 450.300781 644.234375 450.351562 C 643.902344 450.402344 643.59375 450.511719 643.308594 450.6875 C 643.023438 450.859375 642.78125 451.082031 642.585938 451.351562 C 640.386719 454.34375 633.523438 462.339844 628.269531 463.398438 C 627.691406 463.515625 626.925781 463.578125 626.59375 463.242188 C 625.730469 462.359375 625.824219 459.269531 626.222656 457.476562 C 626.28125 457.210938 626.300781 456.941406 626.273438 456.671875 C 626.246094 456.398438 626.175781 456.140625 626.066406 455.890625 C 625.953125 455.644531 625.804688 455.417969 625.621094 455.21875 C 625.4375 455.019531 625.226562 454.851562 624.988281 454.71875 C 624.753906 454.589844 624.5 454.496094 624.230469 454.445312 C 623.964844 454.398438 623.695312 454.390625 623.425781 454.425781 C 623.15625 454.464844 622.902344 454.542969 622.65625 454.664062 C 622.414062 454.78125 622.195312 454.9375 622 455.128906 C 620.464844 456.667969 618.695312 457.855469 616.691406 458.695312 C 614.6875 459.53125 612.597656 459.957031 610.425781 459.964844 C 615.179688 455.902344 619.296875 451.269531 622.773438 446.066406 C 627.585938 438.828125 627.007812 434.414062 625.6875 431.976562 C 625.246094 431.28125 624.714844 430.65625 624.101562 430.109375 C 623.484375 429.558594 622.808594 429.101562 622.066406 428.738281 C 621.324219 428.375 620.550781 428.117188 619.738281 427.96875 C 618.925781 427.816406 618.109375 427.777344 617.289062 427.851562 C 615.125 428.042969 613.023438 428.503906 610.980469 429.238281 C 608.933594 429.96875 607.015625 430.949219 605.226562 432.175781 C 603.433594 433.402344 601.824219 434.832031 600.402344 436.472656 C 598.980469 438.113281 597.785156 439.90625 596.824219 441.855469 C 596.328125 442.621094 595.902344 443.425781 595.554688 444.269531 C 595.207031 445.113281 594.9375 445.980469 594.746094 446.875 C 594.558594 447.769531 594.453125 448.671875 594.429688 449.585938 C 594.410156 450.5 594.46875 451.40625 594.617188 452.308594 C 594.761719 453.210938 594.988281 454.09375 595.296875 454.953125 C 595.605469 455.8125 595.988281 456.636719 596.449219 457.425781 C 596.910156 458.214844 597.4375 458.957031 598.035156 459.648438 C 598.632812 460.339844 599.289062 460.96875 600 461.539062 C 594.273438 465.300781 588.203125 468.375 581.78125 470.765625 C 580.175781 471.375 578.351562 472.070312 578.761719 474.191406 C 578.824219 474.488281 578.933594 474.765625 579.089844 475.023438 C 579.246094 475.28125 579.441406 475.503906 579.675781 475.699219 C 579.910156 475.890625 580.167969 476.035156 580.453125 476.140625 C 580.734375 476.242188 581.027344 476.296875 581.328125 476.300781 Z M 601.324219 444.148438 C 602.078125 442.613281 603.015625 441.191406 604.128906 439.890625 C 605.242188 438.589844 606.5 437.449219 607.902344 436.464844 C 609.304688 435.484375 610.808594 434.691406 612.410156 434.085938 C 614.015625 433.484375 615.667969 433.089844 617.371094 432.90625 L 617.5 432.90625 C 618.507812 432.90625 620.519531 433.070312 621.273438 434.414062 C 622.179688 436.082031 621.179688 439.402344 618.59375 443.296875 C 614.683594 449.121094 609.945312 454.164062 604.378906 458.429688 C 603.984375 458.210938 603.605469 457.96875 603.242188 457.703125 C 602.746094 457.308594 602.296875 456.875 601.882812 456.394531 C 601.472656 455.917969 601.109375 455.40625 600.796875 454.855469 C 600.480469 454.308594 600.222656 453.738281 600.015625 453.140625 C 599.8125 452.542969 599.664062 451.933594 599.578125 451.308594 C 599.488281 450.683594 599.460938 450.054688 599.492188 449.425781 C 599.523438 448.792969 599.613281 448.171875 599.761719 447.558594 C 599.914062 446.945312 600.117188 446.355469 600.382812 445.78125 C 600.644531 445.207031 600.957031 444.664062 601.324219 444.148438 Z M 601.324219 444.148438 " fill-opacity="1" fill-rule="nonzero"/><path fill="#000000" d="M 387.675781 330.976562 C 382.972656 331.046875 378.355469 330.460938 373.820312 329.222656 C 369.285156 327.980469 365.011719 326.128906 361.003906 323.675781 C 360.734375 323.476562 360.4375 323.335938 360.113281 323.257812 C 359.785156 323.179688 359.460938 323.164062 359.128906 323.214844 C 358.796875 323.265625 358.488281 323.375 358.203125 323.550781 C 357.917969 323.722656 357.675781 323.945312 357.480469 324.214844 C 355.273438 327.207031 348.421875 335.203125 343.171875 336.257812 C 342.585938 336.378906 341.828125 336.449219 341.488281 336.105469 C 340.625 335.21875 340.726562 332.136719 341.117188 330.332031 C 341.175781 330.070312 341.191406 329.800781 341.164062 329.53125 C 341.136719 329.261719 341.066406 329.003906 340.957031 328.753906 C 340.847656 328.507812 340.699219 328.285156 340.515625 328.082031 C 340.332031 327.882812 340.121094 327.71875 339.882812 327.585938 C 339.648438 327.453125 339.394531 327.363281 339.128906 327.3125 C 338.863281 327.261719 338.59375 327.253906 338.324219 327.292969 C 338.054688 327.328125 337.800781 327.40625 337.554688 327.523438 C 337.3125 327.644531 337.09375 327.796875 336.898438 327.988281 C 335.375 329.546875 333.601562 330.75 331.589844 331.589844 C 329.574219 332.429688 327.476562 332.84375 325.292969 332.828125 C 330.050781 328.765625 334.167969 324.128906 337.644531 318.925781 C 342.449219 311.691406 341.882812 307.28125 340.554688 304.832031 C 340.109375 304.140625 339.578125 303.519531 338.960938 302.972656 C 338.347656 302.425781 337.667969 301.96875 336.929688 301.605469 C 336.191406 301.242188 335.414062 300.984375 334.605469 300.832031 C 333.796875 300.683594 332.980469 300.640625 332.160156 300.710938 C 329.996094 300.902344 327.890625 301.363281 325.847656 302.09375 C 323.804688 302.824219 321.886719 303.804688 320.09375 305.03125 C 318.300781 306.253906 316.695312 307.6875 315.269531 309.328125 C 313.847656 310.96875 312.65625 312.761719 311.695312 314.707031 C 311.199219 315.472656 310.773438 316.277344 310.425781 317.121094 C 310.074219 317.96875 309.804688 318.835938 309.617188 319.730469 C 309.429688 320.625 309.324219 321.527344 309.300781 322.441406 C 309.277344 323.355469 309.339844 324.261719 309.484375 325.164062 C 309.632812 326.066406 309.859375 326.945312 310.164062 327.804688 C 310.472656 328.667969 310.859375 329.492188 311.320312 330.28125 C 311.777344 331.070312 312.308594 331.808594 312.90625 332.5 C 313.503906 333.191406 314.15625 333.824219 314.871094 334.394531 C 309.148438 338.152344 303.078125 341.226562 296.664062 343.621094 C 295.050781 344.234375 293.226562 344.925781 293.613281 347.050781 C 293.679688 347.347656 293.789062 347.621094 293.949219 347.878906 C 294.109375 348.136719 294.304688 348.359375 294.539062 348.546875 C 294.777344 348.738281 295.035156 348.882812 295.320312 348.984375 C 295.605469 349.085938 295.898438 349.136719 296.199219 349.140625 C 296.796875 349.140625 297.332031 348.949219 297.792969 348.570312 L 298.445312 348.324219 C 306.109375 345.476562 313.289062 341.695312 319.972656 336.988281 C 321.296875 337.378906 322.644531 337.632812 324.019531 337.75 C 325.394531 337.863281 326.765625 337.835938 328.136719 337.667969 C 329.503906 337.5 330.839844 337.195312 332.148438 336.75 C 333.453125 336.308594 334.699219 335.734375 335.886719 335.035156 C 336.054688 336.777344 336.726562 338.300781 337.902344 339.601562 C 338.308594 339.996094 338.761719 340.332031 339.257812 340.605469 C 339.753906 340.882812 340.277344 341.089844 340.828125 341.226562 C 341.375 341.367188 341.933594 341.429688 342.503906 341.421875 C 343.070312 341.414062 343.625 341.332031 344.171875 341.179688 C 350.589844 339.890625 357.191406 332.625 360.101562 329.035156 C 364.316406 331.332031 368.75 333.070312 373.402344 334.246094 C 378.054688 335.425781 382.78125 336.007812 387.582031 335.996094 L 387.617188 335.996094 C 387.949219 335.996094 388.269531 335.933594 388.578125 335.808594 C 388.886719 335.679688 389.15625 335.5 389.394531 335.265625 C 389.632812 335.03125 389.8125 334.761719 389.945312 334.457031 C 390.074219 334.148438 390.136719 333.828125 390.140625 333.496094 C 390.144531 333.164062 390.082031 332.84375 389.957031 332.535156 C 389.832031 332.226562 389.652344 331.953125 389.417969 331.714844 C 389.1875 331.476562 388.917969 331.292969 388.609375 331.164062 C 388.304688 331.03125 387.984375 330.964844 387.652344 330.960938 Z M 319.28125 331.269531 C 318.882812 331.050781 318.503906 330.808594 318.136719 330.542969 C 317.644531 330.152344 317.191406 329.71875 316.78125 329.238281 C 316.371094 328.761719 316.007812 328.25 315.695312 327.703125 C 315.382812 327.15625 315.121094 326.582031 314.917969 325.988281 C 314.714844 325.390625 314.566406 324.78125 314.480469 324.15625 C 314.390625 323.53125 314.363281 322.90625 314.390625 322.273438 C 314.421875 321.644531 314.511719 321.023438 314.664062 320.410156 C 314.8125 319.800781 315.015625 319.207031 315.277344 318.632812 C 315.539062 318.058594 315.855469 317.515625 316.21875 317.003906 C 316.976562 315.464844 317.910156 314.042969 319.023438 312.742188 C 320.136719 311.441406 321.394531 310.300781 322.800781 309.316406 C 324.203125 308.335938 325.707031 307.542969 327.308594 306.9375 C 328.914062 306.335938 330.566406 305.945312 332.269531 305.757812 L 332.402344 305.757812 C 333.40625 305.757812 335.445312 305.925781 336.175781 307.269531 C 337.082031 308.933594 336.078125 312.25 333.488281 316.148438 C 329.578125 321.972656 324.839844 327.015625 319.269531 331.28125 Z M 319.28125 331.269531 " fill-opacity="1" fill-rule="nonzero"/><path fill="#000000" d="M 371.746094 383.894531 L 311.996094 383.894531 C 311.664062 383.894531 311.34375 383.957031 311.035156 384.085938 C 310.726562 384.214844 310.453125 384.394531 310.21875 384.632812 C 309.980469 384.867188 309.800781 385.140625 309.671875 385.449219 C 309.542969 385.757812 309.480469 386.078125 309.480469 386.410156 C 309.480469 386.746094 309.542969 387.066406 309.671875 387.375 C 309.800781 387.683594 309.980469 387.953125 310.21875 388.191406 C 310.453125 388.425781 310.726562 388.609375 311.035156 388.734375 C 311.34375 388.863281 311.664062 388.925781 311.996094 388.925781 L 371.746094 388.925781 C 372.082031 388.925781 372.402344 388.863281 372.710938 388.734375 C 373.019531 388.609375 373.289062 388.425781 373.527344 388.191406 C 373.761719 387.953125 373.945312 387.683594 374.070312 387.375 C 374.199219 387.066406 374.261719 386.746094 374.261719 386.410156 C 374.261719 386.078125 374.199219 385.757812 374.070312 385.449219 C 373.945312 385.140625 373.761719 384.867188 373.527344 384.632812 C 373.289062 384.394531 373.019531 384.214844 372.710938 384.085938 C 372.402344 383.957031 372.082031 383.894531 371.746094 383.894531 Z M 371.746094 383.894531 " fill-opacity="1" fill-rule="nonzero"/><path fill="#000000" d="M 361.03125 401.4375 L 322.710938 401.4375 C 322.378906 401.4375 322.058594 401.5 321.75 401.628906 C 321.441406 401.757812 321.167969 401.9375 320.933594 402.175781 C 320.695312 402.410156 320.515625 402.683594 320.386719 402.992188 C 320.257812 403.300781 320.195312 403.621094 320.195312 403.953125 C 320.195312 404.289062 320.257812 404.609375 320.386719 404.917969 C 320.515625 405.226562 320.695312 405.496094 320.933594 405.734375 C 321.167969 405.96875 321.441406 406.152344 321.75 406.277344 C 322.058594 406.40625 322.378906 406.46875 322.710938 406.46875 L 361.03125 406.46875 C 361.367188 406.46875 361.6875 406.40625 361.996094 406.277344 C 362.304688 406.152344 362.574219 405.96875 362.8125 405.734375 C 363.046875 405.496094 363.230469 405.226562 363.355469 404.917969 C 363.484375 404.609375 363.546875 404.289062 363.546875 403.953125 C 363.546875 403.621094 363.484375 403.300781 363.355469 402.992188 C 363.230469 402.683594 363.046875 402.410156 362.8125 402.175781 C 362.574219 401.9375 362.304688 401.757812 361.996094 401.628906 C 361.6875 401.5 361.367188 401.4375 361.03125 401.4375 Z M 361.03125 401.4375 " fill-opacity="1" fill-rule="nonzero"/></svg>