<svg xmlns="http://www.w3.org/2000/svg" xmlns:xlink="http://www.w3.org/1999/xlink" width="1366" zoomAndPan="magnify" viewBox="0 0 1024.5 576" height="768" preserveAspectRatio="xMidYMid meet" version="1.0"><defs><clipPath id="3ac7fdeb4a"><path d="M 503 0.140625 L 519.054688 0.140625 L 519.054688 18 L 503 18 Z M 503 0.140625 " clip-rule="nonzero"/></clipPath><clipPath id="36bcaf6987"><path d="M 23 572.023438 L 26.839844 572.023438 L 26.839844 575.824219 L 23 575.824219 Z M 23 572.023438 " clip-rule="nonzero"/></clipPath></defs><path fill="#c8b7cd" d="M 250.523438 305.136719 C 249.785156 306.5 250.132812 307.976562 250.203125 309.40625 C 250.417969 313.644531 250.714844 317.875 250.910156 322.109375 C 250.984375 323.691406 251 325.304688 250.832031 326.878906 C 250.621094 328.863281 250.511719 330.75 251.160156 332.742188 C 251.816406 334.777344 250.769531 336.640625 249.066406 337.359375 C 247.375 338.074219 244.265625 337.035156 243.539062 335.320312 C 243.210938 334.542969 243.117188 333.414062 243.4375 332.667969 C 243.957031 331.449219 243.671875 330.460938 243.476562 329.269531 C 243.050781 326.667969 242.964844 324.007812 242.800781 321.367188 C 242.683594 319.511719 242.6875 317.652344 242.582031 315.796875 C 242.550781 315.199219 242.355469 314.601562 242.121094 313.480469 C 240.054688 315.816406 238.1875 317.578125 237.878906 320.417969 C 237.785156 321.289062 237.4375 322.246094 236.902344 322.929688 C 235.128906 325.195312 232.726562 325.164062 230.84375 322.980469 C 229.742188 321.707031 229.65625 319.5 231.082031 318.769531 C 233.933594 317.304688 234.953125 314.523438 236.546875 312.144531 C 237.878906 310.167969 239.089844 308.105469 240.292969 306.046875 C 240.667969 305.410156 240.851562 304.660156 241.269531 303.585938 C 240.117188 303.703125 239.355469 303.773438 238.601562 303.863281 C 235.1875 304.273438 231.78125 304.707031 228.355469 305.074219 C 227.035156 305.21875 225.847656 305.40625 224.679688 306.265625 C 222.386719 307.957031 219.6875 307.359375 218.234375 304.996094 C 217.042969 303.054688 217.691406 301.605469 219.566406 300.886719 C 221.542969 300.113281 223.546875 300.15625 225.382812 300.839844 C 226.851562 301.378906 228.179688 301.429688 229.625 301.195312 C 232.503906 300.742188 235.394531 300.335938 238.269531 299.863281 C 239.042969 299.738281 239.785156 299.429688 240.90625 299.09375 C 240.238281 298.453125 239.847656 297.980469 239.367188 297.636719 C 237.539062 296.316406 235.671875 295.0625 233.847656 293.738281 C 232.878906 293.035156 231.976562 292.320312 230.714844 292.140625 C 229.035156 291.898438 227.886719 290.738281 226.917969 289.453125 C 225.910156 288.125 226.476562 286.507812 228.074219 285.949219 C 230.417969 285.121094 233.03125 285.917969 234.207031 288.289062 C 235.714844 291.332031 238.5625 292.152344 241.519531 293.726562 C 241.664062 292.304688 241.851562 291.300781 241.851562 290.296875 C 241.839844 285.921875 241.765625 281.546875 241.734375 277.175781 C 241.726562 276.234375 241.703125 275.328125 241.042969 274.5625 C 240.789062 274.265625 240.601562 273.890625 240.472656 273.519531 C 240.058594 272.363281 239.769531 271.160156 240.792969 270.1875 C 241.859375 269.1875 243.183594 269.066406 244.519531 269.515625 C 245.757812 269.9375 246.367188 270.902344 246.535156 272.207031 C 247.3125 278.242188 248.113281 284.269531 248.929688 290.292969 C 248.976562 290.652344 249.203125 290.984375 249.332031 291.308594 C 250.640625 291.503906 250.933594 290.429688 251.472656 289.773438 C 252.890625 288.035156 254.125 286.136719 256.210938 285.042969 C 256.722656 284.769531 257.078125 284.109375 257.386719 283.5625 C 257.78125 282.878906 257.976562 282.082031 258.390625 281.417969 C 259.28125 279.984375 261.316406 279.730469 262.519531 280.847656 C 264.664062 282.820312 264.191406 287 261.441406 287.808594 C 259.039062 288.511719 257.65625 290.113281 256.222656 291.808594 C 255.050781 293.199219 253.96875 294.679688 253.160156 296.59375 C 255.3125 297.304688 257.089844 296.671875 258.863281 296.421875 C 260.828125 296.144531 262.777344 295.746094 264.746094 295.472656 C 266.582031 295.210938 268.421875 295.046875 270.550781 294.804688 C 270.945312 294.34375 271.414062 293.5 272.121094 293 C 274.140625 291.546875 276.351562 292.222656 277.367188 294.460938 C 278.386719 296.726562 277.820312 298.3125 275.644531 299.359375 C 274.742188 299.792969 273.835938 299.878906 272.976562 299.367188 C 272.074219 298.839844 271.234375 298.207031 270.222656 297.519531 C 264.898438 298.671875 259.492188 299.734375 253.871094 301.132812 C 254.777344 303.191406 256.441406 303.890625 257.6875 304.980469 C 258.984375 306.097656 260.328125 307.160156 261.753906 308.335938 C 262.648438 308.125 263.527344 307.820312 264.425781 307.738281 C 265.332031 307.652344 266.300781 307.625 267.152344 307.867188 C 268.542969 308.277344 269.277344 309.410156 269.515625 310.800781 C 269.726562 312.03125 268.492188 313.671875 266.878906 314.445312 C 265.796875 314.964844 264.660156 314.730469 263.617188 313.742188 C 263.238281 313.375 262.84375 312.992188 262.570312 312.546875 C 259.96875 308.300781 255.660156 306.589844 251.304688 304.957031 C 251.101562 304.878906 250.804688 305.0625 250.523438 305.136719 " fill-opacity="1" fill-rule="evenodd"/><path fill="#c8b7cd" d="M 106.339844 406.769531 C 109.308594 406.535156 111.34375 408.746094 114.066406 410.1875 C 114.886719 404.632812 113.792969 399.375 115.746094 394.519531 C 118.417969 394.410156 118.84375 394.730469 118.941406 396.722656 C 119.058594 399.101562 119.265625 401.476562 119.34375 403.855469 C 119.394531 405.328125 119.867188 406.605469 120.609375 408.316406 C 121.601562 407.105469 122.339844 406.226562 123.058594 405.328125 C 123.839844 404.347656 124.804688 403.738281 126.078125 403.636719 C 127.011719 403.566406 128.007812 404.492188 127.773438 405.375 C 127.535156 406.246094 127.140625 407.097656 126.703125 407.898438 C 126.015625 409.140625 124.949219 410.175781 124.566406 411.621094 C 125.777344 412.5625 126.988281 412.191406 128.125 412.15625 C 131.167969 412.0625 134.21875 411.835938 137.261719 411.828125 C 139.765625 411.816406 140.492188 412.355469 142.039062 414.792969 C 140.761719 415.808594 139.234375 416.132812 137.679688 416.328125 C 134.914062 416.683594 132.144531 416.949219 129.382812 417.316406 C 127.824219 417.523438 126.28125 417.851562 124.335938 418.191406 C 124.941406 419.117188 125.273438 419.796875 125.761719 420.335938 C 126.921875 421.605469 128.195312 422.773438 129.335938 424.058594 C 129.59375 424.351562 129.511719 424.945312 129.632812 425.726562 C 126.472656 425.230469 124.636719 422.71875 121.976562 422.160156 C 120.84375 422.773438 121.1875 423.792969 121.230469 424.660156 C 121.390625 428.234375 121.738281 431.804688 121.773438 435.378906 C 121.792969 437.339844 121.464844 439.335938 121.035156 441.261719 C 120.675781 442.910156 118.949219 443.480469 117.628906 442.464844 C 116.144531 441.324219 114.847656 439.976562 114.910156 437.875 C 114.949219 436.292969 115.039062 434.703125 115.058594 433.117188 C 115.082031 431.136719 115.101562 429.152344 115.035156 427.167969 C 115.019531 426.714844 114.664062 426.269531 114.367188 425.601562 C 113.464844 426.328125 112.773438 426.910156 112.058594 427.457031 C 111.363281 427.988281 110.613281 428.109375 109.859375 427.582031 C 109.050781 427.019531 108.726562 425.996094 109.179688 425.136719 C 109.675781 424.199219 110.320312 423.347656 110.839844 422.421875 C 111.203125 421.765625 111.472656 421.046875 111.863281 420.171875 C 110.046875 419.523438 108.480469 419.933594 106.941406 419.898438 C 104.695312 419.839844 102.441406 419.816406 100.203125 419.644531 C 98.441406 419.511719 96.875 418.773438 95.582031 417.546875 C 95.207031 417.195312 94.925781 416.726562 94.671875 416.273438 C 94.25 415.511719 94.804688 414.523438 95.632812 414.546875 C 96.289062 414.578125 96.945312 414.6875 97.597656 414.777344 C 101.988281 415.390625 106.246094 414.566406 110.398438 413.886719 C 110.792969 412.796875 110.214844 412.347656 109.746094 411.921875 C 108.566406 410.859375 107.285156 409.90625 106.152344 408.796875 C 105.503906 408.167969 105.507812 407.378906 106.339844 406.769531 " fill-opacity="1" fill-rule="evenodd"/><g clip-path="url(#3ac7fdeb4a)"><path fill="#c8b7cd" d="M 511.023438 4.84375 C 512.105469 3.6875 512.960938 2.730469 513.867188 1.832031 C 514.863281 0.84375 516.082031 0.453125 517.488281 0.613281 C 518.460938 0.726562 519.222656 1.546875 519.019531 2.527344 C 518.832031 3.40625 518.484375 4.285156 518.015625 5.042969 C 517.613281 5.703125 516.910156 6.167969 516.390625 6.765625 C 514.960938 8.414062 514.433594 10.144531 515.785156 12.15625 C 516.371094 13.019531 516.773438 14.03125 517.128906 15.023438 C 517.335938 15.59375 517.289062 16.261719 517.402344 17.265625 C 516.621094 16.984375 516.113281 16.929688 515.773438 16.660156 C 514.65625 15.777344 513.605469 14.8125 512.40625 13.78125 C 511.558594 14.785156 510.914062 15.601562 510.21875 16.359375 C 509.429688 17.214844 508.460938 17.453125 507.765625 17.042969 C 506.847656 16.496094 506.199219 15.277344 506.4375 14.367188 C 506.605469 13.742188 506.921875 13.144531 507.183594 12.546875 C 507.558594 11.699219 507.957031 10.871094 508.332031 10.027344 C 508.378906 9.917969 508.335938 9.773438 508.335938 9.417969 C 507.554688 8.414062 506.617188 7.316406 505.796875 6.128906 C 505.128906 5.15625 504.515625 4.125 504.050781 3.046875 C 503.746094 2.339844 503.65625 1.4375 504.382812 0.855469 C 505.132812 0.273438 506.070312 -0.15625 506.957031 0.390625 C 507.835938 0.921875 508.625 1.644531 509.328125 2.398438 C 509.929688 3.042969 510.347656 3.855469 511.023438 4.84375 " fill-opacity="1" fill-rule="evenodd"/></g><path fill="#c8b7cd" d="M 177.59375 242.140625 C 177.128906 242.988281 176.703125 243.769531 176.136719 244.808594 C 175.527344 244.378906 175.019531 244.054688 174.574219 243.671875 C 174.390625 243.515625 174.289062 243.214844 174.230469 242.96875 C 173.730469 240.714844 172.449219 239.285156 170.167969 238.667969 C 169.019531 238.355469 168.027344 237.648438 167.398438 236.492188 C 167.6875 234.472656 169.578125 235.078125 171.027344 234.484375 C 170.980469 233.746094 170.792969 232.976562 170.921875 232.265625 C 171.019531 231.703125 171.414062 231.101562 171.855469 230.746094 C 172.03125 230.605469 172.8125 230.992188 173.136719 231.320312 C 174.136719 232.335938 174.75 233.746094 176.140625 234.242188 C 177.480469 234.171875 177.867188 233 178.683594 232.40625 C 179.035156 232.148438 179.691406 232.042969 180.09375 232.183594 C 180.800781 232.441406 180.957031 233.175781 180.75 233.835938 C 180.515625 234.585938 180.171875 235.304688 179.785156 235.996094 C 179.054688 237.304688 179.101562 238.496094 180.183594 239.59375 C 180.371094 239.777344 180.511719 240.011719 180.632812 240.242188 C 181.128906 241.207031 180.660156 242.140625 179.574219 242.238281 C 178.941406 242.296875 178.292969 242.179688 177.59375 242.140625 " fill-opacity="1" fill-rule="evenodd"/><path fill="#c8b7cd" d="M 218.378906 469.203125 C 217.730469 469.957031 217.078125 470.792969 216.339844 471.542969 C 215.882812 472.007812 215.339844 472.460938 214.746094 472.6875 C 214.324219 472.855469 213.628906 472.820312 213.292969 472.566406 C 212.972656 472.3125 212.726562 471.585938 212.855469 471.195312 C 213.136719 470.335938 213.636719 469.53125 214.109375 468.738281 C 214.714844 467.734375 215.378906 466.765625 215.992188 465.816406 C 215.394531 463.941406 214.277344 462.636719 213.210938 461.296875 C 212.804688 460.785156 212.304688 460.289062 212.082031 459.699219 C 211.78125 458.921875 211.902344 457.996094 212.703125 457.609375 C 213.183594 457.386719 214.058594 457.460938 214.488281 457.773438 C 215.324219 458.382812 215.988281 459.230469 216.679688 460.023438 C 217.277344 460.695312 217.808594 461.425781 218.472656 462.257812 C 219.234375 461.625 219.847656 461.152344 220.421875 460.636719 C 221.203125 459.925781 221.945312 459.15625 222.746094 458.464844 C 223.390625 457.90625 224.140625 457.699219 224.90625 458.269531 C 225.617188 458.804688 225.601562 459.789062 224.886719 460.75 C 223.710938 462.328125 222.011719 463.527344 221.382812 465.644531 C 221.964844 468.496094 225.640625 469.964844 225.347656 473.660156 C 222.53125 472.792969 221.140625 470.191406 218.378906 469.203125 " fill-opacity="1" fill-rule="evenodd"/><path fill="#c8b7cd" d="M 254.433594 502.5 C 253.429688 501.363281 252.6875 500.613281 252.0625 499.777344 C 251.511719 499.046875 251 498.257812 250.667969 497.414062 C 250.535156 497.082031 250.851562 496.449219 251.140625 496.125 C 251.304688 495.953125 251.960938 495.988281 252.21875 496.171875 C 253.480469 497.082031 254.136719 498.714844 255.90625 499.226562 C 258.410156 497.910156 258.410156 494.085938 261.714844 493.066406 C 262.09375 494.921875 261.078125 496.074219 260.464844 497.316406 C 259.816406 498.613281 259.054688 499.859375 258.214844 501.355469 C 259.367188 503.160156 260.554688 505.019531 261.734375 506.871094 C 260.945312 507.71875 260.425781 507.023438 259.980469 506.722656 C 258.683594 505.84375 257.453125 504.863281 256.226562 503.953125 C 254.390625 504.839844 253.421875 506.269531 252.324219 507.585938 C 251.570312 508.484375 250.695312 509.285156 249.832031 510.089844 C 249.734375 510.179688 249.300781 510.042969 249.148438 509.890625 C 249.015625 509.75 248.933594 509.335938 249.039062 509.21875 C 249.808594 508.316406 250.675781 507.488281 251.417969 506.558594 C 252.40625 505.324219 253.304688 504.027344 254.433594 502.5 " fill-opacity="1" fill-rule="evenodd"/><path fill="#c8b7cd" d="M 431.246094 234.324219 C 428.15625 233.492188 425.359375 233.761719 422.609375 233.671875 C 420.753906 233.609375 419.265625 233.054688 418.039062 231.726562 C 417.882812 231.558594 417.890625 231.246094 417.769531 230.824219 C 419.675781 229.578125 422.035156 229.757812 424.113281 229.019531 C 426.222656 228.277344 428.449219 227.863281 430.664062 227.292969 C 431.78125 225.863281 432.078125 224.167969 432.289062 222.464844 C 432.597656 219.964844 432.804688 217.457031 433.132812 214.960938 C 433.664062 210.898438 434.230469 206.839844 434.859375 202.789062 C 434.976562 202.050781 435.46875 201.367188 435.753906 200.730469 C 437.523438 200.429688 438.75 201.074219 438.789062 202.636719 C 438.945312 208.804688 441.511719 214.476562 442.246094 220.515625 C 442.4375 222.074219 442.730469 223.628906 442.988281 225.246094 C 446.398438 226.539062 449.597656 228.101562 453.214844 228.015625 C 453.570312 229.464844 452.984375 230.328125 451.929688 230.726562 C 450.324219 231.324219 448.644531 231.734375 447 232.230469 C 441.683594 233.84375 442.09375 233.601562 441.457031 238.539062 C 440.609375 245.101562 439.722656 251.660156 438.828125 258.222656 C 438.773438 258.585938 438.511719 258.921875 438.246094 259.484375 C 437.761719 259.273438 437.144531 259.195312 436.9375 258.863281 C 436.53125 258.210938 436.273438 257.429688 436.105469 256.667969 C 434.792969 250.722656 433.519531 244.765625 432.234375 238.816406 C 431.921875 237.398438 431.605469 235.988281 431.246094 234.324219 " fill-opacity="1" fill-rule="evenodd"/><path fill="#c8b7cd" d="M 434.640625 192.492188 C 433.910156 190.109375 434.367188 187.859375 435.496094 185.730469 C 435.777344 185.203125 436.378906 184.757812 436.929688 184.496094 C 438.074219 183.96875 439.589844 185.085938 439.238281 186.253906 C 438.675781 188.117188 437.910156 189.921875 437.144531 191.71875 C 436.90625 192.285156 436.636719 192.285156 434.640625 192.492188 " fill-opacity="1" fill-rule="evenodd"/><path fill="#c8b7cd" d="M 413.546875 232.222656 C 412.347656 233.292969 410.910156 233.601562 409.332031 233.230469 C 408.332031 232.996094 407.363281 232.621094 406.414062 232.242188 C 405.992188 232.074219 406.039062 231.152344 406.429688 230.910156 C 408.636719 229.539062 411.144531 229.679688 413.257812 231.34375 C 413.414062 231.464844 413.414062 231.796875 413.546875 232.222656 " fill-opacity="1" fill-rule="evenodd"/><path fill="#c8b7cd" d="M 439.242188 270.84375 C 437.933594 268.746094 437.828125 266.480469 438.222656 264.171875 C 438.253906 263.980469 439.097656 263.796875 439.542969 263.851562 C 439.839844 263.882812 440.242188 264.289062 440.328125 264.605469 C 440.863281 266.535156 440.972656 268.46875 440.03125 270.316406 C 439.933594 270.515625 439.617188 270.605469 439.242188 270.84375 " fill-opacity="1" fill-rule="evenodd"/><path fill="#c8b7cd" d="M 462.269531 226.878906 C 462.742188 227.148438 463.519531 227.371094 463.980469 227.890625 C 464.460938 228.425781 463.699219 229.320312 462.429688 229.703125 C 461.808594 229.890625 461.152344 230.003906 460.5 230.050781 C 459.667969 230.105469 458.78125 229.386719 458.949219 228.65625 C 459.074219 228.125 459.582031 227.546875 460.074219 227.285156 C 460.621094 226.992188 461.347656 227.03125 462.269531 226.878906 " fill-opacity="1" fill-rule="evenodd"/><path fill="#c8b7cd" d="M 375.332031 390.570312 C 376.582031 389.167969 377.300781 388.570312 377.761719 387.808594 C 379.214844 385.390625 381.640625 385.273438 384.003906 385.066406 C 384.953125 384.976562 385.75 386.101562 385.375 387.015625 C 384.925781 388.101562 384.347656 389.15625 383.679688 390.125 C 382.867188 391.308594 381.902344 392.394531 381.101562 393.398438 C 381.445312 394.527344 382.136719 394.457031 382.792969 394.394531 C 385.824219 394.101562 388.875 393.898438 391.886719 393.453125 C 394.246094 393.105469 396.34375 393.75 398.425781 394.636719 C 398.832031 394.808594 399.285156 395.394531 399.300781 395.804688 C 399.320312 396.167969 398.8125 396.769531 398.429688 396.886719 C 397.03125 397.296875 395.609375 397.621094 394.175781 397.84375 C 389.980469 398.476562 385.773438 399.015625 381.582031 399.644531 C 380.5625 399.800781 379.574219 400.152344 378.40625 400.453125 C 379.101562 402.289062 380.570312 403.035156 381.785156 403.972656 C 384.097656 405.761719 386.355469 407.601562 388.054688 410.015625 C 388.386719 410.484375 388.453125 411.125 388.753906 412.015625 C 386.582031 411.992188 385.703125 410.492188 384.472656 409.675781 C 383.035156 408.726562 381.675781 407.644531 380.203125 406.769531 C 378.855469 405.972656 377.542969 405.046875 375.972656 404.808594 C 374.84375 405.636719 375.171875 406.789062 375.117188 407.789062 C 374.824219 413.082031 374.582031 418.378906 374.304688 423.671875 C 374.246094 424.855469 374.296875 426.144531 372.917969 426.710938 C 371.527344 427.285156 370.367188 426.710938 369.230469 425.914062 C 368.019531 425.070312 367.546875 423.953125 367.625 422.511719 C 367.789062 419.734375 367.945312 416.949219 368.03125 414.167969 C 368.058594 413.296875 367.871094 412.414062 367.742188 411.152344 C 366.117188 412.109375 364.804688 412.882812 363.546875 413.621094 C 361.160156 412.175781 361.015625 411.707031 362.253906 409.996094 C 363.734375 407.964844 365.21875 405.9375 366.65625 403.878906 C 366.9375 403.476562 367.046875 402.953125 367.335938 402.226562 C 364.171875 401.636719 361.355469 402.609375 358.507812 402.691406 C 355.746094 402.765625 352.976562 402.71875 350.253906 402.730469 C 348.9375 401.183594 348.292969 399.746094 349.15625 397.6875 C 353 398.128906 356.753906 398.109375 360.457031 396.476562 C 359.230469 394.246094 355.78125 394.089844 356.128906 390.738281 C 357.488281 389.46875 359.097656 389.675781 360.691406 390.53125 C 362.089844 391.277344 363.394531 392.214844 364.773438 393 C 365.773438 393.566406 366.835938 394.03125 368.101562 394.660156 C 368.808594 393.019531 368.578125 391.570312 368.632812 390.167969 C 368.773438 386.597656 368.890625 383.023438 369.070312 379.460938 C 369.101562 378.824219 369.195312 377.984375 369.601562 377.625 C 370.25 377.054688 371.164062 376.554688 372 376.484375 C 373.015625 376.402344 373.648438 377.3125 373.859375 378.257812 C 374.089844 379.277344 374.164062 380.347656 374.199219 381.398438 C 374.296875 384.167969 374.792969 386.871094 375.332031 390.570312 " fill-opacity="1" fill-rule="evenodd"/><path fill="#c8b7cd" d="M 342.617188 397.085938 C 342.914062 397.136719 343.578125 397.1875 344.207031 397.351562 C 346.066406 397.839844 347.621094 399.769531 347.441406 401.308594 C 347.273438 402.839844 345.363281 404.792969 343.632812 404.796875 C 342.375 404.808594 341.003906 404.507812 339.882812 403.949219 C 338.273438 403.152344 337.574219 401.300781 338.039062 400.003906 C 338.71875 398.121094 340.210938 397.085938 342.617188 397.085938 " fill-opacity="1" fill-rule="evenodd"/><path fill="#c8b7cd" d="M 366.300781 370.488281 C 367.875 369.101562 369.308594 367.929688 371.402344 368.800781 C 373.171875 369.542969 374.230469 370.714844 373.957031 372.914062 C 373.699219 373.214844 373.3125 373.574219 373.023438 374 C 372.167969 375.265625 371.28125 376.332031 369.484375 375.777344 C 367.339844 375.109375 366.410156 374.085938 366.179688 371.898438 C 366.140625 371.515625 366.246094 371.117188 366.300781 370.488281 " fill-opacity="1" fill-rule="evenodd"/><path fill="#c8b7cd" d="M 370.117188 429.753906 C 371.554688 429.871094 372.886719 429.796875 374.105469 430.128906 C 375.800781 430.578125 376.773438 432.453125 376.257812 433.800781 C 375.660156 435.378906 373.640625 436.105469 371.925781 435.238281 C 371.25 434.898438 370.644531 434.3125 370.175781 433.707031 C 369.378906 432.671875 369.59375 431.488281 370.117188 429.753906 " fill-opacity="1" fill-rule="evenodd"/><path fill="#c8b7cd" d="M 410.164062 395.625 C 410.105469 396.570312 409.234375 397.453125 408.113281 397.710938 C 407.011719 397.96875 406.042969 397.675781 405.242188 396.921875 C 403.691406 395.464844 403.667969 393.914062 405.859375 393.074219 C 408.035156 392.246094 409.609375 392.847656 410.074219 394.875 C 410.136719 395.121094 410.136719 395.382812 410.164062 395.625 " fill-opacity="1" fill-rule="evenodd"/><path fill="#c8b7cd" d="M 383.976562 380.191406 C 384.976562 380.101562 385.996094 379.855469 386.976562 379.953125 C 388.183594 380.070312 389.085938 381.242188 389.109375 382.382812 C 389.128906 383.242188 388.6875 383.871094 387.929688 384.222656 C 386.546875 384.867188 385.113281 384.640625 384.371094 383.703125 C 383.675781 382.839844 383.445312 381.875 383.976562 380.191406 " fill-opacity="1" fill-rule="evenodd"/><path fill="#c8b7cd" d="M 393.449219 418.09375 C 392.21875 418.234375 391.140625 417.316406 390.917969 416.214844 C 390.734375 415.347656 391.066406 414.632812 391.917969 414.34375 C 392.636719 414.089844 393.417969 413.871094 394.167969 413.875 C 395.023438 413.882812 395.664062 414.507812 395.703125 415.347656 C 395.726562 415.90625 395.453125 416.609375 395.074219 417.011719 C 394.558594 417.554688 393.8125 417.867188 393.449219 418.09375 " fill-opacity="1" fill-rule="evenodd"/><path fill="#c8b7cd" d="M 358.214844 418.226562 C 357.472656 417.742188 356.757812 417.4375 356.285156 416.902344 C 356.027344 416.621094 356.011719 415.835938 356.234375 415.496094 C 356.441406 415.175781 357.113281 414.992188 357.554688 415.03125 C 358.035156 415.066406 358.605469 415.332031 358.925781 415.679688 C 359.226562 416.003906 359.429688 416.632812 359.332031 417.039062 C 359.234375 417.441406 358.699219 417.738281 358.214844 418.226562 " fill-opacity="1" fill-rule="evenodd"/><path fill="#c8b7cd" d="M 349.09375 384.988281 C 349.492188 384.515625 349.71875 384.007812 349.976562 383.996094 C 350.589844 383.957031 351.273438 384.027344 351.824219 384.285156 C 352.4375 384.574219 352.765625 385.203125 352.40625 385.910156 C 352.058594 386.597656 351.355469 386.785156 350.761719 386.46875 C 350.140625 386.136719 349.675781 385.519531 349.09375 384.988281 " fill-opacity="1" fill-rule="evenodd"/><path fill="#c8b7cd" d="M 295.257812 228.675781 C 296.167969 226.796875 296.210938 225.214844 296.261719 223.652344 C 296.347656 221.144531 296.328125 218.621094 296.367188 216.109375 C 296.378906 215.449219 296.421875 214.761719 297.238281 214.550781 C 297.917969 214.375 298.699219 214.953125 298.871094 215.914062 C 299.078125 217.074219 299.199219 218.269531 299.234375 219.449219 C 299.285156 221.429688 299.195312 223.417969 299.257812 225.40625 C 299.28125 226.160156 299.546875 226.902344 299.800781 228.132812 C 300.660156 227.125 301.253906 226.472656 301.792969 225.785156 C 302.773438 224.542969 303.667969 223.226562 304.710938 222.046875 C 304.957031 221.765625 305.792969 221.691406 306.113281 221.902344 C 306.445312 222.117188 306.710938 222.863281 306.59375 223.246094 C 306.328125 224.113281 305.828125 224.910156 305.386719 225.714844 C 304.632812 227.089844 303.6875 228.371094 303.195312 230.222656 C 303.960938 230.371094 304.5625 230.632812 305.121094 230.5625 C 306.5625 230.386719 307.984375 230.054688 309.414062 229.804688 C 310.710938 229.574219 311.738281 229.925781 311.761719 230.628906 C 311.796875 231.792969 310.875 232.199219 310.019531 232.488281 C 308.636719 232.941406 307.210938 233.269531 305.796875 233.597656 C 305.027344 233.773438 304.214844 233.773438 303.441406 233.960938 C 302.699219 234.144531 301.980469 234.457031 301.054688 234.789062 C 302.570312 238.191406 306.65625 239.613281 307.152344 243.425781 C 306.558594 244.203125 305.976562 244.015625 305.425781 243.542969 C 304.714844 242.941406 304.074219 242.253906 303.335938 241.707031 C 302.300781 240.945312 301.394531 239.886719 299.71875 239.875 C 299.554688 240.605469 299.261719 241.347656 299.25 242.097656 C 299.203125 244.480469 299.3125 246.863281 299.269531 249.242188 C 299.21875 252.15625 299.132812 255.070312 298.9375 257.96875 C 298.882812 258.820312 298.378906 259.636719 298.089844 260.449219 C 295.148438 259.730469 294.785156 259.441406 294.578125 257.285156 C 294.46875 256.105469 294.582031 254.90625 294.601562 253.714844 C 294.652344 250.675781 294.714844 247.632812 294.742188 244.589844 C 294.742188 244.097656 294.609375 243.605469 294.503906 242.894531 C 292.976562 243.148438 292.636719 244.488281 291.789062 245.183594 C 290.882812 245.925781 290.019531 246.734375 289.195312 247.453125 C 287.921875 247.054688 288.019531 246.320312 288.53125 245.578125 C 290.105469 243.285156 291.753906 241.046875 293.308594 238.746094 C 293.871094 237.914062 294.25 236.964844 294.886719 235.722656 C 293.710938 235.726562 292.957031 235.667969 292.21875 235.746094 C 289.976562 235.972656 287.753906 236.34375 285.511719 236.46875 C 284.660156 236.515625 283.699219 236.171875 282.929688 235.746094 C 282.269531 235.371094 281.652344 234.570312 282.117188 233.753906 C 282.386719 233.28125 283.121094 232.914062 283.707031 232.804688 C 284.605469 232.640625 285.554688 232.773438 286.476562 232.730469 C 287.890625 232.660156 289.324219 232.621094 290.601562 231.773438 C 290.136719 230.121094 288.839844 229.320312 287.933594 228.226562 C 287.148438 227.285156 287.453125 226.179688 288.558594 225.621094 C 289.878906 224.957031 291.148438 225.058594 292.289062 225.945312 C 293.210938 226.664062 294.019531 227.53125 295.257812 228.675781 " fill-opacity="1" fill-rule="evenodd"/><path fill="#c8b7cd" d="M 297.992188 266.453125 C 296.644531 266.519531 295.09375 265.175781 295.019531 263.867188 C 294.957031 262.894531 296.136719 262.070312 297.621094 262.046875 C 298.910156 262.027344 299.859375 262.980469 299.832031 264.253906 C 299.8125 265.363281 298.9375 266.40625 297.992188 266.453125 " fill-opacity="1" fill-rule="evenodd"/><path fill="#c8b7cd" d="M 294.949219 209.589844 C 294.957031 209.542969 294.953125 209.410156 294.996094 209.296875 C 295.363281 208.382812 296.355469 207.960938 297.644531 208.136719 C 298.628906 208.273438 299.402344 208.984375 299.363281 209.9375 C 299.351562 210.386719 299.058594 211.007812 298.699219 211.21875 C 297.527344 211.910156 295.503906 211.222656 294.957031 210.0625 C 294.90625 209.957031 294.949219 209.804688 294.949219 209.589844 " fill-opacity="1" fill-rule="evenodd"/><path fill="#c8b7cd" d="M 278.007812 236.902344 C 277.175781 236.550781 276.386719 236.34375 275.761719 235.902344 C 275.414062 235.660156 275.125 234.976562 275.210938 234.585938 C 275.296875 234.191406 275.832031 233.765625 276.261719 233.597656 C 277.332031 233.171875 278.421875 233.34375 279.082031 234.324219 C 279.390625 234.777344 279.433594 235.574219 279.269531 236.117188 C 279.160156 236.46875 278.457031 236.640625 278.007812 236.902344 " fill-opacity="1" fill-rule="evenodd"/><path fill="#c8b7cd" d="M 311.417969 248.132812 C 311.15625 248.058594 310.582031 248.042969 310.191406 247.761719 C 309.824219 247.5 309.539062 246.992188 309.453125 246.539062 C 309.394531 246.273438 309.710938 245.808594 309.984375 245.613281 C 310.914062 244.960938 311.953125 244.804688 312.859375 245.601562 C 313.203125 245.894531 313.488281 246.523438 313.421875 246.9375 C 313.363281 247.328125 312.824219 247.675781 312.445312 247.960938 C 312.257812 248.097656 311.9375 248.054688 311.417969 248.132812 " fill-opacity="1" fill-rule="evenodd"/><path fill="#c8b7cd" d="M 311.816406 220.042969 C 310.378906 220.132812 309.585938 219.738281 309.195312 218.816406 C 309.078125 218.535156 309.234375 218.011719 309.453125 217.738281 C 310.09375 216.957031 310.964844 216.789062 311.910156 217.117188 C 312.726562 217.40625 313.355469 218.070312 313.101562 218.863281 C 312.90625 219.4375 312.09375 219.808594 311.816406 220.042969 " fill-opacity="1" fill-rule="evenodd"/><path fill="#c8b7cd" d="M 318.59375 232.9375 C 317.953125 232.738281 317.425781 232.65625 316.976562 232.421875 C 316.269531 232.054688 315.601562 231.5625 315.835938 230.617188 C 316.058594 229.703125 317.363281 229.253906 318.476562 229.652344 C 319.429688 229.996094 319.953125 230.921875 319.5625 231.820312 C 319.378906 232.246094 318.929688 232.5625 318.59375 232.9375 " fill-opacity="1" fill-rule="evenodd"/><path fill="#c8b7cd" d="M 286.132812 249.867188 C 286.144531 249.898438 285.652344 250.273438 285.300781 250.289062 C 284.550781 250.304688 283.78125 250.199219 283.042969 250.058594 C 282.859375 250.023438 282.589844 249.636719 282.621094 249.453125 C 282.683594 249.113281 282.851562 248.695312 283.117188 248.5 C 283.898438 247.910156 284.789062 247.613281 285.617188 248.398438 C 285.863281 248.632812 285.894531 249.089844 286.132812 249.867188 " fill-opacity="1" fill-rule="evenodd"/><path fill="#c8b7cd" d="M 283.792969 223.378906 C 283.484375 223.402344 283.351562 223.417969 283.226562 223.414062 C 282.378906 223.371094 281.628906 223.105469 281.402344 222.214844 C 281.332031 221.949219 281.613281 221.433594 281.882812 221.261719 C 282.742188 220.679688 283.703125 220.84375 284.308594 221.660156 C 284.507812 221.929688 284.589844 222.4375 284.480469 222.757812 C 284.382812 223.050781 283.960938 223.238281 283.792969 223.378906 " fill-opacity="1" fill-rule="evenodd"/><path fill="#a4cad3" d="M 233.164062 145.382812 C 236.269531 144.035156 237.273438 140.675781 240.242188 139.960938 C 240.398438 139.683594 240.570312 139.46875 240.640625 139.222656 C 240.921875 138.230469 240.742188 136.804688 241.90625 136.5 C 243.121094 136.183594 244.507812 136.316406 245.78125 136.507812 C 246.289062 136.585938 246.863281 137.277344 247.113281 137.824219 C 248.160156 140.085938 247.820312 141.191406 245.75 142.929688 C 245.25 143.351562 244.664062 143.734375 244.316406 144.269531 C 242.742188 146.6875 241.238281 149.15625 239.785156 151.496094 C 240.292969 152.699219 241.160156 152.476562 241.894531 152.417969 C 246.785156 152 251.664062 151.558594 256.550781 151.128906 C 257.734375 151.019531 258.921875 150.828125 260.109375 150.820312 C 262.015625 150.808594 263.660156 150.453125 265.175781 149.058594 C 266.582031 147.769531 267.992188 148.042969 269.445312 149.292969 C 269.648438 149.464844 269.816406 149.675781 270.003906 149.859375 C 272.621094 152.378906 272.261719 155.554688 269.113281 157.328125 C 267.820312 158.058594 266.5 157.855469 265.390625 156.984375 C 264.570312 156.347656 263.949219 155.46875 263.277344 154.738281 C 258.84375 154.269531 244.128906 156.46875 238.269531 158.453125 C 238.003906 159.257812 238.59375 159.691406 239.09375 160.070312 C 240.679688 161.261719 242.328125 162.378906 243.914062 163.574219 C 244.847656 164.269531 245.894531 164.179688 246.949219 164.261719 C 248.84375 164.398438 249.644531 165.722656 250.105469 167.351562 C 250.59375 169.085938 250.007812 170.488281 248.671875 171.59375 C 247.476562 172.585938 245.570312 172.679688 244.195312 171.828125 C 242.847656 170.996094 242.15625 169.722656 242.222656 168.160156 C 242.261719 167.257812 242.582031 166.367188 242.800781 165.382812 C 240.570312 163.328125 237.792969 162.566406 234.730469 161.835938 C 234.445312 162.613281 234 163.300781 233.964844 164.007812 C 233.617188 171.289062 233.34375 178.574219 233.015625 185.855469 C 232.964844 186.96875 233.257812 187.851562 233.882812 188.800781 C 235.042969 190.570312 234.898438 191.15625 233.667969 192.6875 C 232.546875 194.082031 231.152344 195.023438 229.386719 195.382812 C 226.28125 196.007812 223.828125 193.671875 224.347656 190.5625 C 224.519531 189.523438 225.039062 188.511719 225.039062 187.488281 C 225.058594 181.925781 224.960938 176.367188 224.894531 170.808594 C 224.894531 170.6875 224.792969 170.5625 224.640625 170.253906 C 223.574219 169.761719 222.519531 170.171875 221.449219 170.714844 C 221.15625 171.746094 221.03125 172.820312 220.5625 173.730469 C 219.78125 175.246094 218.441406 176.089844 216.675781 176 C 215.101562 175.921875 213.921875 175.1875 213.167969 173.761719 C 212.304688 172.132812 212.828125 169.691406 214.941406 169.347656 C 216.300781 169.121094 217.453125 168.664062 218.390625 167.605469 C 219.707031 166.128906 220.792969 164.1875 221.492188 161.785156 C 221.28125 161.65625 221.039062 161.386719 220.867188 161.421875 C 216.492188 162.363281 212.15625 161.519531 207.8125 161.175781 C 206.355469 161.058594 204.925781 160.84375 203.503906 161.394531 C 201.667969 162.105469 199.808594 162.234375 198.277344 160.800781 C 196.757812 159.371094 195.9375 157.601562 196.59375 155.113281 C 197.28125 154.691406 198.105469 153.996094 199.0625 153.664062 C 201.011719 152.988281 202.976562 152.828125 204.554688 154.585938 C 205.632812 155.78125 206.976562 156.160156 208.511719 155.957031 C 212.433594 155.445312 216.347656 154.921875 220.625 154.355469 C 220.300781 153.621094 220.203125 153.113281 219.90625 152.777344 C 218.082031 150.6875 216.21875 148.625 214.339844 146.578125 C 213.992188 146.199219 213.558594 145.699219 213.113281 145.640625 C 210.449219 145.265625 209.464844 143.269531 208.507812 141.113281 C 209.074219 138.738281 210.789062 137.667969 213.003906 137.28125 C 215.003906 136.929688 216.914062 138.070312 217.058594 140.09375 C 217.222656 142.304688 218.355469 143.765625 219.71875 145.226562 C 220.988281 146.582031 222.226562 147.96875 223.53125 149.277344 C 223.957031 149.710938 224.566406 149.957031 225.363281 150.464844 C 226.003906 148.632812 225.710938 147.054688 225.777344 145.53125 C 225.839844 143.808594 225.808594 142.085938 225.875 140.363281 C 225.929688 138.773438 226.039062 137.191406 226.15625 135.605469 C 226.273438 134.027344 226.421875 132.449219 226.585938 130.535156 C 225.851562 129.917969 224.898438 129.359375 224.273438 128.554688 C 222.519531 126.308594 223.484375 123.75 226.261719 123.074219 C 227.59375 122.75 228.890625 122.902344 230.140625 123.480469 C 231.785156 124.234375 232.429688 125.199219 231.953125 126.945312 C 231.585938 128.277344 231.421875 129.496094 231.976562 130.785156 C 232.074219 131.015625 232.113281 131.332031 232.039062 131.5625 C 231.03125 134.78125 232.207031 137.855469 232.59375 140.980469 C 232.757812 142.292969 232.9375 143.597656 233.164062 145.382812 " fill-opacity="1" fill-rule="evenodd"/><path fill="#a4cad3" d="M 139.339844 495.414062 C 139.871094 496.300781 140.109375 497.117188 140.65625 497.527344 C 142.246094 498.714844 143.859375 499.941406 145.640625 500.777344 C 148.203125 501.972656 150.011719 503.984375 152.304688 505.816406 C 149.90625 507.164062 147.910156 506.308594 146.015625 505.433594 C 144.117188 504.554688 142.339844 503.417969 140.453125 502.367188 C 139.582031 502.804688 139.964844 503.695312 139.96875 504.402344 C 139.988281 509.039062 140.148438 513.667969 140.066406 518.300781 C 140.035156 520.128906 139.585938 521.957031 139.171875 523.746094 C 139.003906 524.484375 138.5 525.179688 138.007812 525.78125 C 137.265625 526.695312 136.15625 527 135.148438 526.492188 C 134.554688 526.191406 134.011719 525.363281 133.867188 524.683594 C 133.59375 523.402344 133.617188 522.058594 133.539062 520.738281 C 133.226562 515.3125 132.921875 509.890625 132.597656 504.46875 C 132.574219 504.074219 132.441406 503.699219 132.367188 503.34375 C 131.589844 502.785156 131.089844 503.304688 130.644531 503.75 C 128.875 505.539062 127.144531 507.367188 125.375 509.15625 C 124.542969 510.003906 123.726562 510.902344 122.777344 511.597656 C 121.429688 512.585938 119.515625 512.085938 118.730469 510.523438 C 118.472656 510.019531 118.476562 509.179688 118.738281 508.683594 C 119.28125 507.640625 120.011719 506.671875 120.78125 505.773438 C 122.335938 503.964844 123.988281 502.242188 125.554688 500.445312 C 126.40625 499.464844 127.164062 498.417969 127.953125 497.417969 C 126.988281 496.3125 126.039062 496.796875 125.210938 496.921875 C 121.679688 497.492188 118.171875 498.234375 114.632812 498.714844 C 112.960938 498.941406 111.203125 498.882812 109.527344 498.65625 C 108.71875 498.542969 107.871094 497.855469 107.296875 497.199219 C 106.96875 496.824219 106.921875 495.878906 107.171875 495.410156 C 107.410156 494.949219 108.246094 494.445312 108.722656 494.523438 C 113.039062 495.265625 117.097656 493.675781 121.273438 493.207031 C 122.8125 493.03125 124.328125 492.566406 125.679688 492.273438 C 126.199219 491.183594 125.558594 490.777344 125.089844 490.382812 C 123.574219 489.105469 121.972656 487.917969 120.488281 486.601562 C 119.410156 485.644531 118.433594 484.566406 117.480469 483.484375 C 117.257812 483.238281 117.257812 482.742188 117.277344 482.367188 C 117.289062 482.140625 117.527344 481.929688 117.6875 481.671875 C 119.148438 481.4375 120.160156 482.394531 121.175781 483.175781 C 123.058594 484.628906 124.835938 486.226562 126.707031 487.710938 C 128.035156 488.769531 129.441406 489.738281 130.648438 490.625 C 131.800781 490.253906 131.722656 489.527344 131.707031 488.898438 C 131.652344 485.980469 131.578125 483.070312 131.46875 480.15625 C 131.253906 474.308594 131.957031 468.535156 132.949219 462.546875 C 133.832031 462.296875 134.792969 462.03125 135.820312 461.75 C 136.949219 465.019531 137.515625 468.03125 137.40625 471.296875 C 137.277344 475.382812 137.75 479.488281 137.996094 483.578125 C 138.015625 483.921875 138.316406 484.238281 138.605469 484.820312 C 139.09375 484.433594 139.527344 484.1875 139.824219 483.828125 C 141.074219 482.28125 142.203125 480.628906 143.546875 479.175781 C 144.226562 478.445312 145.214844 477.847656 146.167969 477.566406 C 147.675781 477.125 149.300781 478.738281 148.707031 480.113281 C 148.183594 481.308594 147.699219 482.542969 147 483.636719 C 146.136719 484.96875 145.050781 486.144531 144.105469 487.425781 C 143.8125 487.824219 143.679688 488.332031 143.328125 489.113281 C 147.195312 489.128906 150.65625 488.324219 154.160156 488.113281 C 157.527344 487.90625 160.914062 486.917969 164.214844 488.050781 C 164.507812 489.035156 164.09375 489.597656 163.441406 489.804688 C 161.171875 490.507812 158.894531 491.25 156.570312 491.722656 C 151.769531 492.691406 146.933594 493.480469 142.117188 494.398438 C 141.261719 494.5625 140.460938 494.992188 139.339844 495.414062 " fill-opacity="1" fill-rule="evenodd"/><path fill="#a4cad3" d="M 179.199219 390.226562 C 177.402344 391.039062 175.914062 389.460938 174.042969 389.597656 C 172.621094 390.710938 173.398438 393.539062 170.742188 394.230469 C 170.285156 393.230469 169.824219 392.222656 169.371094 391.214844 C 169.097656 391.296875 168.769531 391.292969 168.628906 391.449219 C 167.585938 392.601562 167.128906 394.265625 165.605469 394.984375 C 163.582031 393.742188 163.441406 393.546875 163.847656 392.027344 C 164.1875 390.769531 164.597656 389.535156 165.058594 388.023438 C 162.1875 387.761719 159.195312 388.269531 157.53125 385.414062 C 158.664062 383.609375 160.972656 384.800781 162.199219 383.300781 C 162.152344 381.382812 159.707031 381.078125 159.40625 379.335938 C 161.660156 376.257812 161.746094 376.242188 166.292969 378.332031 C 166.367188 377.371094 166.421875 376.484375 166.507812 375.601562 C 166.589844 374.8125 166.625 374.011719 166.824219 373.246094 C 167.25 371.609375 168.953125 371.117188 170.195312 372.324219 C 170.832031 372.941406 171.234375 373.804688 171.75 374.570312 C 172.761719 374.1875 173.746094 373.839844 174.703125 373.441406 C 175.613281 373.070312 176.5 372.8125 177.191406 373.769531 C 177.867188 374.703125 177.335938 375.535156 176.847656 376.328125 C 176.363281 377.113281 175.757812 377.835938 175.328125 378.652344 C 175.042969 379.183594 174.972656 379.835938 174.726562 380.691406 C 177.210938 380.78125 179.402344 380.863281 181.523438 380.9375 C 181.789062 382.070312 181.1875 382.363281 180.554688 382.59375 C 178.832031 383.230469 177.09375 383.839844 175.039062 384.574219 C 175.617188 385.351562 175.984375 386.007812 176.503906 386.503906 C 178.4375 388.335938 178.460938 388.316406 179.199219 390.226562 " fill-opacity="1" fill-rule="evenodd"/><path fill="#a4cad3" d="M 325.253906 468.671875 C 327.667969 468.101562 330.105469 467.53125 332.867188 466.878906 C 332.488281 466.195312 332.273438 465.648438 331.921875 465.203125 C 331.183594 464.273438 330.351562 463.414062 329.605469 462.492188 C 329.28125 462.09375 328.800781 461.589844 328.835938 461.171875 C 328.894531 460.445312 329.1875 459.671875 329.59375 459.0625 C 329.902344 458.59375 331.207031 458.914062 331.6875 459.539062 C 332.175781 460.164062 332.488281 460.921875 333 461.515625 C 333.492188 462.082031 334.140625 462.515625 334.769531 463.042969 C 336.214844 461.199219 335.351562 458.972656 336.457031 456.988281 C 336.9375 457.011719 337.644531 456.851562 338.113281 457.117188 C 338.628906 457.410156 339.0625 458.035156 339.269531 458.613281 C 339.480469 459.203125 339.339844 459.914062 339.417969 460.566406 C 339.476562 461.03125 339.644531 461.472656 339.875 462.34375 C 341.359375 461.054688 342.28125 459.792969 343.355469 458.691406 C 343.71875 458.3125 344.0625 457.832031 344.515625 457.65625 C 344.925781 457.503906 345.53125 457.597656 345.945312 457.796875 C 346.199219 457.921875 346.445312 458.519531 346.359375 458.800781 C 346.082031 459.664062 345.699219 460.503906 345.269531 461.304688 C 344.664062 462.445312 343.71875 463.421875 343.535156 465.058594 C 346.84375 465.71875 350.035156 464.140625 353.675781 464.953125 C 350.210938 467.640625 346.308594 468.078125 342.628906 469.753906 C 344.191406 471.535156 345.621094 473.164062 347.421875 475.214844 C 346.398438 475.214844 345.90625 475.355469 345.539062 475.195312 C 343.875 474.464844 342.597656 472.957031 340.425781 472.558594 C 340.101562 473.710938 339.800781 474.785156 339.476562 475.941406 C 337.949219 476.164062 337.855469 474.441406 336.851562 473.980469 C 336.605469 474.011719 336.300781 473.960938 336.117188 474.085938 C 335.058594 474.832031 334.027344 475.613281 333.117188 476.28125 C 331.988281 475.984375 331.941406 475.289062 332.171875 474.65625 C 332.515625 473.6875 333.011719 472.773438 333.617188 471.472656 C 332.550781 471.4375 331.820312 471.304688 331.125 471.40625 C 329.949219 471.585938 328.792969 471.875 327.640625 472.175781 C 326.65625 472.4375 325.800781 472.230469 325.066406 471.578125 C 324.5625 471.136719 324.644531 470.355469 325.253906 468.671875 " fill-opacity="1" fill-rule="evenodd"/><path fill="#a4cad3" d="M 346.261719 169.921875 C 347.21875 167.632812 348.175781 165.320312 349.269531 162.703125 C 348.492188 162.609375 347.925781 162.460938 347.359375 162.484375 C 346.171875 162.542969 344.988281 162.710938 343.804688 162.777344 C 343.289062 162.808594 342.597656 162.902344 342.28125 162.625 C 341.726562 162.152344 341.273438 161.464844 341.015625 160.777344 C 340.820312 160.25 341.835938 159.386719 342.632812 159.363281 C 343.417969 159.332031 344.21875 159.519531 344.996094 159.457031 C 345.742188 159.386719 346.476562 159.113281 347.273438 158.917969 C 346.628906 156.664062 344.316406 156.054688 343.347656 154 C 343.652344 153.625 343.9375 152.960938 344.429688 152.734375 C 344.964844 152.488281 345.726562 152.503906 346.316406 152.675781 C 346.921875 152.84375 347.414062 153.375 347.984375 153.691406 C 348.398438 153.921875 348.855469 154.042969 349.699219 154.371094 C 349.515625 152.40625 349.035156 150.921875 348.773438 149.410156 C 348.679688 148.890625 348.488281 148.328125 348.613281 147.863281 C 348.730469 147.433594 349.160156 147 349.5625 146.78125 C 349.816406 146.648438 350.445312 146.796875 350.621094 147.035156 C 351.160156 147.761719 351.613281 148.566406 352.011719 149.382812 C 352.578125 150.539062 352.820312 151.882812 354.035156 152.988281 C 356.511719 150.6875 357.105469 147.179688 359.894531 144.707031 C 360.039062 149.085938 358.113281 152.511719 357.3125 156.472656 C 359.671875 156.253906 361.832031 156.042969 364.550781 155.785156 C 363.949219 156.613281 363.777344 157.09375 363.429688 157.300781 C 361.863281 158.21875 359.894531 158.375 358.300781 159.902344 C 359.046875 160.835938 359.734375 161.714844 360.484375 162.65625 C 359.777344 164.015625 358.316406 163.085938 357.359375 163.628906 C 357.238281 163.847656 357.015625 164.0625 357.015625 164.285156 C 356.996094 165.582031 357.027344 166.875 357.039062 168.007812 C 356.132812 168.746094 355.542969 168.382812 355.164062 167.824219 C 354.585938 166.976562 354.128906 166.035156 353.433594 164.785156 C 352.777344 165.628906 352.242188 166.144531 351.917969 166.765625 C 351.375 167.820312 350.929688 168.929688 350.503906 170.039062 C 350.140625 170.992188 349.46875 171.5625 348.511719 171.777344 C 347.859375 171.921875 347.273438 171.402344 346.261719 169.921875 " fill-opacity="1" fill-rule="evenodd"/><path fill="#a4cad3" d="M 239.890625 479.441406 C 240.976562 478.28125 241.828125 477.332031 242.738281 476.429688 C 243.730469 475.441406 244.953125 475.050781 246.359375 475.210938 C 247.332031 475.328125 248.097656 476.140625 247.886719 477.128906 C 247.703125 478 247.355469 478.882812 246.886719 479.640625 C 246.484375 480.300781 245.777344 480.765625 245.261719 481.363281 C 243.835938 483.011719 243.304688 484.742188 244.660156 486.753906 C 245.238281 487.621094 245.648438 488.628906 246.003906 489.621094 C 246.207031 490.191406 246.160156 490.863281 246.269531 491.867188 C 245.492188 491.582031 244.980469 491.527344 244.644531 491.261719 C 243.53125 490.375 242.472656 489.414062 241.273438 488.378906 C 240.429688 489.382812 239.789062 490.195312 239.089844 490.957031 C 238.304688 491.816406 237.332031 492.050781 236.636719 491.632812 C 235.722656 491.089844 235.070312 489.875 235.3125 488.964844 C 235.480469 488.335938 235.789062 487.742188 236.054688 487.144531 C 236.429688 486.296875 236.828125 485.46875 237.203125 484.625 C 237.25 484.515625 237.207031 484.371094 237.207031 484.015625 C 236.425781 483.011719 235.484375 481.914062 234.667969 480.726562 C 234 479.757812 233.386719 478.726562 232.921875 477.640625 C 232.617188 476.9375 232.527344 476.035156 233.253906 475.453125 C 234 474.867188 234.941406 474.441406 235.824219 474.984375 C 236.707031 475.523438 237.496094 476.242188 238.199219 476.996094 C 238.800781 477.640625 239.222656 478.453125 239.890625 479.441406 " fill-opacity="1" fill-rule="evenodd"/><path fill="#a4cad3" d="M 195.964844 488.699219 C 194.972656 486.957031 194.101562 485.480469 193.296875 483.976562 C 192.972656 483.378906 192.839844 482.554688 193.53125 482.230469 C 194.027344 481.996094 194.875 482.070312 195.359375 482.363281 C 196.472656 483.023438 197.464844 483.898438 198.710938 484.84375 C 199.589844 484.144531 200.472656 483.398438 201.410156 482.726562 C 202.15625 482.199219 202.925781 481.632812 203.773438 481.316406 C 205.070312 480.835938 206.535156 482.203125 206.160156 483.550781 C 205.78125 484.921875 205.535156 486.347656 204.402344 487.453125 C 203.671875 488.160156 203.253906 489.191406 202.789062 489.933594 C 203.152344 492.464844 205.414062 494.03125 205.675781 496.972656 C 203.699219 495.601562 202.210938 494.566406 200.648438 493.480469 C 199.632812 494.28125 198.730469 495.003906 197.8125 495.726562 C 197.203125 495.53125 196.667969 495.445312 196.214844 495.199219 C 194.308594 494.148438 193.929688 493.226562 194.675781 491.335938 C 195.007812 490.476562 195.480469 489.675781 195.964844 488.699219 " fill-opacity="1" fill-rule="evenodd"/><path fill="#a4cad3" d="M 337.769531 298.238281 C 337.476562 301.652344 337.179688 305.066406 336.886719 308.480469 C 336.6875 310.71875 336.503906 312.957031 336.296875 315.199219 C 336.246094 315.722656 336.179688 316.25 336.027344 316.757812 C 335.828125 317.4375 335.355469 317.976562 334.609375 317.820312 C 334.179688 317.730469 333.574219 317.324219 333.476562 316.949219 C 332.949219 314.90625 332.253906 312.84375 332.171875 310.765625 C 331.996094 306.632812 330.953125 302.699219 330.070312 298.472656 C 328.902344 298.332031 327.746094 298.203125 326.59375 298.058594 C 323.609375 297.695312 321.015625 296.484375 318.835938 294.414062 C 318.570312 294.160156 318.457031 293.738281 318.3125 293.378906 C 318.269531 293.285156 318.367188 293.128906 318.464844 292.738281 C 321.925781 292.0625 325.503906 291.363281 329.3125 290.621094 C 330.867188 287.820312 331.621094 284.640625 332.09375 281.367188 C 332.488281 278.617188 332.878906 275.863281 333.363281 273.132812 C 333.492188 272.421875 333.976562 271.773438 334.296875 271.09375 C 336.363281 271.390625 337.296875 272.5625 337.558594 274.25 C 337.761719 275.550781 337.777344 276.882812 337.757812 278.203125 C 337.722656 281.25 337.589844 284.289062 337.550781 287.332031 C 337.542969 288.363281 337.695312 289.394531 337.777344 290.453125 C 340.121094 291.289062 342.289062 291.484375 344.566406 291.160156 C 346.121094 290.9375 347.71875 290.972656 349.292969 290.984375 C 349.582031 290.984375 350.023438 291.390625 350.105469 291.695312 C 350.1875 291.984375 349.988281 292.550781 349.742188 292.695312 C 348.726562 293.292969 347.664062 293.832031 346.570312 294.300781 C 344.382812 295.246094 342.164062 296.105469 339.976562 297.046875 C 339.261719 297.351562 338.601562 297.789062 337.769531 298.238281 " fill-opacity="1" fill-rule="evenodd"/><path fill="#a4cad3" d="M 359.816406 294.582031 C 358.027344 294.269531 356.859375 293.492188 356.273438 292.0625 C 356.117188 291.664062 356.25 291.003906 356.496094 290.621094 C 357.222656 289.476562 358.722656 289.113281 359.941406 289.671875 C 361.296875 290.292969 362.015625 291.902344 361.34375 293.269531 C 361.042969 293.871094 360.253906 294.222656 359.816406 294.582031 " fill-opacity="1" fill-rule="evenodd"/><path fill="#a4cad3" d="M 333.738281 327.375 C 333.65625 326.785156 333.554688 326.515625 333.589844 326.269531 C 333.820312 324.417969 334.488281 323.78125 335.996094 323.933594 C 337.425781 324.078125 338.425781 325.113281 338.492188 326.515625 C 338.542969 327.535156 337.480469 328.625 336.433594 328.410156 C 335.449219 328.203125 334.53125 327.6875 333.738281 327.375 " fill-opacity="1" fill-rule="evenodd"/><path fill="#a4cad3" d="M 312.054688 293.71875 C 312.222656 294.871094 310.765625 295.945312 309.640625 295.53125 C 308.308594 295.035156 307.210938 293.710938 307.382812 292.679688 C 307.433594 292.347656 307.722656 291.917969 308.019531 291.785156 C 309.28125 291.214844 310.945312 291.78125 311.800781 293.011719 C 311.949219 293.21875 311.976562 293.496094 312.054688 293.71875 " fill-opacity="1" fill-rule="evenodd"/><path fill="#a4cad3" d="M 336.539062 262.933594 C 336.613281 263.773438 335.800781 264.496094 334.738281 264.523438 C 333.332031 264.570312 332.339844 263.8125 332.273438 262.648438 C 332.222656 261.761719 332.949219 260.917969 333.882812 260.777344 C 335.203125 260.570312 336.425781 261.566406 336.539062 262.933594 " fill-opacity="1" fill-rule="evenodd"/><path fill="#a4cad3" d="M 244.589844 383.9375 C 245.75 383.617188 246.433594 384.074219 246.625 384.914062 C 247.019531 386.578125 247.261719 388.285156 247.515625 389.984375 C 247.738281 391.519531 247.554688 393.113281 247.992188 394.523438 C 248.976562 394.929688 249.441406 394.355469 249.890625 393.917969 C 251.402344 392.441406 252.855469 390.902344 254.367188 389.421875 C 254.699219 389.097656 255.191406 388.945312 255.71875 388.648438 C 255.742188 390.808594 255.726562 390.800781 253.589844 393.609375 C 252.46875 395.085938 251.433594 396.617188 250.375 398.097656 C 250.925781 400.011719 252.492188 400.929688 253.613281 402.195312 C 254.632812 403.335938 255.96875 404.296875 256.089844 406.039062 C 254.054688 406.472656 254.054688 406.472656 246.902344 401.855469 C 245.453125 402.160156 244.707031 403.480469 243.71875 404.503906 C 242.804688 405.449219 241.890625 406.414062 240.875 407.238281 C 240.578125 407.480469 239.773438 407.4375 239.449219 407.195312 C 239.097656 406.933594 238.84375 406.253906 238.90625 405.808594 C 238.996094 405.199219 239.351562 404.585938 239.726562 404.078125 C 240.757812 402.703125 241.859375 401.382812 243.003906 399.949219 C 241.585938 397.265625 239.019531 396.148438 236.796875 394.917969 C 236.566406 393.957031 236.742188 393.21875 237.527344 393.183594 C 238.683594 393.128906 239.875 393.253906 241.011719 393.507812 C 241.753906 393.664062 242.414062 394.195312 243.390625 394.707031 C 243.695312 393.863281 244.097656 393.207031 244.144531 392.523438 C 244.347656 389.644531 244.457031 386.757812 244.589844 383.9375 " fill-opacity="1" fill-rule="evenodd"/><path fill="#a4cad3" d="M 261.359375 413.910156 C 260.277344 413.664062 259.152344 413.023438 258.390625 411.894531 C 257.914062 411.179688 257.914062 410.320312 258.5625 409.722656 C 259.226562 409.109375 260 408.5625 260.820312 408.175781 C 262.09375 407.574219 263.605469 407.910156 264.449219 408.84375 C 265.347656 409.847656 265.367188 410.984375 264.886719 412.160156 C 264.421875 413.289062 263.058594 414 261.359375 413.910156 " fill-opacity="1" fill-rule="evenodd"/><path fill="#a4cad3" d="M 259.023438 386.796875 C 257.972656 386.761719 257.34375 386.183594 256.972656 385.089844 C 256.679688 384.230469 256.910156 383.515625 257.5625 382.964844 C 258.0625 382.542969 258.625 382.160156 259.214844 381.886719 C 261.203125 380.988281 263.011719 382.304688 262.859375 384.492188 C 262.78125 385.539062 262.226562 386.265625 261.261719 386.503906 C 260.882812 386.597656 260.472656 386.585938 260.082031 386.636719 C 259.691406 386.6875 259.296875 386.753906 259.023438 386.796875 " fill-opacity="1" fill-rule="evenodd"/><path fill="#a4cad3" d="M 234.546875 414.308594 C 234.03125 411.976562 234.117188 411.582031 235.109375 411.1875 C 236.332031 410.6875 237.535156 410.929688 238.171875 412 C 238.449219 412.472656 238.46875 413.246094 238.289062 413.785156 C 238.171875 414.144531 237.53125 414.542969 237.105469 414.5625 C 236.234375 414.605469 235.351562 414.402344 234.546875 414.308594 " fill-opacity="1" fill-rule="evenodd"/><path fill="#a4cad3" d="M 226.203125 391.214844 C 226.640625 390.957031 227.203125 390.410156 227.839844 390.308594 C 228.824219 390.148438 229.585938 390.941406 229.585938 391.921875 C 229.59375 392.652344 229.179688 393.132812 228.421875 393.179688 C 227.148438 393.25 226.1875 392.53125 226.203125 391.214844 " fill-opacity="1" fill-rule="evenodd"/><path fill="#a4cad3" d="M 246.15625 373.605469 C 246.296875 374.683594 245.648438 375.339844 244.777344 375.390625 C 243.859375 375.441406 243.15625 374.933594 243.136719 374.199219 C 243.117188 373.441406 243.796875 372.613281 244.550781 372.75 C 245.1875 372.863281 245.75 373.378906 246.15625 373.605469 " fill-opacity="1" fill-rule="evenodd"/><path fill="#a4cad3" d="M 454.464844 90.277344 C 453.265625 90.292969 452.734375 90.921875 452.777344 91.777344 C 452.867188 93.492188 453.105469 95.195312 453.339844 96.898438 C 453.550781 98.4375 454.171875 99.917969 454.140625 101.394531 C 453.316406 102.058594 452.707031 101.632812 452.15625 101.339844 C 450.292969 100.339844 448.464844 99.265625 446.597656 98.269531 C 446.191406 98.046875 445.679688 98.035156 445.082031 97.898438 C 445.667969 99.984375 445.683594 99.964844 448.515625 102.070312 C 450 103.175781 451.417969 104.355469 452.847656 105.484375 C 452.851562 107.480469 451.601562 108.796875 450.882812 110.320312 C 450.222656 111.707031 449.199219 112.996094 449.574219 114.707031 C 451.648438 114.558594 451.648438 114.558594 457.230469 108.132812 C 458.707031 108.023438 459.792969 109.078125 461.023438 109.785156 C 462.167969 110.441406 463.316406 111.113281 464.519531 111.621094 C 464.871094 111.769531 465.632812 111.507812 465.878906 111.183594 C 466.140625 110.839844 466.199219 110.113281 466.011719 109.699219 C 465.753906 109.144531 465.246094 108.652344 464.738281 108.269531 C 463.371094 107.234375 461.941406 106.273438 460.441406 105.214844 C 461.0625 102.242188 463.210938 100.453125 465.011719 98.648438 C 464.960938 97.664062 464.585938 97.007812 463.820312 97.191406 C 462.691406 97.457031 461.582031 97.914062 460.566406 98.46875 C 459.898438 98.832031 459.414062 99.523438 458.617188 100.289062 C 458.089844 99.5625 457.523438 99.042969 457.285156 98.398438 C 456.28125 95.6875 455.378906 92.945312 454.464844 90.277344 " fill-opacity="1" fill-rule="evenodd"/><path fill="#a4cad3" d="M 446.703125 123.730469 C 447.671875 123.199219 448.574219 122.261719 448.988281 120.964844 C 449.25 120.148438 449.015625 119.324219 448.226562 118.9375 C 447.410156 118.527344 446.515625 118.21875 445.625 118.074219 C 444.230469 117.847656 442.871094 118.597656 442.328125 119.726562 C 441.738281 120.941406 442.039062 122.035156 442.824219 123.035156 C 443.589844 123.988281 445.09375 124.292969 446.703125 123.730469 " fill-opacity="1" fill-rule="evenodd"/><path fill="#a4cad3" d="M 472.042969 97.75 C 473.042969 97.425781 473.484375 96.695312 473.539062 95.539062 C 473.578125 94.628906 473.160156 94.007812 472.378906 93.660156 C 471.78125 93.394531 471.136719 93.183594 470.496094 93.089844 C 468.332031 92.78125 466.964844 94.539062 467.722656 96.601562 C 468.082031 97.585938 468.824219 98.132812 469.8125 98.089844 C 470.203125 98.070312 470.589844 97.949219 470.980469 97.890625 C 471.371094 97.828125 471.765625 97.78125 472.042969 97.75 " fill-opacity="1" fill-rule="evenodd"/><path fill="#a4cad3" d="M 472.566406 116.652344 C 472.410156 114.265625 472.222656 113.914062 471.15625 113.808594 C 469.84375 113.671875 468.757812 114.234375 468.445312 115.445312 C 468.308594 115.972656 468.503906 116.722656 468.824219 117.1875 C 469.039062 117.507812 469.765625 117.710938 470.179688 117.609375 C 471.023438 117.410156 471.816406 116.964844 472.566406 116.652344 " fill-opacity="1" fill-rule="evenodd"/><path fill="#a4cad3" d="M 441.734375 94.902344 C 441.238281 94.773438 440.546875 94.40625 439.910156 94.484375 C 438.921875 94.601562 438.40625 95.574219 438.679688 96.523438 C 438.882812 97.222656 439.40625 97.566406 440.152344 97.398438 C 441.394531 97.117188 442.117188 96.160156 441.734375 94.902344 " fill-opacity="1" fill-rule="evenodd"/><path fill="#a4cad3" d="M 450.085938 80.789062 C 450.246094 81.863281 451.058594 82.3125 451.90625 82.121094 C 452.804688 81.914062 453.335938 81.230469 453.152344 80.519531 C 452.957031 79.789062 452.074219 79.179688 451.386719 79.523438 C 450.804688 79.804688 450.414062 80.457031 450.085938 80.789062 " fill-opacity="1" fill-rule="evenodd"/><path fill="#a4cad3" d="M 471.027344 345.085938 C 472.800781 343.6875 474.617188 343.492188 476.46875 343.648438 C 477.171875 342.726562 477.726562 341.839844 478.4375 341.109375 C 479.136719 340.394531 480.363281 340.515625 480.847656 341.355469 C 481.433594 342.363281 481.84375 343.476562 482.34375 344.566406 C 484.601562 346.144531 487.550781 344.230469 490.183594 346.042969 C 488.371094 347.421875 486.757812 348.65625 485.0625 349.953125 C 485.480469 351.375 485.90625 352.59375 486.199219 353.847656 C 486.574219 355.488281 485.671875 356.382812 484 356.078125 C 483.375 355.964844 482.773438 355.703125 482.171875 355.511719 C 481.265625 356.246094 480.523438 357.015625 479.628906 357.511719 C 479.140625 357.789062 478.34375 357.753906 477.800781 357.554688 C 477.523438 357.449219 477.386719 356.671875 477.386719 356.199219 C 477.382812 355.546875 477.636719 354.902344 477.675781 354.25 C 477.839844 351.25 477.09375 348.835938 473.855469 347.730469 C 471.945312 347.078125 472.015625 346.878906 471.027344 345.085938 " fill-opacity="1" fill-rule="evenodd"/><path fill="#a4cad3" d="M 495.503906 348.144531 C 495.367188 348.113281 494.851562 348.042969 494.382812 347.863281 C 493.253906 347.441406 492.359375 346.238281 492.804688 345.574219 C 493.191406 345.007812 493.925781 344.515625 494.597656 344.332031 C 495.746094 344.023438 496.527344 344.605469 496.972656 345.761719 C 497.4375 346.976562 496.921875 348.09375 495.503906 348.144531 " fill-opacity="1" fill-rule="evenodd"/><path fill="#a4cad3" d="M 488.421875 362.527344 C 488.253906 361.957031 487.996094 361.472656 487.980469 360.980469 C 487.957031 359.894531 488.796875 359.085938 489.902344 358.984375 C 490.859375 358.890625 491.6875 359.832031 491.734375 361.0625 C 491.765625 361.96875 491.15625 362.582031 489.980469 362.695312 C 489.484375 362.738281 488.976562 362.59375 488.421875 362.527344 " fill-opacity="1" fill-rule="evenodd"/><path fill="#a4cad3" d="M 477.378906 364.871094 C 476.488281 364.820312 475.582031 363.816406 475.84375 363.054688 C 476.113281 362.265625 476.757812 361.832031 477.621094 361.828125 C 478.582031 361.820312 479.3125 362.554688 479.332031 363.535156 C 479.351562 364.386719 478.527344 364.949219 477.378906 364.871094 " fill-opacity="1" fill-rule="evenodd"/><path fill="#a4cad3" d="M 478.210938 336.414062 C 476.863281 336.378906 476.4375 335.800781 476.277344 334.957031 C 476.128906 334.175781 476.585938 333.695312 477.664062 333.460938 C 478.335938 333.3125 479.003906 333.269531 479.371094 333.957031 C 479.59375 334.386719 479.871094 335.121094 479.683594 335.355469 C 479.246094 335.886719 478.539062 336.191406 478.210938 336.414062 " fill-opacity="1" fill-rule="evenodd"/><path fill="#a4cad3" d="M 466.195312 342.738281 C 466.4375 342.796875 466.878906 342.785156 467.175781 342.988281 C 467.457031 343.183594 467.726562 343.597656 467.742188 343.921875 C 467.753906 344.253906 467.515625 344.679688 467.25 344.902344 C 466.980469 345.132812 466.550781 345.246094 466.179688 345.257812 C 465.140625 345.3125 464.257812 344.597656 464.269531 343.792969 C 464.28125 343.144531 465.011719 342.710938 466.195312 342.738281 " fill-opacity="1" fill-rule="evenodd"/><path fill="#a4cad3" d="M 145.191406 299.457031 C 144.933594 303.546875 144.769531 307.109375 144.460938 310.660156 C 144.324219 312.222656 143.953125 313.773438 143.550781 315.296875 C 143.445312 315.699219 142.785156 316.289062 142.460938 316.238281 C 141.890625 316.144531 141.136719 315.75 140.90625 315.269531 C 140.523438 314.472656 140.367188 313.507812 140.328125 312.601562 C 140.210938 309.957031 140.21875 307.304688 140.148438 304.660156 C 140.125 303.890625 140.007812 303.128906 139.945312 302.453125 C 139.496094 302.300781 139.234375 302.097656 139.023438 302.148438 C 135.667969 302.949219 135.636719 302.917969 136.6875 299 C 135.476562 299.003906 134.335938 299.0625 133.207031 298.992188 C 131.628906 298.894531 130.007812 298.882812 128.511719 298.464844 C 127.589844 298.207031 126.785156 297.335938 126.082031 296.589844 C 125.824219 296.308594 125.855469 295.519531 126.058594 295.128906 C 126.25 294.761719 126.851562 294.421875 127.285156 294.410156 C 129.128906 294.34375 130.972656 294.4375 132.816406 294.398438 C 133.28125 294.390625 133.746094 294.113281 134.335938 293.921875 C 133.46875 291.992188 130.472656 291.308594 131.679688 288.546875 C 134.96875 288.417969 137.164062 291.1875 140.066406 291.613281 C 141.144531 290.46875 140.9375 289.214844 141.011719 288.0625 C 141.214844 285.160156 141.289062 282.242188 141.496094 279.335938 C 141.542969 278.636719 141.902344 277.957031 142.28125 276.746094 C 144.746094 280.253906 144.027344 284.042969 145.109375 287.265625 C 146.144531 287.816406 146.574219 286.898438 147.210938 286.570312 C 147.675781 286.328125 148.097656 285.875 148.582031 285.816406 C 149.164062 285.746094 149.882812 285.84375 150.347656 286.15625 C 150.605469 286.324219 150.636719 287.191406 150.445312 287.585938 C 149.976562 288.515625 149.300781 289.351562 148.742188 290.246094 C 148.34375 290.882812 148 291.542969 147.542969 292.347656 C 149.269531 293 150.707031 292.460938 152.113281 292.535156 C 153.292969 292.589844 154.496094 292.621094 155.640625 292.882812 C 156.417969 293.054688 157.015625 293.667969 156.800781 294.835938 C 155.003906 296.226562 152.441406 296.164062 150.328125 297.433594 C 151.246094 299.714844 154.335938 300.066406 154.957031 302.941406 C 151.460938 302.519531 148.820312 300.625 145.191406 299.457031 " fill-opacity="1" fill-rule="evenodd"/><path fill="#a4cad3" d="M 115.863281 295.597656 C 116.203125 295.25 116.632812 294.445312 117.222656 294.300781 C 118.769531 293.925781 120.167969 295.003906 120.382812 296.472656 C 120.539062 297.507812 119.9375 298.496094 119.109375 298.601562 C 117.359375 298.804688 116.054688 297.738281 115.863281 295.597656 " fill-opacity="1" fill-rule="evenodd"/><path fill="#a4cad3" d="M 165.324219 297.210938 C 163.933594 297.109375 162.902344 295.886719 163.128906 294.496094 C 163.238281 293.804688 163.699219 293.3125 164.476562 293.332031 C 166.070312 293.359375 167.207031 294.316406 167.1875 295.570312 C 167.179688 296.449219 166.238281 297.28125 165.324219 297.210938 " fill-opacity="1" fill-rule="evenodd"/><path fill="#a4cad3" d="M 143.175781 325.847656 C 141.851562 325.894531 140.75 324.648438 140.929688 323.285156 C 140.941406 323.164062 140.996094 322.96875 141.070312 322.945312 C 141.644531 322.773438 142.25 322.476562 142.8125 322.535156 C 143.765625 322.640625 144.609375 323.207031 144.550781 324.265625 C 144.515625 324.78125 143.914062 325.269531 143.546875 325.753906 C 143.484375 325.828125 143.304688 325.820312 143.175781 325.847656 " fill-opacity="1" fill-rule="evenodd"/><path fill="#a4cad3" d="M 157.894531 279.601562 C 156.988281 280.117188 156.5 280.578125 155.949219 280.671875 C 155.105469 280.816406 154.347656 280.050781 154.375 279.300781 C 154.398438 278.699219 155.152344 277.984375 155.742188 278.203125 C 156.398438 278.441406 156.945312 278.964844 157.894531 279.601562 " fill-opacity="1" fill-rule="evenodd"/><path fill="#a4cad3" d="M 132.484375 307.664062 C 132.226562 307.226562 131.75 306.679688 131.554688 306.035156 C 131.375 305.460938 132.121094 304.898438 132.789062 304.96875 C 133.628906 305.0625 134.214844 305.484375 134.371094 306.332031 C 134.480469 306.925781 133.535156 307.714844 132.484375 307.664062 " fill-opacity="1" fill-rule="evenodd"/><path fill="#a4cad3" d="M 157.382812 306.230469 C 157.65625 306.089844 158.058594 305.726562 158.496094 305.691406 C 159.445312 305.609375 160.242188 306.339844 159.984375 307.042969 C 159.839844 307.433594 159.304688 307.863281 158.894531 307.929688 C 158.007812 308.058594 157.316406 307.328125 157.382812 306.230469 " fill-opacity="1" fill-rule="evenodd"/><path fill="#a4cad3" d="M 140.554688 271.445312 C 139.875 270.667969 139.351562 270.289062 139.1875 269.789062 C 139.082031 269.484375 139.445312 268.75 139.75 268.636719 C 140.515625 268.363281 140.949219 268.976562 141.03125 269.648438 C 141.082031 270.066406 140.816406 270.523438 140.554688 271.445312 " fill-opacity="1" fill-rule="evenodd"/><path fill="#a4cad3" d="M 126.546875 285.347656 C 126.316406 284.527344 126.132812 283.996094 126.058594 283.449219 C 126.054688 283.394531 126.902344 283.066406 126.996094 283.179688 C 127.304688 283.535156 127.53125 284.015625 127.597656 284.480469 C 127.625 284.648438 127.113281 284.898438 126.546875 285.347656 " fill-opacity="1" fill-rule="evenodd"/><path fill="#a4cad3" d="M 22.460938 549.429688 C 22.71875 553.519531 22.882812 557.082031 23.191406 560.632812 C 23.328125 562.199219 23.699219 563.746094 24.101562 565.269531 C 24.207031 565.671875 24.867188 566.261719 25.191406 566.210938 C 25.761719 566.117188 26.515625 565.722656 26.75 565.242188 C 27.128906 564.445312 27.285156 563.480469 27.324219 562.578125 C 27.441406 559.929688 27.433594 557.285156 27.503906 554.632812 C 27.527344 553.867188 27.644531 553.101562 27.710938 552.429688 C 28.15625 552.269531 28.421875 552.070312 28.628906 552.125 C 31.980469 552.921875 32.015625 552.890625 30.964844 548.972656 C 32.175781 548.976562 33.316406 549.042969 34.449219 548.96875 C 36.023438 548.867188 37.644531 548.855469 39.144531 548.4375 C 40.0625 548.179688 40.867188 547.308594 41.570312 546.566406 C 41.828125 546.285156 41.796875 545.492188 41.59375 545.105469 C 41.398438 544.734375 40.800781 544.394531 40.367188 544.382812 C 38.523438 544.316406 36.679688 544.410156 34.839844 544.371094 C 34.371094 544.363281 33.90625 544.085938 33.316406 543.894531 C 34.183594 541.964844 37.183594 541.28125 35.972656 538.519531 C 32.683594 538.390625 30.488281 541.160156 27.585938 541.585938 C 26.507812 540.445312 26.714844 539.1875 26.636719 538.035156 C 26.4375 535.132812 26.363281 532.214844 26.15625 529.3125 C 26.109375 528.609375 25.75 527.929688 25.371094 526.722656 C 22.90625 530.230469 23.621094 534.019531 22.539062 537.242188 C 21.503906 537.789062 21.085938 536.871094 20.441406 536.542969 C 19.972656 536.304688 19.554688 535.847656 19.070312 535.789062 C 18.488281 535.71875 17.769531 535.816406 17.304688 536.128906 C 17.050781 536.300781 17.015625 537.164062 17.207031 537.558594 C 17.675781 538.492188 18.347656 539.324219 18.910156 540.21875 C 19.308594 540.855469 19.65625 541.515625 20.109375 542.320312 C 18.382812 542.972656 16.945312 542.433594 15.539062 542.507812 C 14.359375 542.566406 13.15625 542.597656 12.015625 542.855469 C 11.234375 543.027344 10.636719 543.640625 10.851562 544.808594 C 12.648438 546.195312 15.210938 546.136719 17.324219 547.40625 C 16.40625 549.691406 13.316406 550.039062 12.695312 552.914062 C 16.191406 552.492188 18.835938 550.597656 22.460938 549.429688 " fill-opacity="1" fill-rule="evenodd"/><path fill="#a4cad3" d="M 51.789062 545.570312 C 51.449219 545.226562 51.019531 544.417969 50.429688 544.273438 C 48.882812 543.898438 47.484375 544.976562 47.269531 546.449219 C 47.113281 547.484375 47.714844 548.472656 48.542969 548.574219 C 50.292969 548.78125 51.597656 547.710938 51.789062 545.570312 " fill-opacity="1" fill-rule="evenodd"/><path fill="#a4cad3" d="M 2.328125 547.183594 C 3.71875 547.085938 4.75 545.863281 4.523438 544.472656 C 4.410156 543.777344 3.953125 543.285156 3.175781 543.304688 C 1.585938 543.332031 0.445312 544.289062 0.464844 545.542969 C 0.472656 546.425781 1.414062 547.253906 2.328125 547.183594 " fill-opacity="1" fill-rule="evenodd"/><g clip-path="url(#36bcaf6987)"><path fill="#a4cad3" d="M 24.476562 575.820312 C 25.804688 575.867188 26.902344 574.621094 26.722656 573.257812 C 26.707031 573.136719 26.65625 572.941406 26.582031 572.917969 C 26.007812 572.75 25.402344 572.449219 24.84375 572.511719 C 23.886719 572.613281 23.042969 573.179688 23.109375 574.238281 C 23.136719 574.753906 23.738281 575.246094 24.105469 575.726562 C 24.171875 575.800781 24.347656 575.792969 24.476562 575.820312 " fill-opacity="1" fill-rule="evenodd"/></g><path fill="#a4cad3" d="M 9.761719 529.574219 C 10.664062 530.089844 11.152344 530.550781 11.703125 530.644531 C 12.546875 530.792969 13.304688 530.023438 13.277344 529.273438 C 13.253906 528.675781 12.5 527.960938 11.910156 528.179688 C 11.253906 528.417969 10.707031 528.9375 9.761719 529.574219 " fill-opacity="1" fill-rule="evenodd"/><path fill="#a4cad3" d="M 35.167969 557.636719 C 35.425781 557.199219 35.902344 556.652344 36.097656 556.011719 C 36.277344 555.433594 35.53125 554.871094 34.867188 554.941406 C 34.023438 555.035156 33.4375 555.457031 33.28125 556.304688 C 33.175781 556.902344 34.121094 557.6875 35.167969 557.636719 " fill-opacity="1" fill-rule="evenodd"/><path fill="#a4cad3" d="M 10.273438 556.203125 C 9.996094 556.0625 9.589844 555.703125 9.160156 555.664062 C 8.207031 555.585938 7.410156 556.3125 7.671875 557.019531 C 7.8125 557.40625 8.347656 557.835938 8.761719 557.902344 C 9.644531 558.035156 10.335938 557.304688 10.273438 556.203125 " fill-opacity="1" fill-rule="evenodd"/><path fill="#a4cad3" d="M 27.097656 521.421875 C 27.777344 520.644531 28.300781 520.261719 28.464844 519.761719 C 28.566406 519.457031 28.207031 518.722656 27.902344 518.609375 C 27.136719 518.339844 26.703125 518.953125 26.621094 519.621094 C 26.570312 520.039062 26.835938 520.496094 27.097656 521.421875 " fill-opacity="1" fill-rule="evenodd"/><path fill="#a4cad3" d="M 41.105469 535.320312 C 41.335938 534.5 41.515625 533.972656 41.59375 533.421875 C 41.597656 533.367188 40.75 533.039062 40.65625 533.152344 C 40.351562 533.507812 40.121094 533.988281 40.054688 534.453125 C 40.03125 534.621094 40.539062 534.871094 41.105469 535.320312 " fill-opacity="1" fill-rule="evenodd"/></svg>