<svg xmlns="http://www.w3.org/2000/svg" xmlns:xlink="http://www.w3.org/1999/xlink" width="1366" zoomAndPan="magnify" viewBox="0 0 1024.5 576" height="768" preserveAspectRatio="xMidYMid meet" version="1.0"><path fill="#000000" d="M 270.878906 327.320312 C 264.550781 316.390625 259.648438 304.457031 253.757812 293.285156 C 252.53125 292.28125 251.71875 290.769531 251.546875 289.277344 C 249.269531 285.25 246.859375 281.328125 244.121094 277.671875 C 235.910156 266.722656 225.511719 257.742188 218.265625 246.179688 C 218.242188 246.179688 218.199219 246.179688 218.132812 246.199219 C 208.105469 252.636719 196.410156 257.742188 188.617188 266.523438 C 180.1875 276.050781 200.089844 297.953125 205.5 305.96875 C 213.839844 318.386719 220.386719 335.773438 232.082031 345.214844 C 242.898438 353.996094 259.996094 334.8125 270.878906 327.320312 Z M 301.949219 383.367188 C 304.445312 383.367188 306.984375 383.34375 309.4375 383.34375 C 308.804688 378.789062 307.925781 374.1875 306.679688 369.675781 C 305.144531 374.253906 303.527344 378.832031 301.949219 383.367188 Z M 369.015625 222.546875 C 365.730469 218.625 363.171875 214.597656 361.222656 209.953125 C 341.425781 220.421875 322.574219 232.445312 302.167969 241.777344 C 285.003906 249.660156 266.433594 257.347656 253.1875 271.167969 C 254.304688 272.875 255.355469 274.582031 256.296875 276.378906 C 257.214844 278.175781 258.09375 279.992188 259.011719 281.789062 C 295.730469 261.925781 334.902344 247.558594 369.015625 222.546875 Z M 413.027344 391.097656 C 412.042969 363.019531 365.183594 356.425781 368.292969 325 C 359.6875 316.0625 356.03125 304.871094 356.578125 293.484375 C 335.40625 307.652344 313.53125 320.949219 289.839844 330.34375 C 309.722656 340.351562 317.582031 361.945312 320.453125 383.453125 C 351.457031 384.132812 382.242188 387.394531 413.027344 391.097656 Z M 401.007812 221.011719 C 401.859375 220.511719 402.691406 220.027344 403.546875 219.523438 C 393.144531 200.6875 382.042969 182.050781 366.71875 166.851562 C 320.363281 191.273438 273.921875 215.605469 228.183594 241.183594 C 233.351562 248.960938 240.203125 255.464844 246.355469 262.472656 C 260.195312 248.433594 278.957031 240.417969 296.605469 232.292969 C 318.480469 222.261719 338.539062 209.230469 359.90625 198.238281 C 362.558594 195.082031 368.796875 194.863281 370.023438 199.878906 C 372.105469 208.265625 376.199219 213.390625 382.023438 219.4375 C 383.925781 221.386719 384.429688 225.328125 382.023438 227.210938 C 346.289062 255.113281 303.503906 270.335938 264.027344 291.820312 C 269.148438 302.15625 274.359375 312.382812 280.46875 322.152344 C 309.023438 311.792969 334.878906 295.082031 359.84375 278 C 361.527344 273.53125 363.78125 269.195312 366.671875 265.101562 C 366.78125 264.992188 366.871094 264.925781 366.9375 264.816406 C 367.332031 263.960938 367.921875 263.195312 368.6875 262.582031 C 368.90625 261.179688 369.652344 259.820312 371.117188 258.835938 C 379.308594 253.273438 389.160156 250.886719 397.394531 256.820312 C 400.65625 253.777344 404.246094 251.082031 407.859375 248.476562 C 405.144531 243.132812 402.449219 237.746094 399.035156 232.796875 C 398.488281 232.007812 398.203125 231.21875 398.117188 230.496094 C 397.328125 228.875 397.285156 227.058594 398.378906 225.632812 C 398.355469 223.90625 399.078125 222.152344 401.007812 221.011719 Z M 407.203125 290.046875 C 407.53125 289.9375 407.859375 289.78125 408.1875 289.628906 C 403.875 283.671875 400.480469 277.082031 396.078125 271.144531 C 390.957031 264.222656 386.160156 263.042969 379.636719 266.523438 C 386.949219 274.035156 393.40625 282.25 399.1875 291.054688 C 401.246094 291.054688 403.328125 291.054688 405.40625 291.054688 C 405.890625 290.660156 406.480469 290.285156 407.203125 290.046875 Z M 411.382812 364.617188 C 412.808594 365.867188 414.101562 367.160156 415.28125 368.429688 C 413.859375 359.757812 410.726562 351.761719 404.398438 347.710938 C 396.734375 342.71875 388.066406 339.058594 380.183594 334.308594 C 385.085938 346.679688 402.953125 357.261719 411.382812 364.617188 Z M 422.289062 270.070312 C 422.289062 270.050781 422.289062 270.050781 422.289062 270.050781 C 418.589844 266.523438 415.699219 262.472656 413.136719 258.179688 C 410.3125 260.238281 407.574219 262.363281 405.011719 264.726562 C 409.808594 271.144531 413.464844 278.503906 418.214844 284.941406 C 418.851562 284.570312 419.507812 284.242188 420.121094 283.890625 C 420.011719 279.203125 420.667969 274.539062 422.289062 270.070312 Z M 428.15625 202.199219 C 431.003906 196.003906 423.820312 186.804688 420.535156 182.050781 C 410.488281 167.597656 399.1875 161.945312 383.378906 168.648438 C 394.941406 182.378906 404.160156 197.972656 412.828125 213.71875 C 414.710938 212.449219 416.507812 211.136719 418.195312 209.667969 C 419.203125 208.792969 420.316406 208.375 421.367188 208.265625 C 422.070312 207.675781 422.945312 207.238281 423.910156 207.0625 C 425.769531 205.59375 427.347656 203.996094 428.15625 202.199219 Z M 451.015625 211.792969 C 451.605469 200.425781 452.089844 189.148438 452.59375 177.847656 C 447.140625 180.847656 441.359375 183.300781 435.601562 185.710938 C 439.0625 192.234375 441.402344 199.527344 438.359375 206.1875 C 437.921875 207.105469 437.398438 207.9375 436.871094 208.792969 C 441.578125 209.558594 446.375 210.480469 451.015625 211.792969 Z M 453.226562 164.707031 C 453.402344 161.136719 453.578125 157.589844 453.796875 154.082031 C 444.292969 159.539062 434.484375 164.507812 424.476562 169.171875 C 426.359375 171.277344 428.179688 173.707031 429.863281 176.3125 C 437.769531 172.984375 445.71875 169.675781 452.855469 164.882812 C 453.007812 164.816406 453.117188 164.773438 453.226562 164.707031 Z M 481.582031 399.375 C 479.0625 388.601562 475.800781 378 470.414062 368.277344 C 466.628906 361.398438 461.308594 353.753906 459.730469 345.847656 C 456.730469 330.78125 462.292969 318.605469 465.007812 303.953125 C 468.511719 284.941406 464.898438 266.722656 452.023438 251.960938 C 441.730469 240.15625 427.414062 228.195312 411.339844 231.8125 C 417.449219 242.738281 421.480469 256.230469 431.550781 263.742188 C 434.265625 265.714844 434.375 268.976562 433.191406 271.320312 C 433.148438 271.847656 433.082031 272.394531 432.863281 273.007812 C 431.222656 277.582031 430.785156 281.941406 431.222656 286.78125 C 431.375 288.25 430.742188 289.5625 429.710938 290.550781 C 429.273438 291.140625 428.683594 291.6875 427.894531 292.171875 C 422.136719 295.34375 416.355469 298.457031 410.136719 300.625 C 410.050781 300.644531 410.027344 300.644531 409.960938 300.644531 C 409.0625 301.5 407.835938 302.046875 406.21875 302.046875 C 402.5625 302.046875 395.246094 302.046875 395.246094 302.046875 C 391.65625 302.046875 389.816406 299.417969 389.730469 296.703125 C 384.804688 289.125 379.308594 282.09375 373.15625 275.570312 C 364.332031 291.644531 364.878906 311.707031 382.199219 322.480469 C 392.445312 328.808594 403.503906 333.496094 413.246094 340.636719 C 426.972656 350.644531 428.289062 376.664062 426.644531 392.785156 C 444.949219 395.0625 463.253906 397.40625 481.582031 399.375 Z M 493.078125 400.535156 C 495.859375 400.84375 498.640625 401.105469 501.441406 401.347656 C 493.734375 382.90625 483.160156 364.597656 477.925781 345.695312 C 473.941406 331.351562 482.171875 321.714844 484.734375 307.871094 C 488.5 287.550781 486.203125 264.136719 475.734375 245.957031 C 464.085938 225.699219 447.511719 221.734375 426.644531 218.230469 C 425.265625 219.152344 423.863281 220.027344 422.464844 220.902344 C 444.796875 223.90625 464.65625 244.511719 472.847656 265.320312 C 480.488281 284.875 476.503906 303.1875 471.53125 322.808594 C 466.628906 342.148438 475.800781 352.289062 482.808594 368.648438 C 487.273438 379.050781 490.667969 389.5 493.078125 400.535156 Z M 530.148438 204.871094 C 548.296875 204.9375 597.828125 205.988281 606.828125 184.613281 C 557.671875 195.410156 512.347656 200.207031 465.269531 179.882812 C 472.101562 202.703125 510.660156 204.761719 530.148438 204.871094 Z M 600.980469 220.53125 C 602.839844 217.203125 595.726562 211.574219 592.8125 208.96875 C 572.996094 216.28125 546.632812 216.21875 530.148438 215.84375 C 509.457031 215.40625 478.253906 212.691406 462.707031 196.703125 C 462.445312 203.03125 462.160156 209.363281 461.789062 215.714844 C 467.242188 218.296875 472.144531 221.824219 476 226.75 C 487.605469 241.710938 493.886719 258.355469 496.539062 277.035156 C 499.339844 296.660156 494.371094 311.597656 488.742188 329.839844 C 484.667969 342.914062 496.1875 359.757812 501.289062 371.691406 C 505.601562 381.832031 509.742188 392.0625 513.636719 402.375 C 529.03125 403.667969 544.445312 404.761719 559.859375 405.640625 C 550.96875 400.359375 543.460938 393.441406 543.066406 383.367188 C 542.824219 377.757812 544.09375 372.304688 546.632812 367.882812 C 546.875 367.003906 547.117188 366.128906 547.335938 365.277344 C 547.707031 364.003906 548.410156 363.042969 549.242188 362.429688 C 551.691406 359.449219 556.683594 358.136719 561.019531 358.136719 C 561.109375 358.136719 561.128906 358.136719 561.171875 358.136719 C 561.765625 340.242188 569.710938 325.917969 573.917969 308.421875 C 577.574219 293.066406 578.121094 277.253906 581.054688 261.792969 C 584.03125 246.089844 589.179688 231.042969 600.28125 223.3125 C 600.28125 222.4375 600.453125 221.496094 600.980469 220.53125 Z M 620.007812 90.132812 C 622.984375 77.363281 640.917969 10.71875 614.511719 15.996094 C 591.410156 20.597656 567.65625 26.464844 543.898438 25.765625 C 523.949219 25.195312 502.820312 10.128906 483.3125 14.792969 C 477.09375 49.308594 471.96875 84.679688 467.679688 119.503906 C 465.730469 135.511719 464.722656 151.523438 463.957031 167.507812 C 464.351562 167.597656 464.722656 167.726562 465.117188 167.925781 C 512.28125 190.285156 557.671875 184.394531 606.761719 173.402344 C 610.855469 145.390625 613.59375 117.75 620.007812 90.132812 Z M 618.867188 407.71875 C 619.746094 404.5 620.664062 401.28125 621.648438 398.0625 C 611.664062 403.625 590.46875 396.003906 582.804688 393.15625 C 573.304688 389.628906 562.726562 386.039062 555.21875 379.007812 C 555.109375 379.488281 555 379.925781 554.890625 380.410156 C 554.800781 380.914062 554.582031 381.351562 554.34375 381.789062 C 554.691406 385.207031 555.941406 388.492188 558.0625 390.375 C 566.273438 397.644531 576.808594 401.761719 586.550781 406.558594 C 586.769531 406.667969 586.945312 406.800781 587.164062 406.910156 C 593.929688 407.171875 600.738281 407.433594 607.570312 407.566406 C 611.335938 407.699219 615.101562 407.71875 618.867188 407.71875 Z M 636.144531 220.179688 C 632.378906 218.011719 628.898438 215.515625 625.941406 212.601562 C 619.417969 206.230469 616.371094 198.675781 615.847656 190.769531 C 613.023438 196.222656 608.664062 200.515625 603.277344 203.863281 C 607.484375 208.15625 611.664062 213.019531 612.167969 218.515625 C 615.628906 217.949219 619.417969 217.75 623.664062 218.277344 C 627.210938 218.671875 631.546875 219.261719 636.144531 220.179688 Z M 663.929688 279.925781 C 666.929688 272.832031 673.828125 259.820312 670.457031 251.761719 C 666.601562 242.542969 657.382812 238.160156 648.734375 235.183594 C 638.269531 231.589844 626.488281 227.867188 615.277344 229.09375 C 589.441406 231.921875 590.097656 275.546875 587.535156 294.6875 C 584.382812 318.230469 571.070312 338.996094 572.164062 363.085938 C 572.296875 366.195312 570.261719 367.925781 567.875 368.277344 C 566.886719 368.910156 565.640625 369.195312 564.21875 368.976562 C 563.667969 369.128906 563.078125 369.238281 562.421875 369.175781 C 561.832031 369.128906 561.347656 369.066406 560.933594 368.976562 C 560.734375 369.019531 560.515625 369.066406 560.339844 369.085938 C 560.78125 369.414062 561.328125 369.832031 562.027344 370.445312 C 563.472656 371.957031 565.136719 373.269531 566.933594 374.363281 C 574.421875 378.4375 582.476562 381.832031 590.6875 384.21875 C 597.785156 386.234375 608.882812 390.769531 616.242188 388.03125 C 617.773438 387.4375 616.855469 384.351562 616.679688 382.90625 C 614.925781 369.523438 621.429688 363.523438 633.363281 361.617188 C 644.378906 334.703125 652.542969 306.691406 663.929688 279.925781 Z M 683.570312 180.914062 C 687.007812 173.378906 690.664062 167.050781 695.242188 162.320312 C 677.636719 164.550781 658.699219 204.652344 677.746094 216.65625 C 675.753906 205.113281 678.183594 192.78125 683.570312 180.914062 Z M 695.023438 244.449219 C 695.023438 244.402344 695.023438 244.402344 695.023438 244.382812 C 693.554688 243.417969 692.132812 242.324219 690.773438 240.964844 C 687.445312 237.746094 684.839844 234.308594 682.761719 230.671875 C 682.058594 231.042969 681.183594 231.261719 680.15625 231.261719 C 675.25 231.132812 669.972656 230.605469 664.675781 229.730469 C 674.746094 235.292969 682.234375 243.265625 682.015625 254.699219 C 681.644531 272.941406 671.222656 290.046875 665.179688 306.84375 C 662.550781 314.160156 659.988281 321.539062 657.382812 328.855469 C 658.632812 328.570312 659.945312 328.65625 661.128906 329.140625 C 662.179688 328.527344 663.382812 328.195312 664.632812 328.371094 C 680.332031 302.769531 686.046875 272.789062 695.023438 244.449219 Z M 663.535156 218.121094 C 648.953125 195.34375 672.316406 150.339844 696.730469 150.667969 C 686.4375 143.046875 667.785156 138.074219 659.464844 140.964844 C 644.640625 146.089844 633.40625 160.675781 629.160156 175.523438 C 624.101562 193.15625 628.679688 204.871094 645.777344 212.339844 C 651.515625 214.816406 657.449219 216.765625 663.535156 218.121094 Z M 707.285156 421.453125 C 707.128906 421.1875 707.019531 420.949219 706.957031 420.683594 C 671.8125 417.203125 635.96875 419.4375 600.71875 418.386719 C 566.339844 417.378906 532.007812 415.449219 497.808594 411.96875 C 431.375 405.265625 365.207031 393.066406 298.25 394.425781 C 298.445312 431.921875 300.308594 469.285156 304.925781 506.472656 C 373.132812 515.121094 440.175781 532.03125 508.734375 538.226562 C 574.027344 544.121094 638.640625 555.136719 703.691406 563.042969 C 703.976562 515.824219 706.910156 468.648438 707.285156 421.453125 Z M 724.382812 364.707031 C 723.246094 363.808594 722.371094 362.472656 722.261719 360.632812 C 721.933594 354.742188 698.371094 356.121094 693.007812 354.851562 C 681.140625 352.027344 670.628906 347.382812 661.632812 339.277344 C 646.917969 359.710938 637.0625 383.5625 630.296875 407.761719 C 656.878906 407.699219 683.59375 407.105469 709.890625 409.953125 C 716 395.28125 720.488281 380.082031 724.382812 364.707031 Z M 713.152344 345.300781 C 719.171875 311.925781 730.976562 280.144531 740.785156 247.820312 C 728.875 248.851562 716.21875 251.324219 705.160156 248.738281 C 696.03125 277.957031 689.964844 308.640625 673.519531 334.855469 C 685.652344 343.351562 698.613281 343.679688 713.152344 345.300781 Z M 767.671875 307.0625 C 767.605469 302.75 766.601562 298.628906 764.652344 294.796875 C 755.453125 292.628906 750.617188 295.015625 750.15625 301.894531 C 749.257812 305.8125 748.46875 309.734375 747.8125 313.71875 C 745.972656 325 742.492188 336.214844 739.886719 347.339844 C 734.304688 371.539062 728.105469 395.300781 718.296875 418.121094 C 718.058594 465.539062 715.121094 512.933594 714.707031 560.304688 C 732.027344 545.433594 752.433594 529.445312 757.796875 506.667969 C 757.730469 506.230469 757.644531 505.792969 757.644531 505.265625 C 758.015625 457.457031 765.308594 409.910156 763.140625 362.054688 C 747.046875 350.011719 748.972656 318.605469 767.671875 307.0625 Z M 777.941406 355.902344 C 805.902344 354.652344 795.238281 320.09375 774.613281 315.777344 C 761.105469 324.125 756.332031 356.867188 777.941406 355.902344 Z M 795.457031 268.058594 C 814.550781 278.175781 812.382812 238.050781 809.207031 228.21875 C 803.558594 210.765625 791.734375 199.550781 776.738281 189.738281 C 757.777344 177.320312 713.21875 146.242188 697.648438 176.882812 C 688.652344 194.644531 677.636719 233.496094 708.925781 238.183594 C 724.382812 240.527344 739.644531 234.855469 755.214844 236.761719 C 757.183594 236.980469 758.5625 238.074219 759.460938 239.433594 C 772.925781 245.257812 782.910156 261.441406 795.457031 268.058594 Z M 816.148438 273.203125 C 841.484375 277.582031 836.796875 232.578125 828.9375 218.605469 C 821.03125 204.652344 810.652344 192.28125 798.21875 182.117188 C 780.242188 167.488281 762.769531 159.363281 743.128906 158.507812 C 754.949219 163.128906 766.292969 169.960938 776.429688 176.488281 C 793.683594 187.546875 811.726562 200.316406 818.339844 220.839844 C 823.179688 235.710938 825.71875 259.097656 816.148438 273.203125 Z M 832.703125 203.582031 C 844.046875 221.296875 852.714844 244.492188 843.542969 265.144531 C 836.292969 281.460938 821.929688 287.265625 805.96875 281.4375 C 788.1875 286.628906 767.367188 253.339844 752.015625 248.585938 C 742.164062 281.394531 730.121094 313.589844 723.902344 347.292969 C 725.480469 347.929688 726.859375 348.695312 728.085938 349.617188 C 728.984375 345.804688 729.859375 341.996094 730.777344 338.183594 C 734.304688 323.09375 735.769531 303.800781 742.492188 289.71875 C 746.128906 282.09375 755.957031 275.679688 764.496094 280.144531 C 774.175781 285.207031 777.527344 295.125 778.53125 305.421875 C 809.449219 312.449219 818.820312 365.101562 779.914062 366.785156 C 777.941406 366.894531 776.058594 366.785156 774.308594 366.523438 C 775.816406 412.886719 769.007812 458.945312 768.636719 505.265625 C 768.636719 505.816406 768.527344 506.296875 768.417969 506.777344 C 768.636719 507.589844 768.679688 508.488281 768.460938 509.472656 C 762.089844 536.605469 737.367188 554.785156 717.617188 572.328125 C 716.394531 573.378906 715.078125 573.773438 713.832031 573.75 C 712.953125 574.5625 711.707031 575.023438 710.066406 574.847656 C 640.546875 566.613281 571.441406 556.011719 501.769531 548.542969 C 434.921875 541.339844 369.453125 525.480469 302.804688 517.179688 C 302.320312 517.09375 301.882812 516.984375 301.46875 516.832031 C 298.554688 517.179688 295.074219 515.449219 294.546875 511.683594 C 289.292969 471.582031 287.34375 431.261719 287.234375 390.835938 C 287.234375 389.234375 287.828125 388.03125 288.679688 387.132812 C 288.878906 386.476562 289.25 385.820312 289.730469 385.316406 C 293.34375 375.109375 296.5625 364.773438 300.242188 354.589844 C 300.285156 354.542969 300.285156 354.542969 300.285156 354.523438 C 295.949219 347.339844 289.839844 341.492188 281.191406 338.46875 C 279.964844 338.050781 279.046875 337.265625 278.410156 336.386719 C 278.125 336.324219 277.796875 336.214844 277.515625 336.101562 C 265.710938 343.507812 246.421875 366.152344 231.816406 358.179688 C 214.542969 348.742188 206.636719 327.210938 196.019531 311.53125 C 188.332031 300.207031 170.574219 281.21875 175.65625 266.171875 C 180.886719 250.667969 204.886719 243.394531 216.554688 234.089844 C 217.824219 233.058594 219.269531 232.730469 220.585938 232.796875 C 267.660156 206.449219 315.460938 181.460938 363.171875 156.316406 C 363.761719 156.011719 364.308594 155.878906 364.855469 155.769531 C 366.78125 154.457031 369.453125 154.214844 371.664062 156.273438 C 373 157.566406 374.292969 158.878906 375.605469 160.238281 C 390.757812 152.792969 404.3125 153.425781 415.652344 161.179688 C 429.054688 155.070312 442.171875 148.433594 454.714844 140.789062 C 455.503906 130.867188 456.445312 120.96875 457.804688 111.046875 C 462.378906 77.671875 466.914062 43.835938 472.910156 10.699219 C 473.085938 9.734375 473.460938 8.96875 473.984375 8.355469 C 474.488281 6.910156 475.539062 5.660156 477.335938 5.046875 C 490.210938 0.535156 501.835938 3.46875 514.359375 8.003906 C 530.890625 14.027344 545.914062 15.824219 563.515625 13.808594 C 581.054688 11.792969 598.046875 7.238281 615.476562 4.871094 C 620.707031 4.171875 628.21875 4.390625 632.203125 8.660156 C 646.699219 24.234375 638.726562 56.097656 634.765625 74.472656 C 627.582031 108.046875 622.570312 141.292969 617.511719 175.195312 C 617.511719 175.195312 617.554688 175.195312 617.597656 175.242188 C 618.757812 170.992188 620.445312 166.808594 622.546875 162.757812 C 631.898438 144.492188 647.792969 127.453125 669.972656 129.511719 C 684.292969 130.867188 704.414062 137.898438 712.078125 151.324219 C 734.105469 145.214844 756.746094 143.964844 777.679688 155.136719 C 798.875 166.457031 819.585938 183.191406 832.703125 203.582031 " fill-opacity="1" fill-rule="nonzero"/><path fill="#000000" d="M 797.496094 226.839844 C 800.84375 234.109375 802.269531 244.273438 798.019531 253.820312 L 795.808594 258.792969 L 792.984375 253.929688 C 786.832031 243.265625 772.183594 236.761719 758.980469 228.261719 C 754.183594 225.4375 749.675781 222.808594 744.988281 221.625 C 743.082031 221.167969 739.667969 220.792969 738.617188 220.96875 C 738.550781 220.96875 738.507812 220.96875 738.464844 220.96875 L 738.289062 221.167969 L 737.632812 221.78125 C 737.324219 222.085938 737.085938 222.414062 736.710938 222.65625 C 735.289062 223.75 733.929688 224.277344 732.574219 224.824219 C 727.558594 226.949219 722.371094 229.027344 717.050781 230.101562 C 714.378906 230.605469 711.640625 230.824219 708.882812 230.605469 C 706.144531 230.34375 703.363281 229.402344 701.066406 227.867188 C 698.832031 226.402344 696.882812 223.640625 696.117188 222 C 694.757812 219.21875 694.757812 216.832031 694.914062 214.597656 C 695.242188 210.214844 696.511719 206.558594 697.714844 203.316406 C 702.882812 190.441406 709.582031 184.765625 710.066406 185.488281 C 710.328125 185.753906 708.992188 187.285156 707.285156 190.394531 C 705.554688 193.550781 703.191406 198.300781 701.242188 204.542969 C 700.300781 207.652344 699.378906 211.203125 699.3125 214.816406 C 699.226562 216.589844 699.597656 218.496094 700.210938 219.589844 C 700.757812 220.464844 701.351562 221.5625 701.941406 222 C 702.421875 222.632812 703.144531 223.136719 703.890625 223.683594 C 705.421875 224.605469 707.238281 225.195312 709.320312 225.328125 C 711.421875 225.414062 713.65625 225.152344 715.933594 224.671875 C 720.53125 223.621094 725.261719 221.625 730.273438 219.394531 L 730.492188 219.285156 C 731.414062 218.890625 732.398438 218.515625 732.902344 218.058594 C 733.078125 217.96875 733.230469 217.75 733.382812 217.597656 L 734.105469 216.832031 C 734.480469 216.328125 736.273438 215.1875 737.085938 215.144531 C 737.585938 215.054688 738.113281 214.96875 738.617188 214.902344 C 739.054688 214.859375 739.425781 214.902344 739.820312 214.902344 C 740.566406 214.945312 741.441406 214.902344 742.097656 215.011719 L 744.179688 215.277344 L 745.207031 215.40625 L 745.273438 215.40625 L 745.625 215.472656 L 745.710938 215.515625 L 745.972656 215.605469 L 746.457031 215.714844 C 747.113281 215.886719 747.746094 216 748.425781 216.21875 L 750.660156 217.027344 C 752.125 217.574219 753.332031 218.1875 754.644531 218.824219 C 757.207031 220.09375 759.703125 221.496094 762.109375 222.960938 C 768.964844 227.210938 775.554688 231 781.949219 235.25 C 786.613281 238.445312 791.144531 241.996094 794.671875 246.351562 C 796.09375 240.199219 795.238281 233.871094 793.117188 228.636719 C 790.640625 221.824219 786.460938 216.613281 782.78125 212.691406 C 775.183594 204.9375 768.898438 202.703125 769.269531 201.980469 C 769.292969 201.523438 776.253906 202.703125 785.125 210.238281 C 789.394531 214.050781 794.253906 219.371094 797.496094 226.839844 " fill-opacity="1" fill-rule="nonzero"/><path fill="#000000" d="M 747.878906 512.582031 C 748.25 513.0625 746.082031 515.40625 742.054688 519.042969 C 740.105469 520.90625 737.457031 522.808594 734.917969 525.527344 C 732.289062 528.132812 729.332031 531 726.070312 534.089844 L 721.449219 538.402344 L 721.339844 532.183594 C 721.1875 524.605469 721.164062 516.042969 721.230469 506.953125 C 721.515625 475.941406 723.683594 450.972656 725.324219 450.972656 C 727.078125 450.972656 727.710938 476.09375 727.429688 506.953125 C 727.339844 513.65625 727.230469 520.09375 727.054688 526.074219 C 728.765625 524.648438 730.429688 523.292969 731.960938 522.042969 C 734.851562 519.523438 737.808594 517.96875 740.082031 516.4375 C 744.703125 513.546875 747.550781 512.121094 747.878906 512.582031 " fill-opacity="1" fill-rule="nonzero"/><path fill="#000000" d="M 702.117188 381.394531 C 702.597656 381.351562 702.949219 383.671875 702.882812 387.832031 C 702.445312 391.949219 701.023438 397.863281 698.285156 404.347656 L 697.648438 405.859375 L 695.746094 405.769531 C 690.882812 405.640625 685.585938 405.203125 679.609375 405.003906 C 676.671875 404.894531 673.609375 404.761719 670.457031 404.609375 C 667.257812 404.347656 663.972656 404.0625 660.644531 403.800781 C 655.589844 403.363281 650.617188 402.15625 645.933594 401.390625 L 641.179688 400.578125 L 644.246094 396.617188 C 647.792969 392.082031 650.179688 386.890625 652.214844 382.207031 C 654.230469 377.429688 655.917969 373.050781 657.582031 369.503906 C 660.820312 362.164062 663.710938 358.550781 664.300781 358.792969 C 665.046875 359.121094 663.25 363.566406 661.128906 370.816406 C 660.03125 374.519531 658.761719 378.984375 657.054688 384.066406 C 655.652344 387.832031 654.054688 392.0625 651.648438 396.222656 C 654.757812 396.769531 657.929688 397.359375 661.304688 397.644531 C 664.566406 397.953125 667.742188 398.238281 670.828125 398.542969 C 673.957031 398.742188 677.046875 398.980469 679.980469 399.199219 C 685.214844 399.527344 690.160156 400.1875 694.585938 400.691406 C 697.277344 395.300781 699.050781 390.722656 700.144531 387.375 C 701.023438 383.628906 701.613281 381.394531 702.117188 381.394531 " fill-opacity="1" fill-rule="nonzero"/><path fill="#000000" d="M 693.707031 515.277344 C 693.839844 524.34375 693.773438 534.527344 691.652344 545.082031 C 691.476562 546.070312 691.277344 547.097656 691.101562 548.039062 L 690.621094 550.777344 L 687.773438 550.449219 C 667.5 547.972656 649.851562 543.636719 637.21875 540.703125 C 624.429688 537.898438 616.570312 536.039062 616.703125 535.183594 C 616.8125 534.375 624.914062 534.789062 637.917969 536.496094 C 650.332031 538.273438 667.019531 541.601562 685.585938 543.945312 L 685.585938 543.902344 C 687.578125 534.023438 687.839844 524.210938 688.039062 515.296875 C 688.148438 506.363281 687.882812 498.28125 687.839844 491.425781 C 687.710938 477.78125 688.496094 469.238281 689.308594 469.285156 C 690.226562 469.285156 690.949219 477.648438 692.199219 491.25 C 692.789062 498.019531 693.511719 506.144531 693.707031 515.277344 " fill-opacity="1" fill-rule="nonzero"/><path fill="#000000" d="M 662.179688 260.589844 C 662.355469 261.945312 662.289062 263.371094 662.222656 264.882812 C 662.246094 266.304688 661.894531 268.035156 661.476562 269.785156 C 661.347656 270.75 661.039062 271.40625 660.753906 272.085938 L 660.316406 273.203125 L 660.097656 273.75 L 660.054688 273.816406 L 659.902344 274.1875 L 659.792969 274.296875 L 659.660156 274.582031 C 658.761719 276.09375 657.820312 277.628906 656.398438 279.117188 C 654.996094 280.585938 652.871094 282.09375 650.332031 282.445312 C 647.835938 282.816406 645.667969 282.316406 643.765625 281.789062 C 641.859375 281.242188 640.0625 280.628906 638.355469 280.125 C 636.605469 279.554688 634.546875 278.941406 632.75 278.285156 C 625.285156 275.613281 618.320312 272.460938 612.386719 268.582031 C 609.453125 266.589844 606.761719 264.488281 604.550781 261.878906 C 602.425781 259.320312 600.78125 256.054688 600.980469 252.726562 C 601.046875 249.398438 602.796875 247.011719 604.265625 245.367188 C 605.882812 243.789062 607.328125 242.695312 608.664062 241.949219 C 611.292969 240.417969 612.824219 240.132812 613.042969 240.417969 C 613.351562 240.789062 612.039062 241.929688 610.109375 243.855469 C 608.335938 245.71875 605.074219 248.914062 605.335938 252.726562 C 605.46875 256.492188 609.980469 260.566406 615.429688 263.742188 C 620.949219 267.003906 627.648438 269.898438 634.832031 272.460938 C 636.691406 273.117188 638.3125 273.640625 640.171875 274.210938 C 642.078125 274.847656 643.808594 275.503906 645.40625 275.984375 C 647.027344 276.445312 648.492188 276.75 649.523438 276.640625 C 650.507812 276.53125 651.382812 276.007812 652.371094 275.085938 C 653.332031 274.1875 654.1875 272.960938 654.996094 271.757812 L 655.148438 271.539062 L 655.238281 271.429688 L 655.414062 271.035156 L 655.917969 269.960938 C 656.246094 269.285156 656.660156 268.539062 656.683594 267.992188 C 657.339844 265.800781 657.777344 263.019531 657.820312 260.675781 C 658.304688 250.820312 655.566406 245.148438 656.355469 244.667969 C 656.945312 244.164062 661.523438 249.769531 662.179688 260.589844 " fill-opacity="1" fill-rule="nonzero"/><path fill="#000000" d="M 599.359375 94.316406 C 599.511719 89.605469 599.644531 84.875 599.796875 80.191406 C 598.550781 80.585938 597.125 80.5625 595.636719 79.773438 C 578.054688 70.617188 556.226562 77.035156 537.394531 76.859375 C 526.511719 76.75 516.222656 74.472656 515.0625 88.929688 C 514.207031 98.785156 513.289062 109.363281 518.957031 118.011719 C 519.15625 118.339844 519.308594 118.625 519.441406 118.953125 C 536.039062 118.953125 552.570312 119 569.339844 119.875 C 577.945312 120.3125 594.28125 123.070312 597.28125 110.785156 C 598.59375 105.332031 599.207031 99.921875 599.359375 94.316406 Z M 600.234375 69.851562 C 600.5 65.210938 600.78125 60.589844 601.15625 55.988281 C 567.4375 58.464844 533.585938 59.273438 499.910156 56.121094 C 498.507812 56.164062 497.148438 56.164062 495.792969 56.164062 C 492.835938 76.96875 492.902344 97.90625 493.40625 118.890625 C 498.027344 118.933594 502.601562 118.953125 507.179688 118.953125 C 501.027344 103.46875 499.054688 69.566406 517.6875 66.566406 C 531 64.398438 545.363281 65.386719 558.875 64.683594 C 572.996094 63.9375 587.316406 63.523438 600.234375 69.851562 Z M 606.9375 44.511719 C 611.445312 44.164062 614.882812 48.433594 611.226562 51.761719 C 611.226562 51.761719 611.226562 51.804688 611.226562 51.851562 C 611.226562 69.414062 611.511719 87.570312 608.949219 105.046875 C 607.59375 114.269531 604.855469 126.292969 594.390625 129.140625 C 579.523438 133.167969 564.371094 130.058594 549.328125 128.984375 C 528.921875 127.5625 508.492188 130.101562 488.085938 129.839844 C 485 129.796875 482.65625 127.386719 482.566406 124.34375 C 481.890625 99.15625 481.714844 74.1875 485.765625 49.242188 C 486.050781 47.535156 487.496094 46.242188 489.09375 45.609375 C 489.96875 44.820312 491.195312 44.335938 492.835938 44.511719 C 495.179688 44.777344 497.480469 44.929688 499.777344 45.148438 C 501.945312 45.148438 504.003906 45.105469 506.128906 45.105469 C 507.289062 45.105469 508.140625 45.433594 508.910156 45.957031 C 541.664062 48.300781 574.246094 47.164062 606.9375 44.511719 " fill-opacity="1" fill-rule="nonzero"/><path fill="#000000" d="M 610.527344 370.597656 C 610.570312 372.019531 610.484375 373.664062 609.605469 375.394531 C 608.796875 377.101562 607 378.394531 605.46875 378.832031 C 602.359375 379.707031 600.058594 379.160156 597.980469 378.722656 C 593.84375 377.628906 590.644531 376.007812 588.019531 374.519531 C 582.804688 371.472656 580.222656 368.648438 580.726562 367.949219 C 581.207031 367.269531 584.492188 368.648438 589.835938 370.554688 C 592.527344 371.429688 595.726562 372.570312 599.097656 373.117188 C 600.738281 373.421875 602.621094 373.488281 603.542969 373.09375 C 604.023438 372.898438 604.046875 372.789062 604.15625 372.570312 C 604.265625 372.351562 604.375 371.757812 604.351562 371.035156 C 600.9375 370.925781 597.71875 370.378906 594.871094 369.523438 C 591.257812 368.40625 588.28125 366.941406 585.960938 365.472656 C 581.25 362.496094 579.128906 360.085938 579.476562 359.429688 C 579.917969 358.660156 583.070312 359.976562 587.796875 361.683594 C 590.164062 362.582031 593.03125 363.5 596.25 364.179688 C 599.449219 364.773438 602.996094 365.101562 606.761719 364.882812 L 609.324219 364.726562 L 609.933594 367.179688 C 610.199219 368.253906 610.417969 369.347656 610.527344 370.597656 " fill-opacity="1" fill-rule="nonzero"/><path fill="#000000" d="M 594.785156 143.460938 C 598.988281 145.828125 601.988281 153.425781 598.769531 161.332031 C 598.417969 162.273438 597.761719 163.304688 597.015625 164.355469 L 596.054688 165.496094 C 595.550781 166.085938 595.113281 166.304688 594.609375 166.722656 C 592.703125 168.277344 590.535156 169.128906 588.347656 169.941406 C 583.945312 171.429688 579.214844 172.238281 574.289062 172.832031 C 564.390625 173.992188 553.53125 174.078125 542.320312 173.925781 C 531.132812 173.925781 520.207031 173.882812 510.332031 172.347656 C 500.476562 170.859375 491.390625 167.707031 485.328125 162.492188 C 479.261719 157.304688 476.765625 151.082031 475.910156 146.855469 C 475.253906 142.695312 475.40625 140.417969 475.78125 140.308594 C 476.238281 140.199219 476.917969 142.476562 478.253906 146.308594 C 479.699219 149.878906 482.480469 155.027344 488.042969 159.054688 C 493.558594 163.128906 501.726562 165.605469 511.097656 166.722656 C 520.511719 167.835938 531.089844 167.773438 542.363281 167.726562 C 553.597656 167.882812 564.171875 167.949219 573.699219 167.160156 C 582.960938 166.238281 592.289062 165.054688 594.828125 159.449219 C 596.25 156.710938 596.578125 153.558594 596.207031 151.039062 C 595.8125 148.519531 594.71875 146.570312 593.359375 145.390625 C 590.625 143.046875 587.953125 143.375 588.039062 142.761719 C 588.019531 142.542969 588.609375 142.367188 589.726562 142.214844 C 590.863281 142.105469 592.746094 142.214844 594.785156 143.460938 " fill-opacity="1" fill-rule="nonzero"/><path fill="#000000" d="M 577.660156 530.890625 C 577.574219 531.703125 568.726562 531.484375 554.472656 530.015625 C 540.242188 528.480469 520.730469 525.328125 499.316406 521.714844 C 477.902344 518.167969 458.480469 515.472656 444.46875 514.09375 C 440.988281 513.609375 437.726562 513.5 434.921875 513.28125 C 432.054688 513.0625 429.644531 512.886719 427.632812 512.667969 C 423.667969 512.230469 421.480469 511.792969 421.480469 511.378906 C 421.480469 510.9375 423.667969 510.566406 427.675781 510.238281 C 429.6875 510.105469 432.097656 509.953125 434.945312 509.84375 C 437.769531 509.714844 440.988281 509.515625 444.621094 509.734375 C 459.050781 509.996094 478.800781 512.054688 500.347656 515.648438 C 521.828125 519.261719 541.117188 523.074219 555.109375 525.699219 C 569.011719 528.261719 577.660156 529.992188 577.660156 530.890625 " fill-opacity="1" fill-rule="nonzero"/><path fill="#000000" d="M 462.445312 390.59375 L 463.363281 394.164062 L 459.511719 393.703125 C 455.703125 393.265625 451.324219 393.175781 446.636719 392.671875 C 444.292969 392.390625 441.839844 392.0625 439.28125 391.25 C 436.785156 390.394531 433.738281 389.167969 431.703125 386.015625 L 431.59375 385.863281 L 431.59375 385.796875 C 431.398438 385.269531 431.265625 384.722656 431.113281 384.175781 C 431.003906 383.585938 430.9375 383.082031 430.9375 382.796875 L 430.894531 380.628906 C 431.003906 379.3125 431.023438 377.914062 431.179688 376.640625 C 431.398438 373.992188 431.703125 371.429688 431.988281 368.84375 C 432.140625 367.398438 432.296875 366.261719 432.359375 364.882812 L 432.140625 363.851562 L 432.054688 363.808594 L 432.140625 363.785156 L 432.296875 363.675781 L 432.316406 363.152344 L 432.164062 361.160156 C 431.945312 358.464844 431.703125 355.878906 431.332031 353.382812 C 430.566406 348.324219 429.425781 343.617188 427.632812 339.5 C 425.835938 335.445312 423.382812 332.03125 420.449219 329.511719 C 417.558594 326.96875 414.273438 325.371094 411.121094 324.234375 L 405.230469 322.066406 L 410.96875 320.203125 C 417.054688 318.1875 421.785156 315.777344 425.136719 314.3125 C 428.484375 312.777344 430.410156 312.078125 430.632812 312.40625 C 430.804688 312.777344 429.273438 314.160156 426.316406 316.328125 C 424.085938 317.859375 421.128906 319.875 417.273438 321.890625 C 419.441406 322.808594 421.589844 323.992188 423.667969 325.589844 C 427.367188 328.417969 430.566406 332.46875 432.796875 337.15625 C 435.03125 341.839844 436.410156 347.054688 437.308594 352.441406 C 437.769531 355.113281 438.097656 357.851562 438.359375 360.632812 L 438.492188 362.714844 L 438.535156 363.238281 L 438.578125 363.371094 L 438.578125 364.070312 L 438.492188 365.144531 C 438.46875 366.503906 438.292969 368.144531 438.140625 369.503906 C 437.835938 372.085938 436.828125 374.648438 436.519531 377.191406 C 436.390625 378.4375 435.515625 379.597656 435.515625 380.804688 L 435.515625 382.425781 C 435.515625 382.753906 436.28125 382.863281 436.300781 382.863281 C 436.300781 382.90625 436.675781 382.929688 436.675781 382.972656 L 436.71875 382.972656 C 436.738281 382.929688 436.828125 382.90625 436.871094 382.863281 C 437.527344 383.914062 439.125 384.988281 441.097656 385.601562 C 443.046875 386.257812 445.191406 386.671875 447.359375 387 C 450.511719 387.484375 453.578125 387.769531 456.664062 388.140625 C 452.898438 369.128906 450.992188 356.648438 451.980469 356.339844 C 453.050781 356.097656 457.101562 369.722656 462.445312 390.59375 " fill-opacity="1" fill-rule="nonzero"/><path fill="#000000" d="M 446.484375 284.375 C 447.074219 284.898438 445.34375 287.832031 441.644531 291.820312 C 437.964844 295.828125 432.140625 300.535156 425.332031 305.003906 C 418.433594 309.40625 412.042969 312.886719 407.269531 315.1875 C 402.515625 317.488281 399.363281 318.625 398.882812 317.902344 C 398.445312 317.203125 400.765625 314.792969 404.945312 311.488281 C 409.195312 308.203125 415.214844 304.128906 421.960938 299.8125 C 428.617188 295.457031 434.550781 291.492188 438.84375 288.535156 C 443.046875 285.535156 445.828125 283.738281 446.484375 284.375 " fill-opacity="1" fill-rule="nonzero"/><path fill="#000000" d="M 432.054688 363.808594 L 431.835938 363.851562 C 431.835938 363.808594 431.835938 363.675781 431.835938 363.609375 L 432.054688 363.808594 " fill-opacity="1" fill-rule="nonzero"/><path fill="#000000" d="M 382.636719 506.1875 C 395.816406 507.808594 403.984375 509.84375 403.765625 510.765625 C 403.613281 511.53125 395.53125 511.027344 382.285156 510.546875 C 375.652344 510.238281 367.746094 509.800781 358.945312 509.011719 C 350.164062 508.136719 340.464844 507.0625 330.328125 504.214844 C 327.808594 503.472656 325.3125 502.59375 322.859375 501.433594 C 321.65625 500.84375 320.453125 500.140625 319.269531 499.332031 C 318.679688 498.894531 318.175781 498.609375 317.515625 497.953125 C 316.925781 497.40625 316.203125 496.703125 315.941406 496.308594 C 314.078125 493.726562 313.335938 491.316406 312.613281 488.972656 C 311.910156 486.605469 311.472656 484.285156 311.078125 482.050781 C 309.722656 473.117188 309.570312 465.144531 309.503906 458.488281 C 309.613281 445.105469 310.269531 436.980469 311.035156 436.914062 C 311.957031 436.914062 312.832031 445.148438 313.90625 458.289062 C 314.472656 464.835938 315.085938 472.679688 316.683594 481.023438 C 317.125 483.125 317.582031 485.207031 318.238281 487.265625 C 318.546875 488.273438 318.984375 489.191406 319.3125 490.175781 L 319.992188 491.492188 L 320.1875 491.839844 L 320.253906 491.972656 L 320.253906 492.015625 L 320.734375 492.609375 C 321.785156 493.835938 323.472656 494.90625 325.53125 495.847656 C 327.546875 496.8125 329.734375 497.625 332.078125 498.28125 C 341.449219 500.953125 350.972656 502.199219 359.578125 503.363281 C 368.25 504.433594 376.089844 505.375 382.636719 506.1875 " fill-opacity="1" fill-rule="nonzero"/></svg>