<svg xmlns="http://www.w3.org/2000/svg" xmlns:xlink="http://www.w3.org/1999/xlink" width="214" zoomAndPan="magnify" viewBox="0 0 160.5 160.499994" height="214" preserveAspectRatio="xMidYMid meet" version="1.0"><defs><clipPath id="1c3d696fd3"><path d="M 0 0 L 159.300781 0 L 159.300781 159.300781 L 0 159.300781 Z M 0 0 " clip-rule="nonzero"/></clipPath></defs><g clip-path="url(#1c3d696fd3)"><path fill="#ffffff" d="M 0 0 L 159.300781 0 L 159.300781 159.300781 L 0 159.300781 Z M 0 0 " fill-opacity="1" fill-rule="nonzero"/></g><path stroke-linecap="butt" transform="matrix(4.827342, 0, 0, 4.827342, 0.000003, 0.000000000000010625)" fill-opacity="1" fill="#ffffff" fill-rule="nonzero" stroke-linejoin="miter" d="M 2.000324 2.499596 L 8.999841 2.499596 M 10.000003 2.499596 L 12.000328 2.499596 M 15.000005 2.499596 L 16.000168 2.499596 M 17.999683 2.499596 L 18.999845 2.499596 M 21.00017 2.499596 L 22.999685 2.499596 M 23.999847 2.499596 L 31.000174 2.499596 M 2.000324 3.499759 L 2.999677 3.499759 M 7.999679 3.499759 L 8.999841 3.499759 M 10.000003 3.499759 L 13.999843 3.499759 M 16.000168 3.499759 L 17.00033 3.499759 M 17.999683 3.499759 L 21.00017 3.499759 M 23.999847 3.499759 L 25.000009 3.499759 M 30.000011 3.499759 L 31.000174 3.499759 M 2.000324 4.499921 L 2.999677 4.499921 M 3.999839 4.499921 L 7.000326 4.499921 M 7.999679 4.499921 L 8.999841 4.499921 M 11.000166 4.499921 L 16.000168 4.499921 M 20.000007 4.499921 L 21.00017 4.499921 M 22.000332 4.499921 L 22.999685 4.499921 M 23.999847 4.499921 L 25.000009 4.499921 M 26.000172 4.499921 L 28.999849 4.499921 M 30.000011 4.499921 L 31.000174 4.499921 M 2.000324 5.500083 L 2.999677 5.500083 M 3.999839 5.500083 L 7.000326 5.500083 M 7.999679 5.500083 L 8.999841 5.500083 M 10.000003 5.500083 L 12.999681 5.500083 M 13.999843 5.500083 L 17.999683 5.500083 M 18.999845 5.500083 L 22.000332 5.500083 M 23.999847 5.500083 L 25.000009 5.500083 M 26.000172 5.500083 L 28.999849 5.500083 M 30.000011 5.500083 L 31.000174 5.500083 M 2.000324 6.500245 L 2.999677 6.500245 M 3.999839 6.500245 L 7.000326 6.500245 M 7.999679 6.500245 L 8.999841 6.500245 M 11.000166 6.500245 L 12.999681 6.500245 M 15.000005 6.500245 L 18.999845 6.500245 M 21.00017 6.500245 L 22.999685 6.500245 M 23.999847 6.500245 L 25.000009 6.500245 M 26.000172 6.500245 L 28.999849 6.500245 M 30.000011 6.500245 L 31.000174 6.500245 M 2.000324 7.499598 L 2.999677 7.499598 M 7.999679 7.499598 L 8.999841 7.499598 M 12.999681 7.499598 L 13.999843 7.499598 M 16.000168 7.499598 L 17.00033 7.499598 M 17.999683 7.499598 L 22.999685 7.499598 M 23.999847 7.499598 L 25.000009 7.499598 M 30.000011 7.499598 L 31.000174 7.499598 M 2.000324 8.499761 L 8.999841 8.499761 M 10.000003 8.499761 L 11.000166 8.499761 M 12.000328 8.499761 L 12.999681 8.499761 M 13.999843 8.499761 L 15.000005 8.499761 M 16.000168 8.499761 L 17.00033 8.499761 M 17.999683 8.499761 L 18.999845 8.499761 M 20.000007 8.499761 L 21.00017 8.499761 M 22.000332 8.499761 L 22.999685 8.499761 M 23.999847 8.499761 L 31.000174 8.499761 M 10.000003 9.499923 L 12.000328 9.499923 M 13.999843 9.499923 L 15.000005 9.499923 M 17.00033 9.499923 L 21.00017 9.499923 M 2.000324 10.500085 L 2.999677 10.500085 M 3.999839 10.500085 L 6.000164 10.500085 M 7.000326 10.500085 L 10.000003 10.500085 M 11.000166 10.500085 L 12.999681 10.500085 M 13.999843 10.500085 L 15.000005 10.500085 M 16.000168 10.500085 L 17.00033 10.500085 M 17.999683 10.500085 L 18.999845 10.500085 M 20.000007 10.500085 L 21.00017 10.500085 M 23.999847 10.500085 L 25.000009 10.500085 M 27.000334 10.500085 L 27.999687 10.500085 M 28.999849 10.500085 L 31.000174 10.500085 M 2.999677 11.500247 L 3.999839 11.500247 M 5.000001 11.500247 L 7.999679 11.500247 M 8.999841 11.500247 L 11.000166 11.500247 M 12.000328 11.500247 L 12.999681 11.500247 M 16.000168 11.500247 L 17.00033 11.500247 M 17.999683 11.500247 L 18.999845 11.500247 M 20.000007 11.500247 L 22.999685 11.500247 M 23.999847 11.500247 L 27.000334 11.500247 M 30.000011 11.500247 L 31.000174 11.500247 M 2.000324 12.4996 L 3.999839 12.4996 M 5.000001 12.4996 L 7.000326 12.4996 M 7.999679 12.4996 L 10.000003 12.4996 M 12.999681 12.4996 L 15.000005 12.4996 M 17.999683 12.4996 L 18.999845 12.4996 M 22.999685 12.4996 L 23.999847 12.4996 M 25.000009 12.4996 L 27.000334 12.4996 M 27.999687 12.4996 L 30.000011 12.4996 M 2.000324 13.499763 L 5.000001 13.499763 M 7.000326 13.499763 L 7.999679 13.499763 M 8.999841 13.499763 L 10.000003 13.499763 M 12.999681 13.499763 L 17.00033 13.499763 M 17.999683 13.499763 L 18.999845 13.499763 M 22.000332 13.499763 L 22.999685 13.499763 M 25.000009 13.499763 L 27.000334 13.499763 M 30.000011 13.499763 L 31.000174 13.499763 M 2.000324 14.499925 L 2.999677 14.499925 M 5.000001 14.499925 L 6.000164 14.499925 M 7.999679 14.499925 L 8.999841 14.499925 M 12.999681 14.499925 L 17.999683 14.499925 M 18.999845 14.499925 L 20.000007 14.499925 M 21.00017 14.499925 L 22.000332 14.499925 M 27.000334 14.499925 L 28.999849 14.499925 M 2.999677 15.500087 L 5.000001 15.500087 M 8.999841 15.500087 L 10.000003 15.500087 M 12.999681 15.500087 L 13.999843 15.500087 M 17.00033 15.500087 L 22.000332 15.500087 M 23.999847 15.500087 L 26.000172 15.500087 M 27.999687 15.500087 L 31.000174 15.500087 M 2.999677 16.500249 L 6.000164 16.500249 M 7.999679 16.500249 L 8.999841 16.500249 M 11.000166 16.500249 L 15.000005 16.500249 M 18.999845 16.500249 L 20.000007 16.500249 M 21.00017 16.500249 L 27.000334 16.500249 M 27.999687 16.500249 L 31.000174 16.500249 M 2.000324 17.499602 L 2.999677 17.499602 M 3.999839 17.499602 L 7.000326 17.499602 M 10.000003 17.499602 L 15.000005 17.499602 M 16.000168 17.499602 L 17.00033 17.499602 M 20.000007 17.499602 L 22.000332 17.499602 M 25.000009 17.499602 L 27.000334 17.499602 M 28.999849 17.499602 L 30.000011 17.499602 M 3.999839 18.499765 L 6.000164 18.499765 M 7.000326 18.499765 L 8.999841 18.499765 M 10.000003 18.499765 L 11.000166 18.499765 M 12.000328 18.499765 L 13.999843 18.499765 M 15.000005 18.499765 L 16.000168 18.499765 M 17.999683 18.499765 L 18.999845 18.499765 M 20.000007 18.499765 L 21.00017 18.499765 M 22.000332 18.499765 L 23.999847 18.499765 M 26.000172 18.499765 L 27.999687 18.499765 M 28.999849 18.499765 L 30.000011 18.499765 M 2.999677 19.499927 L 3.999839 19.499927 M 7.000326 19.499927 L 7.999679 19.499927 M 10.000003 19.499927 L 11.000166 19.499927 M 12.999681 19.499927 L 13.999843 19.499927 M 15.000005 19.499927 L 16.000168 19.499927 M 17.00033 19.499927 L 17.999683 19.499927 M 22.000332 19.499927 L 22.999685 19.499927 M 25.000009 19.499927 L 26.000172 19.499927 M 27.000334 19.499927 L 30.000011 19.499927 M 2.000324 20.500089 L 2.999677 20.500089 M 3.999839 20.500089 L 6.000164 20.500089 M 7.999679 20.500089 L 8.999841 20.500089 M 10.000003 20.500089 L 15.000005 20.500089 M 16.000168 20.500089 L 18.999845 20.500089 M 20.000007 20.500089 L 21.00017 20.500089 M 23.999847 20.500089 L 26.000172 20.500089 M 27.999687 20.500089 L 28.999849 20.500089 M 5.000001 21.500251 L 7.000326 21.500251 M 10.000003 21.500251 L 11.000166 21.500251 M 12.000328 21.500251 L 12.999681 21.500251 M 17.00033 21.500251 L 17.999683 21.500251 M 18.999845 21.500251 L 22.000332 21.500251 M 23.999847 21.500251 L 25.000009 21.500251 M 27.999687 21.500251 L 28.999849 21.500251 M 2.999677 22.499604 L 5.000001 22.499604 M 7.999679 22.499604 L 10.000003 22.499604 M 11.000166 22.499604 L 13.999843 22.499604 M 15.000005 22.499604 L 16.000168 22.499604 M 18.999845 22.499604 L 21.00017 22.499604 M 22.000332 22.499604 L 28.999849 22.499604 M 10.000003 23.499767 L 11.000166 23.499767 M 15.000005 23.499767 L 16.000168 23.499767 M 17.999683 23.499767 L 21.00017 23.499767 M 22.000332 23.499767 L 22.999685 23.499767 M 26.000172 23.499767 L 31.000174 23.499767 M 2.000324 24.499929 L 8.999841 24.499929 M 10.000003 24.499929 L 12.000328 24.499929 M 15.000005 24.499929 L 16.000168 24.499929 M 20.000007 24.499929 L 22.999685 24.499929 M 23.999847 24.499929 L 25.000009 24.499929 M 26.000172 24.499929 L 27.999687 24.499929 M 28.999849 24.499929 L 30.000011 24.499929 M 2.000324 25.500091 L 2.999677 25.500091 M 7.999679 25.500091 L 8.999841 25.500091 M 10.000003 25.500091 L 11.000166 25.500091 M 12.999681 25.500091 L 15.000005 25.500091 M 17.00033 25.500091 L 17.999683 25.500091 M 21.00017 25.500091 L 22.999685 25.500091 M 26.000172 25.500091 L 27.999687 25.500091 M 28.999849 25.500091 L 31.000174 25.500091 M 2.000324 26.500253 L 2.999677 26.500253 M 3.999839 26.500253 L 7.000326 26.500253 M 7.999679 26.500253 L 8.999841 26.500253 M 12.000328 26.500253 L 12.999681 26.500253 M 16.000168 26.500253 L 17.00033 26.500253 M 18.999845 26.500253 L 20.000007 26.500253 M 22.000332 26.500253 L 27.000334 26.500253 M 27.999687 26.500253 L 31.000174 26.500253 M 2.000324 27.499606 L 2.999677 27.499606 M 3.999839 27.499606 L 7.000326 27.499606 M 7.999679 27.499606 L 8.999841 27.499606 M 10.000003 27.499606 L 11.000166 27.499606 M 12.000328 27.499606 L 13.999843 27.499606 M 16.000168 27.499606 L 20.000007 27.499606 M 21.00017 27.499606 L 22.000332 27.499606 M 22.999685 27.499606 L 23.999847 27.499606 M 26.000172 27.499606 L 27.999687 27.499606 M 30.000011 27.499606 L 31.000174 27.499606 M 2.000324 28.499769 L 2.999677 28.499769 M 3.999839 28.499769 L 7.000326 28.499769 M 7.999679 28.499769 L 8.999841 28.499769 M 10.000003 28.499769 L 12.000328 28.499769 M 12.999681 28.499769 L 17.00033 28.499769 M 20.000007 28.499769 L 21.00017 28.499769 M 22.000332 28.499769 L 22.999685 28.499769 M 25.000009 28.499769 L 26.000172 28.499769 M 27.999687 28.499769 L 28.999849 28.499769 M 30.000011 28.499769 L 31.000174 28.499769 M 2.000324 29.499931 L 2.999677 29.499931 M 7.999679 29.499931 L 8.999841 29.499931 M 11.000166 29.499931 L 12.000328 29.499931 M 15.000005 29.499931 L 18.999845 29.499931 M 20.000007 29.499931 L 21.00017 29.499931 M 22.000332 29.499931 L 22.999685 29.499931 M 23.999847 29.499931 L 26.000172 29.499931 M 27.000334 29.499931 L 27.999687 29.499931 M 28.999849 29.499931 L 30.000011 29.499931 M 2.000324 30.500093 L 8.999841 30.500093 M 10.000003 30.500093 L 12.000328 30.500093 M 12.999681 30.500093 L 15.000005 30.500093 M 16.000168 30.500093 L 17.00033 30.500093 M 20.000007 30.500093 L 23.999847 30.500093 M 27.000334 30.500093 L 27.999687 30.500093 M 28.999849 30.500093 L 30.000011 30.500093 " stroke="#000000" stroke-width="1" stroke-opacity="1" stroke-miterlimit="4"/></svg>